<svg width="108" height="86" viewBox="0 0 108 86" fill="none" xmlns="http://www.w3.org/2000/svg">
<path d="M15.8008 77.7454C36.8685 88.7514 71.0283 88.7514 92.0961 77.7454C113.164 66.7394 113.164 48.8947 92.0961 37.8863C71.0283 26.8779 36.8782 26.8803 15.8008 37.8863C-5.27657 48.8923 -5.2573 66.7394 15.8008 77.7454Z" fill="#F5F5F5"/>
<path d="M9.92817 59.696L3.07983 55.7431V41.054L9.92817 45.0093V59.696Z" fill="#E0E0E0"/>
<path d="M9.9281 45.0093L19.7128 39.3606V54.0473L9.9281 59.6961V45.0093Z" fill="#EBEBEB"/>
<path d="M19.7129 39.3606L9.92817 45.0093L3.07983 41.054L12.8646 35.4053L19.7129 39.3606Z" fill="#F5F5F5"/>
<path d="M10.9084 45.5729L18.7347 41.054L18.9154 41.1575V46.5991L11.0867 51.1181L10.906 51.0145L10.9084 45.5729Z" fill="#E0E0E0"/>
<path d="M11.0869 45.6789L18.9157 41.1575V46.599L11.0869 51.118V45.6789Z" fill="#F5F5F5"/>
<path d="M14.1558 44.8286L15.4879 44.0602C15.6589 43.959 15.7986 44.0048 15.7986 44.1613C15.7862 44.2572 15.7517 44.3489 15.6978 44.4292C15.6438 44.5095 15.572 44.5761 15.4879 44.6238L14.1558 45.3923C13.9824 45.4934 13.8427 45.4477 13.8427 45.2911C13.8551 45.1949 13.89 45.103 13.9443 45.0227C13.9987 44.9424 14.0711 44.8759 14.1558 44.8286Z" fill="#E0E0E0"/>
<path d="M10.728 52.4572L18.5544 47.9382V53.3798L18.735 53.4834L10.9063 58.0024L10.728 57.8988V52.4572Z" fill="#E0E0E0"/>
<path d="M10.906 52.561L18.7347 48.042V53.4836L10.906 58.0026V52.561Z" fill="#F5F5F5"/>
<path d="M13.9749 51.7131L15.3191 50.9471C15.4925 50.846 15.6322 50.8917 15.6322 51.0483C15.6197 51.1445 15.5849 51.2364 15.5305 51.3167C15.4762 51.397 15.4037 51.4635 15.3191 51.5108L13.987 52.2792C13.8135 52.3804 13.6738 52.3346 13.6738 52.178C13.6847 52.0825 13.7175 51.9909 13.7697 51.9102C13.822 51.8295 13.8922 51.7621 13.9749 51.7131Z" fill="#E0E0E0"/>
<path d="M9.92817 44.1613L3.07983 40.206V25.5193L9.92817 29.4722V44.1613Z" fill="#E0E0E0"/>
<path d="M9.9281 29.4722L19.7128 23.8235V38.5126L9.9281 44.1613V29.4722Z" fill="#EBEBEB"/>
<path d="M19.7128 23.8235L9.92805 29.4723L3.07971 25.5193L12.8644 19.8706L19.7128 23.8235Z" fill="#F5F5F5"/>
<path d="M10.906 30.0383L18.7347 25.5193L18.9154 25.6229V31.0644L11.0867 35.5834L10.906 35.4774V30.0383Z" fill="#E0E0E0"/>
<path d="M14.1558 29.2917L15.4855 28.5232C15.6589 28.4245 15.7986 28.4702 15.7986 28.6268C15.7858 28.7229 15.7508 28.8147 15.6965 28.8949C15.6421 28.9752 15.5699 29.0417 15.4855 29.0893L14.1558 29.8577C13.9824 29.9565 13.8427 29.9131 13.8427 29.7566C13.8553 29.6601 13.8902 29.568 13.9445 29.4873C13.9989 29.4066 14.0712 29.3397 14.1558 29.2917Z" fill="#E0E0E0"/>
<path d="M10.728 36.923L18.5544 32.4041V37.8432L18.735 37.9468L10.9063 42.4658L10.728 42.3622V36.923Z" fill="#E0E0E0"/>
<path d="M10.906 37.0263L18.7347 32.5073V37.9465L10.906 42.4655V37.0263Z" fill="#F5F5F5"/>
<path d="M13.9751 36.1759L15.3193 35.4075C15.4903 35.3088 15.6324 35.3545 15.6324 35.5111C15.6189 35.6069 15.5836 35.6984 15.5293 35.7786C15.4751 35.8587 15.4032 35.9254 15.3193 35.9736L13.9751 36.7348C13.8017 36.8336 13.662 36.7878 13.662 36.6336C13.6757 36.5385 13.7111 36.4477 13.7654 36.3684C13.8197 36.289 13.8914 36.2232 13.9751 36.1759Z" fill="#E0E0E0"/>
<path d="M10.906 30.0383L18.7347 25.5193V30.9585L10.906 35.4774V30.0383Z" fill="#E0E0E0"/>
<path d="M22.6493 28.2075L18.364 25.7336V30.5272L22.6493 32.9987V28.2075Z" fill="#E0E0E0"/>
<path d="M13.8427 36.2534V29.4725L15.5216 28.4993L15.7986 28.9088L20.691 26.0833V32.2981L13.8427 36.2534Z" fill="#EBEBEB"/>
<path d="M13.8427 36.2531L14.3316 30.3201L21.18 26.3672L20.691 32.2978L13.8427 36.2531Z" fill="#F5F5F5"/>
<path d="M14.8206 32.7265L11.0869 30.5706V35.3642L14.8206 37.5177V32.7265Z" fill="#EBEBEB"/>
<path d="M14.8206 32.298L22.6493 27.7791V33.2182L14.8206 37.7372V32.298Z" fill="#F5F5F5"/>
<path d="M17.8894 31.4474L19.2191 30.679C19.3926 30.5802 19.5323 30.626 19.5323 30.7826C19.5192 30.8786 19.4842 30.9703 19.4299 31.0505C19.3756 31.1307 19.3034 31.1973 19.2191 31.2451L17.8894 32.0135C17.716 32.1123 17.5763 32.0665 17.5763 31.9123C17.589 31.8159 17.6239 31.7237 17.6782 31.643C17.7325 31.5624 17.8048 31.4954 17.8894 31.4474Z" fill="#E0E0E0"/>
<path d="M14.8205 32.298L14.5603 32.1487V37.5878L14.8205 37.7372V32.298Z" fill="#E0E0E0"/>
<path d="M14.5603 32.1486L22.3866 27.6272L22.6492 27.779L14.8205 32.2979L14.5603 32.1486Z" fill="#EBEBEB"/>
<path d="M90.8365 50.7978L83.9857 46.8425V32.1558L90.8365 36.1087V50.7978Z" fill="#E0E0E0"/>
<path d="M90.8363 36.1087L100.621 30.46V45.1491L90.8363 50.7978V36.1087Z" fill="#EBEBEB"/>
<path d="M100.621 30.46L90.8365 36.1087L83.9857 32.1558L93.7728 26.5046L100.621 30.46Z" fill="#F5F5F5"/>
<path d="M91.8143 36.6747L99.6431 32.1558L99.8237 32.2593L99.8213 37.6985L91.995 42.2175L91.8143 42.1139V36.6747Z" fill="#E0E0E0"/>
<path d="M91.9952 36.778L99.824 32.259L99.8216 37.6982L91.9952 42.2172V36.778Z" fill="#F5F5F5"/>
<path d="M95.064 35.9282L96.3937 35.1598C96.5671 35.0611 96.7068 35.1068 96.7068 35.261C96.6942 35.3574 96.6593 35.4496 96.6049 35.5303C96.5506 35.6109 96.4783 35.6779 96.3937 35.7259L95.064 36.4943C94.8906 36.5931 94.7509 36.5473 94.7509 36.3932C94.7635 36.2967 94.7984 36.2045 94.8527 36.1239C94.9071 36.0432 94.9794 35.9762 95.064 35.9282Z" fill="#E0E0E0"/>
<path d="M91.6339 43.5592L99.4626 39.0378V44.4794L99.6433 44.583L91.8146 49.102L91.6339 48.9984V43.5592Z" fill="#E0E0E0"/>
<path d="M91.8143 43.6628L99.6431 39.1438V44.583L91.8143 49.102V43.6628Z" fill="#F5F5F5"/>
<path d="M94.8831 42.8125L96.2152 42.0441C96.3862 41.9453 96.5259 41.9911 96.5259 42.1453C96.5132 42.2414 96.4785 42.3333 96.4246 42.4139C96.3708 42.4945 96.2991 42.5616 96.2152 42.6102L94.8831 43.3786C94.7097 43.4774 94.5699 43.4316 94.5699 43.275C94.583 43.179 94.618 43.0873 94.6723 43.0071C94.7267 42.9269 94.7988 42.8603 94.8831 42.8125Z" fill="#E0E0E0"/>
<path d="M25.6772 66.1495C25.6772 66.1495 25.7037 62.329 23.2948 59.4649C21.163 56.9284 20.0284 55.3193 20.7005 54.5774C21.3726 53.8355 22.8179 53.6572 24.7666 55.7095C26.7154 57.7619 26.8672 63.4467 26.5974 64.7331L25.6772 66.1495Z" fill="#FFAC1C"/>
<path opacity="0.2" d="M25.6772 66.1495C25.6772 66.1495 25.7037 62.329 23.2948 59.4649C21.163 56.9284 20.0284 55.3193 20.7005 54.5774C21.3726 53.8355 22.8179 53.6572 24.7666 55.7095C26.7154 57.7619 26.8672 63.4467 26.5974 64.7331L25.6772 66.1495Z" fill="black"/>
<path d="M26.0817 62.0422C26.0543 62.0423 26.0276 62.0331 26.0062 62.016C25.9847 61.9989 25.9697 61.975 25.9637 61.9482C25.1206 58.005 22.9575 55.825 21.741 54.8759C21.7158 54.8563 21.6994 54.8276 21.6953 54.796C21.6913 54.7644 21.6999 54.7325 21.7193 54.7072C21.7393 54.6819 21.7684 54.6654 21.8004 54.6614C21.8324 54.6573 21.8647 54.666 21.8903 54.6856C23.1309 55.6491 25.3398 57.8797 26.1998 61.8976C26.2033 61.913 26.2037 61.9289 26.201 61.9444C26.1983 61.9599 26.1925 61.9748 26.184 61.988C26.1754 62.0013 26.1643 62.0127 26.1513 62.0215C26.1383 62.0304 26.1237 62.0366 26.1082 62.0398L26.0817 62.0422Z" fill="white"/>
<path d="M25.5858 67.5678L24.6054 68.1339C24.5008 67.8481 24.3244 67.5941 24.0932 67.3962C23.862 67.1984 23.5838 67.0633 23.2853 67.0042C22.2134 66.7633 21.1005 66.8042 20.349 65.8744C19.5974 64.9446 20.5128 63.9329 20.349 63.2488C20.1852 62.5647 20.0792 62.3671 18.735 61.683C17.3909 60.9989 16.8609 59.8643 17.8727 59.0959C18.8844 58.3275 20.5224 58.8912 21.5148 59.5777C22.3965 60.1799 23.2347 60.3389 24.22 60.4617C25.2052 60.5846 26.8095 61.1314 26.5638 63.4198C26.4029 64.8363 26.0746 66.2287 25.5858 67.5678Z" fill="#FFAC1C"/>
<path d="M21.823 64.5618C21.7973 64.5616 21.7724 64.5533 21.7516 64.5382C21.7309 64.5231 21.7154 64.5018 21.7074 64.4775C21.6982 64.4468 21.7015 64.4138 21.7163 64.3854C21.7311 64.3571 21.7565 64.3357 21.7869 64.3257C21.8736 64.2992 23.9548 63.6392 24.8389 64.3474C24.8608 64.3681 24.8742 64.3963 24.8763 64.4264C24.8785 64.4565 24.8693 64.4863 24.8505 64.5099C24.8317 64.5335 24.8047 64.5493 24.7749 64.5539C24.7451 64.5586 24.7146 64.552 24.6895 64.5353C23.909 63.909 21.8808 64.5497 21.8591 64.557L21.823 64.5618Z" fill="white"/>
<path d="M25.694 67.385C25.6646 67.3852 25.6363 67.3744 25.6145 67.3548C25.5927 67.3352 25.5789 67.3082 25.5759 67.279C25.0387 62.206 18.9275 59.7996 18.8673 59.7755C18.8524 59.7699 18.8387 59.7614 18.8271 59.7504C18.8155 59.7395 18.8061 59.7264 18.7996 59.7118C18.7931 59.6972 18.7896 59.6815 18.7892 59.6656C18.7888 59.6496 18.7916 59.6338 18.7974 59.6189C18.8093 59.5897 18.8319 59.5662 18.8606 59.5532C18.8893 59.5402 18.9219 59.5387 18.9516 59.549C19.0166 59.5755 25.2628 62.0326 25.8144 67.2573C25.8178 67.2889 25.8085 67.3206 25.7887 67.3454C25.7688 67.3702 25.74 67.3862 25.7084 67.3898L25.694 67.385Z" fill="white"/>
<path d="M85.6091 64.2367C85.6356 64.1524 86.669 58.8337 85.6091 55.0615C84.6456 51.6024 83.3882 50.3257 81.596 50.0438C79.8038 49.762 79.0258 51.0532 79.9773 52.802C80.9288 54.5508 83.2196 56.8705 83.7808 60.7776C84.0217 62.3868 84.2048 63.7839 84.2048 63.7839L85.6091 64.2367Z" fill="#FFAC1C"/>
<path opacity="0.2" d="M85.6091 64.2367C85.6356 64.1524 86.669 58.8337 85.6091 55.0615C84.6456 51.6024 83.3882 50.3257 81.596 50.0438C79.8038 49.762 79.0258 51.0532 79.9773 52.802C80.9288 54.5508 83.2196 56.8705 83.7808 60.7776C84.0217 62.3868 84.2048 63.7839 84.2048 63.7839L85.6091 64.2367Z" fill="black"/>
<path d="M85.0046 61.1822C84.9888 61.1813 84.9733 61.1773 84.959 61.1703C84.9448 61.1634 84.932 61.1537 84.9215 61.1419C84.911 61.13 84.9029 61.1162 84.8977 61.1012C84.8926 61.0862 84.8904 61.0704 84.8914 61.0545C85.1323 56.7475 83.7255 52.903 81.2035 51.0169C81.1779 50.9977 81.161 50.9692 81.1565 50.9376C81.152 50.906 81.1602 50.8738 81.1794 50.8483C81.1989 50.8232 81.2274 50.8068 81.2588 50.8023C81.2903 50.7978 81.3222 50.8056 81.348 50.8242C83.9327 52.7513 85.3828 56.6825 85.1299 61.069C85.128 61.1005 85.1138 61.13 85.0904 61.1512C85.067 61.1724 85.0362 61.1835 85.0046 61.1822Z" fill="white"/>
<path d="M88.3816 67.0069C88.2443 66.0169 88.8128 64.5331 90.1641 64.1814C91.5155 63.8297 92.1177 63.054 91.6311 62.2061C91.1445 61.3582 91.2578 60.5801 92.4839 60.2284C93.71 59.8768 94.7843 59.2649 94.0785 57.969C93.5654 57.0319 93.4522 56.4249 94.7096 54.5797C95.7527 53.0477 94.8999 52.1492 93.5943 52.3178C92.2887 52.4864 91.4818 54.0425 90.6652 54.3027C89.8486 54.5628 89.6607 53.1754 88.5839 53.7968C87.5072 54.4183 87.5722 56.0106 87.5385 57.121C87.5048 58.2315 87.4325 58.482 86.4593 58.3471C85.4862 58.2122 84.5323 58.3712 84.554 60.7247C84.5708 62.7433 85.6476 65.2437 85.6476 65.2437L88.3816 67.0069Z" fill="#FFAC1C"/>
<path d="M86.674 65.5013H86.6619C86.6297 65.4977 86.6002 65.4814 86.5799 65.4562C86.5596 65.4309 86.5501 65.3986 86.5535 65.3664C87.2328 59.2985 92.4407 54.1797 93.7993 53.1415C93.8249 53.122 93.8571 53.1135 93.889 53.1178C93.9208 53.1221 93.9497 53.1388 93.9692 53.1644C93.9886 53.19 93.9972 53.2222 93.9929 53.2541C93.9886 53.2859 93.9718 53.3147 93.9463 53.3342C92.6045 54.358 87.4641 59.4093 86.7944 65.3929C86.7909 65.4225 86.7768 65.4498 86.7546 65.4698C86.7324 65.4897 86.7038 65.5009 86.674 65.5013Z" fill="white"/>
<path d="M89.049 59.0143C89.0247 59.0141 89.0009 59.0067 88.9807 58.993C88.9605 58.9792 88.9449 58.9598 88.9358 58.9372C88.9255 58.9068 88.9273 58.8736 88.9407 58.8445C88.9542 58.8153 88.9783 58.7925 89.0081 58.7806C90.9496 58.058 93.1513 58.4 93.2453 58.4145C93.2765 58.4198 93.3043 58.4372 93.3228 58.4629C93.3413 58.4886 93.3489 58.5205 93.344 58.5518C93.3381 58.5829 93.3207 58.6106 93.2952 58.6293C93.2698 58.6481 93.2381 58.6565 93.2067 58.6529C93.185 58.6529 90.9737 58.3061 89.0924 59.007C89.0784 59.0118 89.0638 59.0142 89.049 59.0143Z" fill="white"/>
<path d="M87.3194 62.6615C87.3025 62.6613 87.2858 62.6576 87.2705 62.6505C87.2551 62.6434 87.2414 62.6332 87.2303 62.6205C86.4229 61.6802 85.8756 60.545 85.6429 59.3277C85.6405 59.312 85.6412 59.296 85.645 59.2806C85.6488 59.2652 85.6556 59.2508 85.665 59.238C85.6744 59.2253 85.6862 59.2145 85.6997 59.2063C85.7133 59.1981 85.7284 59.1927 85.744 59.1903C85.7597 59.188 85.7757 59.1887 85.7911 59.1925C85.8064 59.1963 85.8209 59.203 85.8337 59.2124C85.8464 59.2218 85.8572 59.2337 85.8654 59.2472C85.8736 59.2608 85.879 59.2759 85.8813 59.2915C86.1116 60.4609 86.6383 61.5516 87.411 62.4591C87.426 62.4769 87.4357 62.4985 87.439 62.5216C87.4422 62.5446 87.4388 62.5681 87.4292 62.5893C87.4196 62.6105 87.4042 62.6285 87.3848 62.6413C87.3653 62.6541 87.3427 62.6611 87.3194 62.6615Z" fill="white"/>
<path d="M25.5856 30.2866V67.5706L63.7465 45.5394L63.744 11.6445L35.3703 28.0271L34.3899 25.2015L25.5856 30.2866Z" fill="#FFAC1C"/>
<path opacity="0.7" d="M25.5856 30.2866V67.5706L63.7465 45.5394L63.744 11.6445L35.3703 28.0271L34.3899 25.2015L25.5856 30.2866Z" fill="black"/>
<path d="M25.5856 67.5706L27.5416 33.6758L65.7024 11.6445L63.7465 45.5394L25.5856 67.5706Z" fill="#E0E0E0"/>
<path d="M25.5857 67.5707L28.5197 34.2419L66.6805 12.2083L63.7466 45.5394L25.5857 67.5707Z" fill="#FFAC1C"/>
<path opacity="0.7" d="M25.5857 67.5707L28.5197 34.2419L66.6805 12.2083L63.7466 45.5394L25.5857 67.5707Z" fill="black"/>
<path d="M31.4559 33.6757V70.9622L69.6168 48.9285V15.0337L41.2407 31.4162L40.2627 28.5907L31.4559 33.6757Z" fill="#FFAC1C"/>
<path opacity="0.5" d="M31.4559 33.6757V70.9622L69.6168 48.9285V15.0337L41.2407 31.4162L40.2627 28.5907L31.4559 33.6757Z" fill="black"/>
<path d="M31.4559 70.9622L33.4119 37.065L71.5728 15.0337L69.6168 48.9285L31.4559 70.9622Z" fill="#E0E0E0"/>
<path d="M31.4562 70.9625L34.3901 37.6313L72.551 15.5977L69.6171 48.9288L31.4562 70.9625Z" fill="#FFAC1C"/>
<path opacity="0.5" d="M31.4562 70.9625L34.3901 37.6313L72.551 15.5977L69.6171 48.9288L31.4562 70.9625Z" fill="black"/>
<path d="M63.7367 82.8259C56.886 78.8706 50.5315 74.5708 47.6312 69.5267L56.4476 64.4368L63.7367 82.8259Z" fill="#E0E0E0"/>
<path d="M38.3041 37.631V74.9151L76.465 52.8838V18.989L48.0888 35.3716L47.1108 32.546L38.3041 37.631Z" fill="#FFAC1C"/>
<path opacity="0.2" d="M38.3041 37.631V74.9151L76.465 52.8838V18.989L48.0888 35.3716L47.1108 32.546L38.3041 37.631Z" fill="black"/>
<path d="M49.2981 48.6538C49.2017 48.6538 49.1873 48.543 49.1873 48.478V16.6813C49.195 16.5579 49.2312 16.438 49.2931 16.331C49.3549 16.224 49.4407 16.1328 49.5438 16.0646L77.0865 0.166228C77.1242 0.142702 77.1673 0.129416 77.2117 0.127686C77.3081 0.127686 77.3225 0.238493 77.3225 0.303532V32.1003C77.315 32.224 77.2789 32.3443 77.217 32.4517C77.1551 32.5591 77.0692 32.6507 76.966 32.7193L49.4233 48.6177C49.3853 48.6401 49.3422 48.6525 49.2981 48.6538Z" fill="white"/>
<path d="M77.1971 0.238513C77.1991 0.256124 77.1991 0.273897 77.1971 0.291508V32.0882C77.1892 32.1908 77.1585 32.2903 77.1072 32.3795C77.056 32.4686 76.9855 32.5452 76.9009 32.6037L49.3582 48.5021L49.31 48.5238C49.3068 48.5062 49.3068 48.4883 49.31 48.4708V16.674C49.3183 16.5719 49.3491 16.4729 49.4004 16.3842C49.4516 16.2954 49.5219 16.2192 49.6063 16.161L77.149 0.262601C77.1642 0.251975 77.1814 0.244596 77.1996 0.240923M77.214 3.84823e-05C77.1484 0.00199137 77.0845 0.0210938 77.0285 0.0554427L49.4858 15.9538C49.3647 16.0333 49.264 16.1401 49.1916 16.2656C49.1193 16.3911 49.0773 16.5318 49.0691 16.6765V48.4732C49.0691 48.6611 49.163 48.7695 49.31 48.7695C49.3756 48.7677 49.4396 48.7486 49.4955 48.7141L77.0382 32.8157C77.1598 32.7367 77.2609 32.6301 77.3334 32.5045C77.4058 32.3788 77.4475 32.2379 77.4549 32.093V0.296327C77.4549 0.108437 77.3609 -0.00237036 77.214 3.84823e-05Z" fill="#FFAC1C"/>
<path opacity="0.7" d="M77.1971 0.238513C77.1991 0.256124 77.1991 0.273897 77.1971 0.291508V32.0882C77.1892 32.1908 77.1585 32.2903 77.1072 32.3795C77.056 32.4686 76.9855 32.5452 76.9009 32.6037L49.3582 48.5021L49.31 48.5238C49.3068 48.5062 49.3068 48.4883 49.31 48.4708V16.674C49.3183 16.5719 49.3491 16.4729 49.4004 16.3842C49.4516 16.2954 49.5219 16.2192 49.6063 16.161L77.149 0.262601C77.1642 0.251975 77.1814 0.244596 77.1996 0.240923M77.214 3.84823e-05C77.1484 0.00199137 77.0845 0.0210938 77.0285 0.0554427L49.4858 15.9538C49.3647 16.0333 49.264 16.1401 49.1916 16.2656C49.1193 16.3911 49.0773 16.5318 49.0691 16.6765V48.4732C49.0691 48.6611 49.163 48.7695 49.31 48.7695C49.3756 48.7677 49.4396 48.7486 49.4955 48.7141L77.0382 32.8157C77.1598 32.7367 77.2609 32.6301 77.3334 32.5045C77.4058 32.3788 77.4475 32.2379 77.4549 32.093V0.296327C77.4549 0.108437 77.3609 -0.00237036 77.214 3.84823e-05Z" fill="white"/>
<path d="M52.0032 17.8882L61.7879 12.2395V23.537L52.0032 29.1857V17.8882Z" fill="#FFAC1C"/>
<path opacity="0.8" d="M52.0032 17.8882L61.7879 12.2395V23.537L52.0032 29.1857V17.8882Z" fill="white"/>
<path d="M60.3208 15.0552V18.4516L60.0125 18.6227V17.5845C60.0125 17.0112 59.5475 16.816 58.9694 17.1485L54.8238 19.5453C54.2481 19.8777 53.7808 20.6124 53.7808 21.1857V22.2239L53.4749 22.407V19.0177L60.3208 15.0552Z" fill="white"/>
<path d="M58.4372 23.7032C57.9362 23.9922 57.5291 23.6887 57.5291 23.0215V17.5847L56.2692 18.2688V23.7489C56.2692 24.4138 55.8621 25.1942 55.3611 25.4761L54.4506 26.0012V26.3625L59.3429 23.537V23.1781L58.4372 23.7032Z" fill="white"/>
<path d="M63.7366 11.6829C63.7366 11.996 64.0184 12.0852 64.3629 11.8876L73.8826 6.38343C74.0515 6.28769 74.196 6.15414 74.3046 5.99324C74.4133 5.83234 74.4832 5.64847 74.5089 5.45603C74.5089 5.14529 74.2271 5.05375 73.8826 5.25368L64.3701 10.7458C64.1984 10.8414 64.0516 10.976 63.9415 11.1388C63.8315 11.3016 63.7613 11.488 63.7366 11.6829Z" fill="#455A64"/>
<path d="M63.7366 15.0554C63.7366 15.3685 64.0184 15.46 64.3629 15.2601L73.8754 9.76795C74.0443 9.67221 74.1887 9.53866 74.2974 9.37776C74.4061 9.21686 74.476 9.03299 74.5017 8.84055C74.5017 8.52981 74.2199 8.43827 73.8754 8.6382L64.3629 14.1304C64.1943 14.2259 64.05 14.359 63.9414 14.5195C63.8327 14.68 63.7626 14.8633 63.7366 15.0554Z" fill="#455A64"/>
<path d="M63.7366 18.4517C63.7366 18.7649 64.0184 18.8564 64.3629 18.6565L73.8754 13.1643C74.044 13.0688 74.1883 12.9357 74.2969 12.7752C74.4055 12.6147 74.4756 12.4313 74.5017 12.2393C74.5017 11.9262 74.2199 11.8346 73.8754 12.0346L64.3629 17.5267C64.1943 17.6222 64.05 17.7554 63.9414 17.9159C63.8327 18.0763 63.7626 18.2597 63.7366 18.4517Z" fill="#455A64"/>
<path d="M63.7366 21.8411C63.7366 22.1543 64.0184 22.2458 64.3629 22.0459L73.8754 16.5537C74.044 16.4582 74.1883 16.3251 74.2969 16.1646C74.4055 16.0041 74.4756 15.8207 74.5017 15.6287C74.5017 15.3156 74.2199 15.224 73.8754 15.424L64.3629 20.9161C64.1943 21.0116 64.05 21.1448 63.9414 21.3053C63.8327 21.4657 63.7626 21.6491 63.7366 21.8411Z" fill="#455A64"/>
<path d="M52.0032 32.0112C52.0032 32.3243 52.2826 32.4159 52.6295 32.2159L73.8827 19.9308C74.0515 19.8356 74.196 19.7025 74.3047 19.542C74.4133 19.3815 74.4833 19.198 74.509 19.0058C74.509 18.6927 74.2272 18.6036 73.8827 18.8011L52.6295 31.0862C52.4605 31.1813 52.316 31.3143 52.2073 31.4748C52.0986 31.6354 52.0287 31.819 52.0032 32.0112Z" fill="#455A64"/>
<path d="M52.0032 35.4005C52.0032 35.7136 52.2826 35.8052 52.6295 35.6052L73.8827 23.3346C74.0516 23.2389 74.196 23.1053 74.3047 22.9444C74.4134 22.7835 74.4833 22.5996 74.509 22.4072C74.509 22.0965 74.2272 22.0049 73.8827 22.2049L52.6295 34.4755C52.4605 34.5706 52.316 34.7036 52.2073 34.8642C52.0986 35.0247 52.0287 35.2083 52.0032 35.4005Z" fill="#455A64"/>
<path d="M52.0032 38.7923C52.0032 39.103 52.2826 39.1946 52.6295 38.9947L73.8827 26.724C74.0516 26.6283 74.196 26.4947 74.3047 26.3338C74.4134 26.1729 74.4833 25.989 74.509 25.7966C74.509 25.4859 74.2272 25.3943 73.8827 25.5943L52.6295 37.8649C52.4602 37.9602 52.3155 38.0936 52.2068 38.2546C52.0981 38.4156 52.0283 38.5997 52.0032 38.7923Z" fill="#455A64"/>
<path d="M38.3041 74.9148L45.1524 44.9753L83.3133 22.9417L76.465 52.8836L38.3041 74.9148Z" fill="#FFAC1C"/>
<path d="M47.6407 47.3195V69.5266L56.4475 64.4415V42.2368L47.6407 47.3195Z" fill="#FFAC1C"/>
<path opacity="0.2" d="M47.6407 47.3195V69.5266L56.4475 64.4415V42.2368L47.6407 47.3195Z" fill="black"/>
<path d="M63.7535 82.6808C63.0043 82.1219 55.7826 76.6033 52.1116 68.7095C48.2044 60.3171 48.2092 50.5275 48.2092 46.8444V46.7288L74.3885 31.6157C74.3885 35.3326 74.3885 45.1366 78.3125 53.5579C81.8993 61.2662 88.844 66.715 89.9448 67.5484L63.7535 82.6808Z" fill="white"/>
<path d="M74.2681 31.8332C74.2681 35.7066 74.3428 45.3227 78.2042 53.6187C81.6705 61.0621 88.2611 66.4145 89.7281 67.5443L63.7608 82.5369C62.7466 81.7733 55.7971 76.3462 52.2224 68.6692C48.3201 60.3009 48.3201 50.5306 48.3201 46.8523V46.8065L74.2585 31.8308M74.4994 31.414L48.0792 46.6692C48.0792 50.1356 48.0069 60.2069 51.9936 68.7704C55.9176 77.1748 63.7367 82.826 63.7367 82.826L90.1641 67.5684C90.1641 67.5684 82.3353 61.9172 78.4234 53.5128C74.4343 44.9493 74.509 34.8779 74.509 31.4116L74.4994 31.414Z" fill="#FFAC1C"/>
<path opacity="0.7" d="M74.2681 31.8332C74.2681 35.7066 74.3428 45.3227 78.2042 53.6187C81.6705 61.0621 88.2611 66.4145 89.7281 67.5443L63.7608 82.5369C62.7466 81.7733 55.7971 76.3462 52.2224 68.6692C48.3201 60.3009 48.3201 50.5306 48.3201 46.8523V46.8065L74.2585 31.8308M74.4994 31.414L48.0792 46.6692C48.0792 50.1356 48.0069 60.2069 51.9936 68.7704C55.9176 77.1748 63.7367 82.826 63.7367 82.826L90.1641 67.5684C90.1641 67.5684 82.3353 61.9172 78.4234 53.5128C74.4343 44.9493 74.509 34.8779 74.509 31.4116L74.4994 31.414Z" fill="white"/>
<path d="M71.5196 36.5302L63.1657 41.3478C62.9985 41.4399 62.856 41.571 62.7503 41.7299C62.6446 41.8889 62.5789 42.071 62.5587 42.2608C62.5708 42.5667 62.8622 42.6534 63.2067 42.4535L71.563 37.6358C71.7282 37.5446 71.8693 37.4153 71.9744 37.2586C72.0796 37.1019 72.1458 36.9224 72.1676 36.7349C72.1531 36.4169 71.8665 36.3302 71.5196 36.5302Z" fill="#455A64"/>
<path d="M71.698 39.8185L63.3442 44.6362C63.1789 44.725 63.0389 44.8542 62.9369 45.0117C62.835 45.1692 62.7746 45.3499 62.7612 45.5371C62.7877 45.8333 63.0912 45.9128 63.4357 45.7129L71.792 40.8952C71.9564 40.8067 72.0955 40.6778 72.1963 40.5206C72.297 40.3634 72.356 40.1831 72.3677 39.9967C72.3436 39.698 72.0449 39.6258 71.698 39.8185Z" fill="#455A64"/>
<path d="M72.0326 43.0145L63.6763 47.8321C63.3319 48.0321 63.0814 48.4295 63.1223 48.7162C63.1633 49.0028 63.4788 49.0775 63.8257 48.8776L72.182 44.0599C72.5264 43.86 72.7721 43.4649 72.7288 43.1783C72.6854 42.8916 72.3771 42.8145 72.0326 43.0145Z" fill="#455A64"/>
<path d="M72.5337 46.115L64.1774 50.9327C63.833 51.1327 63.5945 51.5229 63.6523 51.8023C63.7101 52.0817 64.0377 52.1444 64.375 51.9444L72.7288 47.1268C73.0757 46.9268 73.307 46.539 73.2492 46.2596C73.1913 45.9801 72.8902 45.9151 72.5337 46.115Z" fill="#455A64"/>
<path d="M73.2131 49.1116L64.8568 53.9293C64.5123 54.1292 64.2883 54.5098 64.375 54.7772C64.4617 55.0445 64.7918 55.1048 65.1362 54.9048L73.4925 50.0871C73.8394 49.8872 74.0562 49.509 73.9743 49.2392C73.8924 48.9694 73.5575 48.9116 73.2131 49.1116Z" fill="#455A64"/>
<path d="M74.0946 51.9997L53.7302 63.7573C53.3858 63.9572 53.1762 64.3282 53.2702 64.5859C53.3641 64.8437 53.723 64.8918 54.0675 64.6919L74.4318 52.9343C74.7787 52.7344 74.9786 52.3658 74.8847 52.1057C74.7908 51.8455 74.427 51.7998 74.0946 51.9997Z" fill="#455A64"/>
<path d="M75.1666 54.758L54.8047 66.5155C54.4578 66.7155 54.2675 67.0768 54.3831 67.3225C54.4987 67.5682 54.8649 67.6067 55.2166 67.4068L75.5809 55.6492C75.9278 55.4493 76.1133 55.088 75.9976 54.8423C75.882 54.5966 75.5135 54.5604 75.1666 54.758Z" fill="#455A64"/>
<path d="M76.5036 57.386L56.1392 69.1436C55.7923 69.3435 55.6213 69.6952 55.7586 69.9289C55.8959 70.1625 56.2886 70.1866 56.6354 69.9867L76.9853 58.2291C77.3298 58.0316 77.496 57.6823 77.3587 57.4486C77.2214 57.215 76.8408 57.1861 76.5036 57.386Z" fill="#455A64"/>
<path d="M78.062 59.8719L57.7001 71.6271C57.3532 71.827 57.1991 72.1715 57.3556 72.3907C57.5122 72.6099 57.9241 72.6316 58.271 72.4292L78.6329 60.6717C78.9798 60.4717 79.1292 60.1321 78.9726 59.9105C78.816 59.6888 78.4089 59.672 78.062 59.8719Z" fill="#455A64"/>
<path d="M79.8396 62.235L59.4753 73.9901C59.1308 74.1901 58.9935 74.5249 59.1669 74.7345C59.3404 74.944 59.7667 74.9537 60.1136 74.7537L80.478 62.9914C80.8224 62.7914 80.9597 62.4614 80.7815 62.2518C80.6032 62.0423 80.1865 62.0278 79.8396 62.235Z" fill="#455A64"/>
<path d="M81.803 64.4847L61.4458 76.2399C61.099 76.4398 60.9641 76.7674 61.1664 76.9625C61.3688 77.1577 61.7975 77.1625 62.142 76.9625L82.5064 65.205C82.8532 65.005 82.9737 64.6823 82.781 64.4823C82.5882 64.2824 82.1547 64.2872 81.803 64.4847Z" fill="#455A64"/>
<path d="M83.9708 66.6358L63.6065 78.3909C63.262 78.5909 63.1488 78.9112 63.3656 79.1015C63.5824 79.2918 64.0256 79.2846 64.3725 79.0847L84.72 67.3271C85.0645 67.1272 85.1729 66.814 84.9609 66.6213C84.7489 66.4286 84.3081 66.4358 83.9708 66.6358Z" fill="#455A64"/>
<path d="M60.1377 43.1038L50.5312 48.6441C50.6372 52.1249 51.0347 57.1449 52.4896 62.2011L62.0985 56.6607C60.6412 51.6046 60.2437 46.5821 60.1377 43.1038Z" fill="#FFAC1C"/>
<path opacity="0.8" d="M60.1377 43.1038L50.5312 48.6441C50.6372 52.1249 51.0347 57.1449 52.4896 62.2011L62.0985 56.6607C60.6412 51.6046 60.2437 46.5821 60.1377 43.1038Z" fill="white"/>
<path d="M54.448 47.8785C54.461 47.6539 54.426 47.429 54.3455 47.2188C54.2649 47.0087 54.1406 46.8181 53.9807 46.6597L50.5312 48.6494C50.5602 49.5695 50.6083 50.5981 50.6926 51.7062C51.1413 51.7578 51.5952 51.6739 51.9958 51.4653C53.352 50.8438 54.448 49.2323 54.448 47.8785Z" fill="#FFAC1C"/>
<path opacity="0.6" d="M54.448 47.8785C54.461 47.6539 54.426 47.429 54.3455 47.2188C54.2649 47.0087 54.1406 46.8181 53.9807 46.6597L50.5312 48.6494C50.5602 49.5695 50.6083 50.5981 50.6926 51.7062C51.1413 51.7578 51.5952 51.6739 51.9958 51.4653C53.352 50.8438 54.448 49.2323 54.448 47.8785Z" fill="white"/>
<path d="M61.2819 53.3367C60.6412 52.5297 59.338 50.0366 58.7816 48.9502C58.7597 48.9072 58.7254 48.8718 58.6832 48.8486C58.641 48.8253 58.5928 48.8152 58.5449 48.8196C58.4969 48.824 58.4513 48.8427 58.4141 48.8733C58.3768 48.9039 58.3496 48.9449 58.3359 48.9911C57.7339 51.0489 57.3845 53.1722 57.2953 55.3143C56.493 54.6775 55.8034 53.9104 55.255 53.0452C55.2316 53.0117 55.1992 52.9855 55.1614 52.9699C55.1237 52.9542 55.0822 52.9496 55.042 52.9567C55.0017 52.9638 54.9643 52.9822 54.9342 53.0099C54.9041 53.0375 54.8825 53.0732 54.872 53.1127C53.8218 57.1571 54.3493 61.1365 54.3493 61.1365L62.0985 56.6609C61.7757 55.5432 61.5084 54.4303 61.2819 53.3367Z" fill="#FFAC1C"/>
<path opacity="0.6" d="M61.2819 53.3367C60.6412 52.5297 59.338 50.0366 58.7816 48.9502C58.7597 48.9072 58.7254 48.8718 58.6832 48.8486C58.641 48.8253 58.5928 48.8152 58.5449 48.8196C58.4969 48.824 58.4513 48.8427 58.4141 48.8733C58.3768 48.9039 58.3496 48.9449 58.3359 48.9911C57.7339 51.0489 57.3845 53.1722 57.2953 55.3143C56.493 54.6775 55.8034 53.9104 55.255 53.0452C55.2316 53.0117 55.1992 52.9855 55.1614 52.9699C55.1237 52.9542 55.0822 52.9496 55.042 52.9567C55.0017 52.9638 54.9643 52.9822 54.9342 53.0099C54.9041 53.0375 54.8825 53.0732 54.872 53.1127C53.8218 57.1571 54.3493 61.1365 54.3493 61.1365L62.0985 56.6609C61.7757 55.5432 61.5084 54.4303 61.2819 53.3367Z" fill="white"/>
</svg>
