<svg width="225" height="208" viewBox="0 0 225 208" fill="none" xmlns="http://www.w3.org/2000/svg">
<path d="M199.562 152.504H213.345V146.679H199.562V152.504Z" fill="#EBEBEB"/>
<path d="M207.255 159.849H221.039V154.024H207.255V159.849Z" fill="#EBEBEB"/>
<path d="M89.7344 88.1816H103.518V82.3569H89.7344V88.1816Z" fill="#EBEBEB"/>
<path d="M97.428 95.5254H111.212V89.7006H97.428V95.5254Z" fill="#EBEBEB"/>
<path d="M105.085 88.1816H118.869V82.3569H105.085V88.1816Z" fill="#EBEBEB"/>
<path d="M11.5037 12.4756L25.2874 12.4756V6.65083L11.5037 6.65083V12.4756Z" fill="#EBEBEB"/>
<path d="M3.81018 19.8203H17.5939V13.9956L3.81018 13.9956V19.8203Z" fill="#EBEBEB"/>
<path d="M199.562 12.4756L213.345 12.4756V6.65083L199.562 6.65083V12.4756Z" fill="#EBEBEB"/>
<path d="M216.864 19.4199H142.532V102.351H216.864V19.4199Z" fill="#DBDBDB"/>
<path d="M211.971 24.3174H147.43V97.499H211.971V24.3174Z" fill="#EBEBEB"/>
<path d="M176.013 37.2578H153.265V64.2162H176.013V37.2578Z" fill="#FFF3DD"/>
<path d="M165.456 39.0907C165.456 39.2523 165.408 39.4103 165.319 39.5447C165.229 39.6791 165.101 39.7838 164.952 39.8457C164.802 39.9076 164.638 39.9237 164.48 39.8922C164.321 39.8607 164.175 39.7828 164.061 39.6685C163.947 39.5543 163.869 39.4086 163.837 39.2501C163.806 39.0916 163.822 38.9273 163.884 38.7779C163.946 38.6286 164.051 38.501 164.185 38.4112C164.319 38.3214 164.477 38.2734 164.639 38.2734C164.856 38.2734 165.064 38.3595 165.217 38.5128C165.37 38.6661 165.456 38.8739 165.456 39.0907Z" fill="#A6A6A6"/>
<path d="M157.596 42.6556C159.897 42.4786 162.198 42.4682 164.493 42.4422C166.789 42.4162 169.095 42.4786 171.396 42.6556C169.095 42.8326 166.794 42.843 164.493 42.869C162.193 42.895 159.897 42.8326 157.596 42.6556Z" fill="#EBEBEB"/>
<path d="M157.596 44.7896C160.089 44.505 162.605 44.505 165.097 44.7896C163.852 44.9438 162.599 45.0151 161.344 45.003C160.092 45.0124 158.84 44.9411 157.596 44.7896Z" fill="#EBEBEB"/>
<path d="M157.596 46.9198C159.19 46.7682 160.79 46.697 162.39 46.7064C163.989 46.6944 165.588 46.7656 167.179 46.9198C165.581 47.0864 163.988 47.1228 162.39 47.1332C160.792 47.1436 159.194 47.0864 157.596 46.9198Z" fill="#EBEBEB"/>
<path d="M157.596 49.0478C159.595 48.8812 161.594 48.8395 163.593 48.8343C165.592 48.8291 167.591 48.8812 169.589 49.0478C167.591 49.2143 165.592 49.256 163.593 49.2612C161.594 49.2664 159.595 49.2143 157.596 49.0478Z" fill="#EBEBEB"/>
<path d="M157.596 51.1775C159.33 51.0109 161.068 50.9745 162.802 50.9641C164.535 50.9537 166.274 51.0109 168.007 51.1775C166.268 51.3441 164.53 51.3857 162.802 51.3909C161.073 51.3961 159.33 51.3441 157.596 51.1775Z" fill="#EBEBEB"/>
<path d="M157.596 53.307C159.819 53.13 162.042 53.1196 164.264 53.0936C166.487 53.0675 168.71 53.13 170.932 53.307C168.71 53.4892 166.487 53.4996 164.264 53.5256C162.042 53.5516 159.819 53.484 157.596 53.307Z" fill="#EBEBEB"/>
<path d="M157.596 55.4413C159.026 55.2897 160.463 55.2185 161.901 55.2279C163.341 55.2159 164.78 55.2871 166.211 55.4413C163.347 55.7258 160.461 55.7258 157.596 55.4413Z" fill="#EBEBEB"/>
<path d="M157.596 57.5687C159.897 57.3917 162.198 57.3813 164.493 57.3553C166.789 57.3292 169.095 57.3917 171.396 57.5687C169.095 57.7457 166.794 57.7561 164.493 57.7821C162.193 57.8081 159.897 57.7457 157.596 57.5687Z" fill="#EBEBEB"/>
<path d="M157.596 59.6986C159.897 59.5216 162.198 59.5112 164.493 59.4852C166.789 59.4591 169.095 59.5216 171.396 59.6986C169.095 59.8756 166.794 59.8912 164.493 59.912C162.193 59.9328 159.897 59.886 157.596 59.6986Z" fill="#EBEBEB"/>
<path d="M206.396 54.0664H179.479V85.9646H206.396V54.0664Z" fill="#FFF3DD"/>
<path d="M182.764 56.3875C182.764 56.5492 182.716 56.7072 182.626 56.8416C182.536 56.976 182.409 57.0807 182.26 57.1426C182.11 57.2044 181.946 57.2206 181.787 57.1891C181.629 57.1575 181.483 57.0797 181.369 56.9654C181.255 56.8511 181.177 56.7055 181.145 56.547C181.114 56.3884 181.13 56.2241 181.192 56.0748C181.254 55.9255 181.358 55.7978 181.493 55.708C181.627 55.6182 181.785 55.5703 181.947 55.5703C182.163 55.5703 182.371 55.6564 182.525 55.8097C182.678 55.9629 182.764 56.1708 182.764 56.3875Z" fill="#A6A6A6"/>
<path d="M183.243 62.0258C184.232 61.8754 185.231 61.8023 186.231 61.8072C187.229 61.7997 188.227 61.8728 189.213 62.0258C187.233 62.3103 185.223 62.3103 183.243 62.0258Z" fill="#EBEBEB"/>
<path d="M183.243 64.4291C184.526 64.2785 185.818 64.2055 187.11 64.2105C188.401 64.2029 189.691 64.2759 190.973 64.4291C188.404 64.7137 185.812 64.7137 183.243 64.4291Z" fill="#EBEBEB"/>
<path d="M183.243 66.8349C184.43 66.6835 185.627 66.6122 186.824 66.6214C188.021 66.6093 189.218 66.6807 190.405 66.8349C188.026 67.1194 185.622 67.1194 183.243 66.8349Z" fill="#EBEBEB"/>
<path d="M183.243 69.2548C184.43 69.1035 185.627 69.0322 186.824 69.0414C188.021 69.0293 189.218 69.1006 190.405 69.2548C188.026 69.5393 185.622 69.5393 183.243 69.2548Z" fill="#EBEBEB"/>
<path d="M183.243 71.6454C184.277 71.4937 185.321 71.4224 186.366 71.432C187.411 71.4198 188.455 71.4911 189.489 71.6454C187.417 71.9319 185.315 71.9319 183.243 71.6454Z" fill="#EBEBEB"/>
<path d="M183.243 74.0497C184.565 73.8982 185.894 73.8269 187.225 73.8363C188.555 73.8243 189.885 73.8956 191.207 74.0497C188.56 74.3342 185.89 74.3342 183.243 74.0497Z" fill="#EBEBEB"/>
<path d="M183.243 76.4546C185.425 76.1701 187.635 76.1701 189.817 76.4546C187.635 76.7392 185.425 76.7392 183.243 76.4546Z" fill="#EBEBEB"/>
<path d="M183.243 78.858C185.982 78.5734 188.744 78.5734 191.483 78.858C188.744 79.1425 185.982 79.1425 183.243 78.858Z" fill="#EBEBEB"/>
<path d="M183.243 81.2632C185.982 80.9787 188.744 80.9787 191.483 81.2632C188.744 81.5478 185.982 81.5478 183.243 81.2632Z" fill="#EBEBEB"/>
<path d="M195.007 62.0258C196.306 61.8752 197.613 61.8021 198.921 61.8072C200.228 61.7996 201.533 61.8726 202.83 62.0258C200.235 62.3092 197.617 62.3092 195.022 62.0258H195.007Z" fill="#EBEBEB"/>
<path d="M195.007 64.4291C195.856 64.2791 196.716 64.2059 197.578 64.2105C198.44 64.2029 199.301 64.2761 200.15 64.4291C198.447 64.7133 196.709 64.7133 195.007 64.4291Z" fill="#EBEBEB"/>
<path d="M195.007 66.8348C196.228 66.6835 197.457 66.6122 198.687 66.6214C199.917 66.6095 201.147 66.6808 202.367 66.8348C199.922 67.1194 197.452 67.1194 195.007 66.8348Z" fill="#EBEBEB"/>
<path d="M195.007 69.2547C196.194 69.1034 197.391 69.0321 198.588 69.0413C199.785 69.0294 200.982 69.1007 202.169 69.2547C199.79 69.5393 197.386 69.5393 195.007 69.2547Z" fill="#EBEBEB"/>
<path d="M195.007 71.6454C196.306 71.4939 197.613 71.4226 198.921 71.432C200.228 71.42 201.533 71.4913 202.83 71.6454C200.235 71.9288 197.617 71.9288 195.022 71.6454H195.007Z" fill="#EBEBEB"/>
<path d="M195.007 74.0488C196.041 73.897 197.085 73.8256 198.13 73.8354C199.175 73.8227 200.22 73.8941 201.253 74.0488C199.181 74.3358 197.079 74.3358 195.007 74.0488Z" fill="#EBEBEB"/>
<path d="M195.007 76.4537C197.452 76.1691 199.922 76.1691 202.367 76.4537C199.922 76.7382 197.452 76.7382 195.007 76.4537Z" fill="#EBEBEB"/>
<path d="M195.007 78.858C196.894 78.5734 198.814 78.5734 200.701 78.858C198.814 79.1426 196.894 79.1426 195.007 78.858Z" fill="#EBEBEB"/>
<path d="M195.007 81.2632C196.816 80.9787 198.658 80.9787 200.467 81.2632C198.658 81.5478 196.816 81.5478 195.007 81.2632Z" fill="#EBEBEB"/>
<path d="M187.61 29.8457H173.92V43.5357H187.61V29.8457Z" fill="#A6A6A6"/>
<path d="M181.582 31.2557C181.582 31.4173 181.534 31.5754 181.445 31.7097C181.355 31.8441 181.227 31.9489 181.078 32.0107C180.929 32.0726 180.764 32.0888 180.606 32.0572C180.447 32.0257 180.302 31.9479 180.187 31.8336C180.073 31.7193 179.995 31.5737 179.964 31.4151C179.932 31.2566 179.948 31.0923 180.01 30.943C180.072 30.7936 180.177 30.666 180.311 30.5762C180.445 30.4864 180.603 30.4385 180.765 30.4385C180.982 30.4385 181.19 30.5246 181.343 30.6778C181.496 30.8311 181.582 31.039 181.582 31.2557Z" fill="#EBEBEB"/>
<path d="M211.914 24.3174H210.066V97.5823H211.914V24.3174Z" fill="#C7C7C7"/>
<path d="M63.8248 44.4149C71.0386 34.3127 68.6971 20.2752 58.5949 13.0614C48.4926 5.84759 34.4552 8.18909 27.2414 18.2913C20.0275 28.3935 22.369 42.431 32.4713 49.6448C42.5735 56.8586 56.6109 54.5171 63.8248 44.4149Z" fill="#EBEBEB"/>
<path d="M63.714 44.7142C70.8206 35.2388 68.9002 21.7965 59.4248 14.6899C49.9495 7.58333 36.5071 9.50364 29.4005 18.979C22.294 28.4544 24.2143 41.8968 33.6897 49.0033C43.1651 56.1099 56.6074 54.1896 63.714 44.7142Z" fill="#DBDBDB"/>
<path d="M58.2095 48.2198C67.2492 41.7838 69.3599 29.2382 62.9238 20.1985C56.4878 11.1588 43.9422 9.04812 34.9025 15.4842C25.8628 21.9202 23.7521 34.4658 30.1882 43.5055C36.6242 52.5452 49.1698 54.6559 58.2095 48.2198Z" fill="#FFF3DD"/>
<path opacity="0.5" d="M66.1959 27.6129C57.0449 33.1566 42.0068 42.2503 33.6054 47.237C31.2203 45.2282 29.3349 42.6924 28.0981 39.8298L55.9102 14.0791C58.5091 15.4467 60.7769 17.3672 62.5539 19.7053C64.3309 22.0435 65.5741 24.7427 66.1959 27.6129Z" fill="#EBEBEB"/>
<path opacity="0.5" d="M66.6176 32.5566C66.548 34.7832 66.1064 36.9824 65.3111 39.0633L40.2475 50.9158C39.1564 50.5523 38.0977 50.0978 37.0826 49.5572C44.6564 45.2004 58.4869 37.2414 66.6176 32.5566Z" fill="#EBEBEB"/>
<path d="M46.754 13.2207H46.3636V16.2658H46.754V13.2207Z" fill="#C7C7C7"/>
<path d="M37.4129 15.6114L37.0748 15.8066L38.5974 18.4438L38.9355 18.2486L37.4129 15.6114Z" fill="#C7C7C7"/>
<path d="M30.676 22.1691L30.4808 22.5088L33.1301 24.0313L33.3253 23.6917L30.676 22.1691Z" fill="#C7C7C7"/>
<path d="M30.9715 31.6621H27.9264V32.0525H30.9715V31.6621Z" fill="#C7C7C7"/>
<path d="M32.9571 39.4848L30.3202 41.0078L30.5154 41.3459L33.1523 39.8229L32.9571 39.4848Z" fill="#C7C7C7"/>
<path d="M38.5933 45.2647L37.0717 47.9023L37.4098 48.0974L38.9315 45.4597L38.5933 45.2647Z" fill="#C7C7C7"/>
<path d="M46.754 47.4453H46.3636V50.4904H46.754V47.4453Z" fill="#C7C7C7"/>
<path d="M54.521 45.254L54.1829 45.4492L55.7054 48.0864L56.0435 47.8912L54.521 45.254Z" fill="#C7C7C7"/>
<path d="M60.1583 39.4832L59.963 39.8213L62.5999 41.3443L62.7952 41.0062L60.1583 39.4832Z" fill="#C7C7C7"/>
<path d="M65.1913 31.6621H62.1462V32.0525H65.1913V31.6621Z" fill="#C7C7C7"/>
<path d="M62.5987 22.3671L59.962 23.8906L60.1574 24.2287L62.794 22.7052L62.5987 22.3671Z" fill="#C7C7C7"/>
<path d="M55.7092 15.616L54.188 18.2539L54.5262 18.4489L56.0474 15.811L55.7092 15.616Z" fill="#C7C7C7"/>
<path d="M46.853 14.599L47.5141 33.208L45.6038 33.1872L46.3325 14.5938L46.853 14.599Z" fill="#C7C7C7"/>
<path d="M58.4453 25.364L45.9213 33.3542L45.0104 31.6833L58.1955 24.9111L58.4453 25.364Z" fill="#A6A6A6"/>
<path d="M47.207 31.8548C47.207 31.9835 47.1688 32.1093 47.0973 32.2163C47.0258 32.3233 46.9242 32.4067 46.8053 32.4559C46.6864 32.5052 46.5556 32.5181 46.4294 32.493C46.3032 32.4678 46.1872 32.4059 46.0962 32.3149C46.0052 32.2239 45.9432 32.1079 45.9181 31.9817C45.893 31.8555 45.9059 31.7247 45.9552 31.6058C46.0044 31.4869 46.0878 31.3853 46.1948 31.3138C46.3018 31.2423 46.4276 31.2041 46.5563 31.2041C46.6419 31.2034 46.7269 31.2198 46.8061 31.2522C46.8854 31.2847 46.9574 31.3326 47.0179 31.3932C47.0785 31.4537 47.1264 31.5257 47.1589 31.605C47.1913 31.6842 47.2077 31.7691 47.207 31.8548Z" fill="#C7C7C7"/>
<path d="M224.844 207.717L196.74 207.847L168.637 207.889L112.425 207.978L56.2123 207.894L28.1087 207.847L0 207.717L28.1087 207.592L56.2123 207.546L112.425 207.457L168.637 207.546L196.74 207.592L224.844 207.717Z" fill="#263238"/>
<path d="M199.593 55.8412C199.555 54.2479 199.615 52.6537 199.775 51.0679C199.913 49.4814 200.148 47.9047 200.478 46.3467C200.516 47.94 200.455 49.5342 200.296 51.12C200.157 52.7065 199.923 54.2831 199.593 55.8412Z" fill="#263238"/>
<path d="M196.782 56.3885C195.955 55.0264 195.213 53.6149 194.559 52.1618C193.882 50.72 193.296 49.237 192.805 47.7217C194.445 50.4561 195.778 53.3626 196.782 56.3885Z" fill="#263238"/>
<path d="M194.627 58.2667C193.23 57.5007 191.882 56.6507 190.588 55.7213C189.279 54.8101 188.029 53.8174 186.845 52.749C189.632 54.3001 192.241 56.1502 194.627 58.2667Z" fill="#263238"/>
<path d="M193.695 60.9683C190.508 61.0215 187.324 60.7247 184.201 60.0834C185.792 60.045 187.385 60.1059 188.969 60.2656C190.557 60.4039 192.136 60.6386 193.695 60.9683Z" fill="#263238"/>
<path d="M203.788 64.4404C206.583 65.9913 209.201 67.8414 211.596 69.9581C210.198 69.1959 208.848 68.3457 207.557 67.4127C206.241 66.4998 204.983 65.5072 203.788 64.4404Z" fill="#263238"/>
<path d="M204.72 61.7384C207.91 61.6856 211.095 61.9823 214.22 62.6233C212.627 62.6618 211.032 62.601 209.447 62.4411C207.858 62.3028 206.28 62.0682 204.72 61.7384Z" fill="#263238"/>
<path d="M204.174 58.9271C205.536 58.1004 206.947 57.3581 208.4 56.7044C209.842 56.0272 211.325 55.4413 212.841 54.9502C211.48 55.7775 210.07 56.5215 208.619 57.1781C207.175 57.8527 205.69 58.4368 204.174 58.9271Z" fill="#263238"/>
<path d="M202.295 56.7614C203.06 55.3635 203.912 54.0145 204.845 52.7221C205.753 51.4122 206.744 50.1621 207.812 48.9795C206.263 51.7753 204.413 54.3935 202.295 56.7875V56.7614Z" fill="#263238"/>
<path d="M66.2794 99.1393C65.7953 98.6813 65.4726 92.0809 66.3679 90.764C67.3673 89.2909 78.9231 90.0196 79.605 91.2845C80.2869 92.5494 80.6149 99.1393 80.2661 99.3788C79.9174 99.6182 77.9914 99.842 77.7311 99.4204C77.4709 98.9988 77.4865 93.5436 77.2835 93.2521C77.0805 92.9606 68.9862 92.4401 68.7051 92.8565C68.424 93.2729 69.1059 98.7906 68.7832 99.03C68.4604 99.2695 66.7531 99.587 66.2794 99.1393Z" fill="#37474F"/>
<path d="M42.2415 132.432L36.4252 129.706L34.2295 134.391L40.0458 137.117L42.2415 132.432Z" fill="#C7C7C7"/>
<path d="M114.033 207.508H64.7959C61.7976 196.056 59.044 185.953 57.2898 179.571C56.1863 175.558 55.4784 173.012 55.343 172.533C55.3358 172.505 55.3271 172.478 55.317 172.45H106.522L108.083 179.628C108.703 182.533 109.489 186.197 110.395 190.388C110.467 190.752 110.551 191.122 110.629 191.507C111.659 196.306 112.82 201.746 114.033 207.508Z" fill="#455A64"/>
<path d="M72.2604 207.508H71.3338C68.8144 198.225 66.3558 188.925 63.9579 179.607L63.7601 178.821C63.7132 178.608 64.0307 178.509 64.0932 178.722C64.1817 179.019 64.2702 179.311 64.3535 179.607C67.0707 188.883 69.6837 198.19 72.2604 207.508Z" fill="#263238"/>
<path d="M102.535 172.535C102.133 174.968 101.548 177.368 100.786 179.713C100.213 181.576 99.5207 183.591 98.7399 185.668C98.5733 186.142 98.3859 186.6 98.2193 187.068C95.7364 193.393 92.4935 199.837 89.1412 202.897H89.1152C88.7222 203.273 88.2933 203.61 87.8347 203.902L84.9822 205.667C84.9853 205.68 84.9853 205.695 84.9822 205.708C84.9822 205.88 84.8521 206.5 84.6907 207.499H36.63C35.4015 196.37 37.9625 185.959 40.1956 179.432C40.9771 177.072 41.9091 174.765 42.9857 172.524L102.535 172.535Z" fill="#455A64"/>
<path d="M96.8086 200.185C93.7886 201.843 90.6779 203.331 87.4911 204.641C86.6426 205.005 85.7942 205.364 84.9301 205.713C84.878 205.713 84.826 205.76 84.7739 205.775C84.0313 206.084 83.2869 206.381 82.5408 206.665C81.8121 206.947 81.0886 207.238 80.3494 207.509H78.7253C79.8445 206.947 81.0157 206.468 82.1557 205.947C83.7381 205.253 85.3257 204.559 86.9185 203.865C87.6421 203.553 88.3656 203.235 89.0839 202.912H89.11C91.5929 201.809 94.0654 200.705 96.6212 199.789C96.8763 199.664 97.0429 200.049 96.8086 200.185Z" fill="#263238"/>
<path d="M84.9562 205.749C84.9562 206.124 84.9249 206.744 84.8521 207.509H84.3315C84.4981 206.79 84.6491 206.202 84.7948 205.775C84.7933 205.76 84.7933 205.744 84.7948 205.729C84.8208 205.661 84.9145 205.656 84.9354 205.729C84.9354 205.729 84.9562 205.734 84.9562 205.749Z" fill="#263238"/>
<path d="M47.634 175.527C46.9833 176.829 46.3951 178.13 45.8486 179.494C42.5336 187.645 41.282 196.488 42.2048 205.239C42.2933 205.999 42.4026 206.754 42.5172 207.509H41.6843C41.3556 205.311 41.1644 203.094 41.1117 200.872C40.9399 193.522 42.3716 186.223 45.3072 179.483C45.9214 178.083 46.6033 176.709 47.3477 175.371C47.358 175.352 47.3718 175.336 47.3885 175.322C47.4051 175.309 47.4243 175.299 47.4448 175.293C47.4654 175.287 47.4869 175.285 47.5082 175.287C47.5295 175.289 47.5501 175.296 47.5689 175.306C47.5877 175.316 47.6043 175.33 47.6178 175.347C47.6312 175.363 47.6412 175.383 47.6473 175.403C47.6533 175.424 47.6553 175.445 47.653 175.467C47.6507 175.488 47.6443 175.508 47.634 175.527Z" fill="#263238"/>
<path d="M83.7486 192.351C83.7955 190.498 83.9256 188.65 84.0193 186.802C84.2327 182.44 84.4045 178.052 84.8105 173.706C84.8105 173.67 84.8248 173.635 84.8501 173.61C84.8755 173.585 84.9099 173.57 84.9458 173.57C84.9817 173.57 85.0161 173.585 85.0415 173.61C85.0669 173.635 85.0812 173.67 85.0812 173.706C85.1332 177.079 85.0031 180.473 84.9354 183.84C84.899 185.527 84.8521 187.219 84.8053 188.905C84.7142 190.516 84.7038 192.13 84.7741 193.741C84.8625 194.959 85.128 197.322 86.7156 197.468C88.2148 197.608 89.3964 195.995 89.7712 194.813C90.7185 191.805 91.0569 188.567 91.364 185.444C91.5462 183.596 91.7596 176.074 91.6607 174.19C91.6607 174.07 91.8377 174.075 91.8481 174.19C91.9522 176.095 92.2125 177.99 92.2749 179.916C92.3374 181.842 92.3426 183.726 92.2229 185.641C92.1032 187.463 91.9522 189.285 91.6763 191.102C91.4911 192.753 91.0976 194.375 90.5051 195.927C89.9534 197.208 89.006 198.384 87.5693 198.665C87.3972 198.694 87.2233 198.712 87.0488 198.717C87.0488 199.108 86.9759 199.503 86.9499 199.888C86.9082 200.503 86.8302 201.106 86.7469 201.715C86.6628 202.313 86.5393 202.904 86.3773 203.485C86.2466 204.073 86.0364 204.641 85.7527 205.172C85.7418 205.188 85.726 205.201 85.7075 205.208C85.689 205.215 85.6688 205.216 85.6498 205.211C85.6308 205.205 85.6138 205.194 85.6015 205.179C85.5891 205.164 85.5819 205.145 85.5809 205.125C85.5669 204.54 85.6157 203.956 85.7266 203.381C85.8099 202.788 85.8932 202.184 86.0129 201.601C86.1326 201.018 86.242 200.44 86.3617 199.862C86.4398 199.477 86.4918 199.076 86.5647 198.686C86.1009 198.604 85.6646 198.409 85.2949 198.117C84.9252 197.826 84.6335 197.447 84.4461 197.015C83.7642 195.573 83.7122 193.892 83.7486 192.351Z" fill="#263238"/>
<path d="M82.8635 108.659C89.0735 116.441 113.424 144.055 126.958 146.632C136.072 148.375 165.352 133.472 171.765 128.075C174.368 125.867 159.725 104.021 156.149 104.9C152.276 105.853 131.205 119.861 128.467 119.699C125.729 119.538 104.164 107.415 91.0827 102.048C83.2227 98.7998 79.3656 104.281 82.8635 108.659Z" fill="#AD6359"/>
<path d="M163.723 133.28C169.355 131.11 186.434 119.132 189.271 116.02C192.108 112.907 199.624 103.376 197.459 100.961C195.293 98.5453 192.878 101.164 192.878 101.164C192.878 101.164 195.725 96.2445 193.019 94.3967C190.858 92.9236 187.251 96.4267 187.251 96.4267C187.251 96.4267 190.088 90.8727 187.168 89.3891C184.508 88.0358 181.577 92.7934 181.577 92.7934C181.577 92.7934 183.477 87.9056 180.666 87.0988C177.283 86.1202 173.988 94.5788 170.599 97.7801C169.829 98.5037 147.097 109.659 147.097 109.659L163.723 133.28Z" fill="#AD6359"/>
<path d="M181.452 92.5487C178.329 98.6337 176.872 101.059 171.562 104.953C171.458 105.026 171.562 105.198 171.666 105.13C177.194 101.788 179.141 99.0345 181.744 92.6372C181.884 92.3405 181.598 92.2676 181.452 92.5487Z" fill="#263238"/>
<path d="M187.189 96.4273C184.091 102.674 181.723 105.021 176.481 109.503C176.403 109.565 176.481 109.701 176.585 109.644C182.098 105.672 185.138 103.116 187.412 96.4793C187.517 96.1826 187.329 96.1462 187.189 96.4273Z" fill="#263238"/>
<path d="M192.618 101.387C189.182 107.207 186.783 110.07 181.13 113.766C181.101 113.782 181.08 113.809 181.071 113.842C181.062 113.874 181.066 113.908 181.083 113.937C181.099 113.966 181.127 113.988 181.159 113.996C181.191 114.005 181.226 114.001 181.255 113.984C187.381 110.772 190.411 107.217 192.784 101.491C192.946 101.122 192.831 101.007 192.618 101.387Z" fill="#263238"/>
<path d="M215.297 118.571C200.353 122.933 185.627 127.301 171.312 131.663C162.739 112.403 161.474 93.1434 155.603 73.8837C170.568 69.5164 185.273 65.1544 199.645 60.7871C208.203 80.0416 209.441 99.3065 215.297 118.571Z" fill="#FFF3DD"/>
<path d="M215.297 118.57C207.847 120.784 200.466 122.994 193.154 125.202C185.842 127.409 178.584 129.614 171.38 131.817L171.234 131.864L171.161 131.708C162.552 112.448 161.271 93.1888 155.353 73.9291C155.327 73.8458 155.306 73.7625 155.28 73.6792L155.525 73.6064C170.49 69.2651 185.195 64.9239 199.567 60.5931L199.739 60.541L199.817 60.718C204.085 70.3739 206.516 80.0297 208.614 89.6856C210.712 99.3415 212.414 108.945 215.297 118.57ZM215.297 118.57C212.325 108.935 210.503 99.3102 208.348 89.6596C206.193 80.0089 203.757 70.4363 199.499 60.8273L199.744 60.9522C185.393 65.3403 170.667 69.7336 155.702 74.1217L155.873 73.799C161.719 93.0587 162.953 112.344 171.489 131.614L171.276 131.505C178.439 129.347 185.69 127.188 193.029 125.03C200.369 122.871 207.791 120.718 215.297 118.57Z" fill="#263238"/>
<path d="M162.677 82.2679C171.12 79.8388 179.512 77.4096 187.855 74.9805C188.001 75.475 188.146 75.9695 188.287 76.464C179.927 78.8931 171.51 81.3223 163.036 83.7514C162.916 83.2778 162.796 82.7884 162.677 82.2679Z" fill="#DBDBDB"/>
<path d="M163.572 86.0374C172.057 83.6083 180.503 81.1791 188.912 78.75L189.302 80.2335C180.883 82.6627 172.419 85.0918 163.91 87.521C163.801 87.0265 163.687 86.532 163.572 86.0374Z" fill="#DBDBDB"/>
<path d="M164.415 89.7855C172.931 87.3563 181.418 84.9272 189.875 82.498C189.994 83.0186 190.119 83.4871 190.234 83.9816C181.77 86.4107 173.268 88.8399 164.728 91.269C164.634 90.7745 164.525 90.28 164.415 89.7855Z" fill="#DBDBDB"/>
<path d="M165.227 93.527C177.72 89.9735 190.175 86.4183 202.591 82.8613L202.95 84.3501C190.541 87.9001 178.043 91.4553 165.545 95.0105C165.436 94.516 165.332 94.0215 165.227 93.527Z" fill="#DBDBDB"/>
<path d="M166.039 97.2761C178.532 93.7191 191.016 90.1639 203.492 86.6104C203.606 87.1049 203.721 87.5994 203.83 88.0939C191.368 91.6508 178.876 95.2061 166.352 98.7596C166.232 98.2651 166.128 97.7706 166.039 97.2761Z" fill="#DBDBDB"/>
<path d="M166.825 101.007L204.304 90.3467C204.413 90.8672 204.522 91.3357 204.626 91.8302C192.134 95.3854 179.641 98.9355 167.148 102.491C167.039 102.007 166.935 101.528 166.825 101.007Z" fill="#DBDBDB"/>
<path d="M167.653 104.765C180.108 101.208 192.6 97.6531 205.131 94.0996C205.241 94.6201 205.345 95.0886 205.449 95.5831C192.956 99.1366 180.474 102.692 168.002 106.249C167.877 105.754 167.762 105.26 167.653 104.765Z" fill="#DBDBDB"/>
<path d="M168.522 108.509C180.927 104.954 193.419 101.404 205.917 97.8486C206.027 98.3431 206.131 98.8376 206.235 99.3322C193.742 102.889 181.293 106.443 168.887 109.993C168.762 109.498 168.642 109.004 168.522 108.509Z" fill="#DBDBDB"/>
<path d="M169.459 112.257C181.796 108.7 194.218 105.144 206.724 101.591C206.834 102.085 206.938 102.58 207.047 103.074C194.575 106.631 182.178 110.187 169.855 113.74C169.72 113.246 169.589 112.751 169.459 112.257Z" fill="#DBDBDB"/>
<path d="M170.48 115.999C182.723 112.449 195.082 108.896 207.557 105.339C207.672 105.859 207.781 106.328 207.901 106.822C195.47 110.378 183.113 113.933 170.912 117.488C170.766 116.988 170.62 116.494 170.48 115.999Z" fill="#DBDBDB"/>
<path d="M171.599 119.747C183.744 116.193 196.024 112.638 208.437 109.081C208.556 109.602 208.676 110.07 208.801 110.565C196.433 114.122 184.192 117.677 172.078 121.23C171.916 120.736 171.765 120.267 171.599 119.747Z" fill="#DBDBDB"/>
<path d="M172.843 123.496C184.857 119.942 197.037 116.387 209.384 112.83C209.514 113.325 209.645 113.819 209.78 114.314C197.495 117.867 185.36 121.422 173.374 124.979L172.843 123.496Z" fill="#DBDBDB"/>
<path d="M192.154 82.7371C191.597 78.6926 190.916 74.6481 190.005 70.6035C192.852 73.5029 195.574 76.4022 198.224 79.3016L197.443 80.0147C195.59 77.9743 193.7 75.9338 191.754 73.8933C192.321 76.7822 192.795 79.666 193.185 82.5549L192.154 82.7371Z" fill="#FFAC1C"/>
<path d="M191.41 80.6345L190.806 79.8068C192.659 78.4187 194.495 77.0307 196.314 75.6426L196.938 76.4702C195.116 77.8652 193.274 79.2533 191.41 80.6345Z" fill="#FFAC1C"/>
<path d="M189.786 69.016C188.93 69.6503 188.171 70.4061 187.532 71.2595C186.274 72.9886 185.616 75.0816 185.658 77.2196C185.667 78.2564 185.894 79.2797 186.325 80.223C186.768 81.1331 187.412 81.9306 188.208 82.5555C189.004 83.1804 189.932 83.6163 190.921 83.8303C192.909 84.2207 195.038 83.5076 196.819 82.3312C198.641 81.2422 200.023 79.547 200.723 77.5423C201.051 76.559 201.153 75.5141 201.022 74.4857C200.89 73.4573 200.528 72.4719 199.963 71.603C199.339 70.7439 198.534 70.0329 197.605 69.5209C196.676 68.9838 195.643 68.6519 194.575 68.5475C193.514 68.4402 192.444 68.5883 191.452 68.9795C190.468 69.3851 189.561 69.9574 188.771 70.6713C189.136 70.2774 189.53 69.9103 189.948 69.5729C190.383 69.2492 190.848 68.9686 191.337 68.7349C192.343 68.2463 193.453 68.0104 194.57 68.0478C195.744 68.1053 196.893 68.4138 197.938 68.9526C198.983 69.4913 199.901 70.2478 200.629 71.171C201.327 72.125 201.776 73.2377 201.935 74.4087C202.1 75.5646 202.01 76.7427 201.67 77.8598C200.911 80.1038 199.382 82.0068 197.355 83.2317C196.375 83.8779 195.3 84.3678 194.169 84.684C193.034 85.0065 191.84 85.0582 190.682 84.8349C189.551 84.5965 188.498 84.0774 187.621 83.3254C186.752 82.5865 186.055 81.6661 185.58 80.6291C184.746 78.4805 184.759 76.0951 185.617 73.9558C186.401 71.8812 187.873 70.1379 189.786 69.016Z" fill="#FFAC1C"/>
<path d="M195.496 72.8993C194.9 72.0803 194.29 71.2631 193.669 70.4476L194.487 69.8438C195.111 70.6593 195.725 71.4765 196.329 72.2955L195.496 72.8993Z" fill="#FFAC1C"/>
<path d="M194.148 72.6437L193.529 71.79L195.871 70.1035C196.085 70.3898 196.293 70.6761 196.506 70.9572L194.148 72.6437Z" fill="#FFAC1C"/>
<path d="M147.097 109.664C147.097 109.664 152.631 103.996 155.119 101.18C157.607 98.3636 163.551 89.4261 166.779 89.6395C170.422 89.8789 167.788 99.2954 163.38 104.355C163.38 104.355 169.236 113.693 165.233 118.758C164.363 119.851 158.054 123.318 156.488 122.995L147.097 109.664Z" fill="#AD6359"/>
<path d="M163.114 105.031C165.524 108.581 167.2 113.99 165.472 117.909C165.464 117.932 165.464 117.956 165.472 117.978C165.481 118 165.497 118.019 165.518 118.03C165.538 118.042 165.563 118.045 165.586 118.04C165.609 118.035 165.63 118.022 165.644 118.003C168.064 114.052 166.164 107.775 163.843 104.729C163.39 104.131 162.489 104.131 163.114 105.031Z" fill="#263238"/>
<path d="M147.097 109.665L163.723 133.281C163.772 134.781 163.361 136.259 162.545 137.518C161.729 138.777 160.547 139.757 159.158 140.324C154.197 142.495 133.678 149.897 125.552 147.154C117.427 144.41 94.2476 124.432 84.2482 111.154C74.2488 97.8748 89.0267 100.514 91.8428 101.784C94.6589 103.054 127.718 118.634 128.894 118.608C130.071 118.582 137.743 112.746 141.387 110.935C145.031 109.123 147.097 109.665 147.097 109.665Z" fill="#FFAC1C"/>
<path opacity="0.1" d="M137.41 146.97C132.725 147.829 128.389 148.11 125.563 147.152C117.432 144.404 94.2528 124.436 84.2534 111.147C83.6184 110.309 83.0874 109.528 82.6398 108.82L137.41 146.97Z" fill="black"/>
<path d="M157.248 138.159C155.722 136.29 154.452 134.213 153.125 132.214C151.798 130.215 150.522 128.269 149.237 126.28C146.634 122.277 143.943 118.3 141.616 114.147C141.609 114.128 141.608 114.107 141.615 114.087C141.621 114.068 141.634 114.051 141.651 114.04C141.668 114.029 141.688 114.025 141.708 114.027C141.729 114.029 141.747 114.038 141.762 114.053C144.765 117.837 147.383 121.929 150.017 125.952C151.34 127.968 152.632 130.002 153.895 132.053C155.178 133.997 156.351 136.011 157.409 138.086C157.456 138.185 157.31 138.237 157.248 138.159Z" fill="#263238"/>
<g opacity="0.1">
<path d="M151.917 143.051L150.038 143.691C149.94 143.001 149.893 142.305 149.898 141.609C149.898 140.292 150.002 139.006 149.986 137.752C149.991 136.497 149.868 135.245 149.622 134.014C149.37 132.808 148.948 131.644 148.367 130.558C148.227 130.287 148.065 130.037 147.914 129.777C147.764 129.517 147.592 129.298 147.42 129.059C147.05 128.585 146.665 128.096 146.264 127.617L143.87 124.707C143.058 123.729 142.256 122.745 141.465 121.74C140.674 120.735 139.903 119.694 139.19 118.617C138.45 117.503 137.811 116.326 137.28 115.098C137.098 114.649 136.941 114.191 136.812 113.724C137.483 113.281 138.144 112.855 138.769 112.459C138.975 113.02 139.213 113.57 139.482 114.104C140.057 115.156 140.691 116.174 141.382 117.154C142.777 119.184 144.245 121.23 145.718 123.296C146.452 124.338 147.207 125.379 147.894 126.456C148.237 127.003 148.581 127.554 148.888 128.153C149.039 128.455 149.19 128.752 149.325 129.085C149.46 129.418 149.559 129.72 149.653 130.043C150.423 132.604 150.538 135.185 150.835 137.71C151.036 139.519 151.398 141.306 151.917 143.051Z" fill="black"/>
<path d="M145.348 145.086C144.828 145.232 144.338 145.372 143.823 145.508C143.199 143.353 143.162 141.229 143.115 139.131V135.883C143.115 135.362 143.115 134.816 143.074 134.29C143.062 133.78 143.012 133.272 142.923 132.77C142.904 132.656 142.875 132.545 142.834 132.437L142.704 132.083L142.548 131.739C142.491 131.625 142.423 131.516 142.366 131.401C142.101 130.952 141.787 130.535 141.429 130.157C140.68 129.397 139.831 128.743 138.904 128.215C138.441 127.934 137.962 127.695 137.478 127.44L136.015 126.696C134.968 126.208 134.023 125.526 133.23 124.686C133.034 124.451 132.86 124.199 132.71 123.932C132.632 123.796 132.564 123.65 132.496 123.51L132.335 123.093C132.148 122.544 132.007 121.98 131.913 121.407C131.737 120.299 131.67 119.176 131.716 118.055C131.716 117.727 131.747 117.399 131.773 117.071L132.814 116.384C132.814 116.941 132.814 117.493 132.861 118.044C132.903 119.093 133.022 120.136 133.215 121.167C133.316 121.662 133.451 122.149 133.621 122.625L133.756 122.969C133.808 123.067 133.845 123.172 133.902 123.276C134.011 123.48 134.134 123.677 134.271 123.864C134.908 124.665 135.65 125.376 136.478 125.977C137.327 126.628 138.248 127.216 139.159 127.815C140.101 128.387 140.997 129.031 141.84 129.741C142.273 130.109 142.668 130.519 143.022 130.964C143.199 131.192 143.364 131.43 143.516 131.677L143.729 132.057C143.8 132.197 143.861 132.341 143.912 132.489C144.093 133.038 144.22 133.602 144.292 134.176C144.38 134.727 144.427 135.279 144.474 135.826C144.562 136.919 144.614 138.001 144.687 139.074C144.76 140.146 144.838 141.218 144.942 142.27C145.014 143.217 145.149 144.157 145.348 145.086Z" fill="black"/>
</g>
<path d="M37.7074 182.867C37.7594 182.934 108.796 179.613 109.26 179.176C109.473 178.973 110.394 174.929 109.307 169.312C106.043 152.473 96.2621 118.076 87.6368 103.522C85.4818 99.8783 75.7687 94.522 68.7207 101.403C54.4321 115.354 43.2146 150.854 38.7953 170.353C36.6299 179.884 37.4159 182.461 37.7074 182.867Z" fill="#FFAC1C"/>
<g opacity="0.1">
<path d="M108.989 167.706C108.776 167.706 108.562 167.706 108.354 167.737C106.335 167.93 104.329 168.245 102.347 168.679C98.2609 169.512 94.1018 170.449 89.9115 171.381C87.8294 171.844 85.716 172.334 83.5558 172.687C82.4731 172.859 81.3852 173.031 80.2557 173.114C79.6831 173.151 79.1209 173.192 78.5067 173.182C77.8925 173.172 77.3719 173.125 76.8045 173.057C72.3019 172.573 68.2054 171.048 64.0671 169.845C59.9289 168.643 55.6605 167.821 51.8606 167.836C50.9237 167.836 49.9138 167.914 48.8988 168.008C47.8838 168.102 46.8687 168.253 45.8433 168.404C43.7976 168.731 41.7311 169.143 39.6698 169.59L38.9254 169.757C39.1753 168.664 39.4459 167.519 39.7427 166.337C41.5293 165.747 43.3469 165.255 45.1874 164.864C46.2701 164.628 47.3702 164.441 48.4876 164.302C49.0498 164.234 49.6119 164.177 50.1793 164.146C50.7686 164.106 51.3598 164.106 51.9491 164.146C54.249 164.302 56.5022 164.869 58.6015 165.822C60.6524 166.675 62.568 167.685 64.546 168.502C66.4995 169.339 68.5332 169.973 70.6154 170.397C72.6628 170.801 74.7573 170.912 76.8358 170.725C77.3563 170.689 77.8768 170.611 78.3505 170.543C78.8242 170.475 79.3031 170.35 79.7924 170.236C80.7814 169.97 81.7912 169.715 82.7959 169.393L88.9225 167.576C90.9734 166.956 93.0451 166.353 95.1325 165.785C97.2198 165.218 99.3436 164.713 101.514 164.312C103.689 163.9 105.896 163.68 108.109 163.656C108.432 165.072 108.724 166.431 108.989 167.706Z" fill="black"/>
<path d="M105.892 154.499C104.445 153.985 102.968 153.565 101.467 153.24C100.63 153.066 99.781 152.955 98.9272 152.907H98.3078C98.1152 152.907 97.9278 152.907 97.7352 152.933C97.3429 152.97 96.9535 153.033 96.5692 153.12C94.9016 153.584 93.3047 154.272 91.8219 155.166C90.2603 156.061 88.6987 157.102 87.1892 158.138C85.6735 159.225 84.0779 160.196 82.4159 161.042C81.5565 161.472 80.659 161.82 79.7352 162.083C79.2622 162.211 78.7826 162.311 78.2985 162.385L77.5489 162.432C77.2838 162.45 77.0177 162.45 76.7525 162.432C75.7781 162.354 74.8139 162.18 73.874 161.912C72.9578 161.683 72.0677 161.391 71.188 161.105C69.4234 160.522 67.7005 159.892 65.9827 159.293C64.2649 158.695 62.542 158.112 60.8346 157.581C59.1752 157.037 57.4768 156.619 55.7542 156.332C54.9495 156.21 54.1325 156.193 53.3234 156.28C52.4715 156.376 51.6278 156.535 50.7988 156.753C49.074 157.213 47.3806 157.784 45.7288 158.461C44.2401 159.064 42.7583 159.71 41.2834 160.397C41.4448 159.798 41.6114 159.195 41.804 158.58C42.845 157.945 43.9017 157.345 44.974 156.779C46.6478 155.892 48.3881 155.137 50.1793 154.52C51.1077 154.212 52.0577 153.974 53.0215 153.807C54.0301 153.631 55.058 153.593 56.077 153.693C60.033 154.088 63.5154 155.483 66.9405 156.852L72.0209 158.934C72.8589 159.283 73.7022 159.611 74.535 159.928C75.3358 160.244 76.1587 160.5 76.9972 160.694C77.1895 160.734 77.3842 160.762 77.5802 160.777L78.2152 160.803H78.8555C79.0741 160.803 79.2875 160.761 79.5009 160.741C80.374 160.626 81.2314 160.413 82.0567 160.105C83.7307 159.435 85.3065 158.542 86.7415 157.451C87.4755 156.93 88.173 156.321 88.8861 155.743L91.0099 153.948C92.4518 152.771 94.0029 151.574 95.981 150.939C96.4784 150.774 96.991 150.659 97.5113 150.595C97.7768 150.559 98.0319 150.554 98.313 150.538H99.0677C100.047 150.607 101.019 150.761 101.972 150.996C103.096 151.264 104.199 151.611 105.272 152.037L105.892 154.499Z" fill="black"/>
</g>
<path d="M61.2615 103.091C38.0718 112.923 20.0666 121.486 22.6797 130.398C23.7208 133.896 29.7589 143.333 37.5357 143.323C43.6467 143.323 54.5415 133.516 66.9562 116.364C73.3847 107.489 75.9041 96.8755 61.2615 103.091Z" fill="#FFAC1C"/>
<path d="M65.3736 121.068C64.3846 121.885 63.4008 122.724 62.4378 123.577L63.0573 122.859C64.7178 120.891 66.3574 118.908 67.9971 116.925C68.0284 116.883 67.9607 116.831 67.9242 116.873C64.8011 120.194 61.6779 123.483 58.5182 126.794C55.3586 130.105 47.1186 138.49 45.1145 140.135C45.0729 140.172 45.1145 140.239 45.1666 140.208C46.978 138.792 52.0636 134.534 53.6877 132.947C56.1411 130.545 58.4991 128.068 60.7617 125.514C62.4127 124.153 63.9887 122.704 65.483 121.172C65.5402 121.115 65.4413 121.011 65.3736 121.068Z" fill="#263238"/>
<path d="M30.9717 137.928C20.8318 133.764 14.2627 103.006 11.7745 82.3044C11.3008 78.364 42.4495 74.5693 42.4859 78.8117C42.6108 103.027 42.0799 142.478 30.9717 137.928Z" fill="#AD6359"/>
<path d="M7.8601 66.168C8.04228 72.7736 13.7005 89.3109 16.3083 92.0124C18.9162 94.714 38.6912 85.2455 39.7791 81.6018C40.867 77.9581 41.804 56.2935 37.4471 51.1507C33.0903 46.0078 7.6675 59.3282 7.8601 66.168Z" fill="#AD6359"/>
<path d="M42.5639 60.4058C40.8358 63.4509 38.2383 59.6718 38.2383 59.6718C38.2383 59.6718 40.6692 66.0119 37.6761 68.4636C34.782 70.8164 31.7993 66.142 31.5859 65.8089C31.7108 66.1473 33.793 72.0553 30.5449 74.1843C27.151 76.4174 24.9648 71.212 24.819 70.8737C24.819 71.2329 25.0116 75.9281 22.1591 77.0004C17.2609 78.843 16.4905 66.8396 13.1955 64.1744C13.1955 64.1744 8.04746 66.5689 7.86527 66.6834C7.86527 66.6834 6.90229 57.9593 10.7386 53.7117C11.2865 53.0846 12.0326 52.6641 12.8528 52.5201C13.673 52.3761 14.5177 52.5175 15.2464 52.9205C15.2464 52.9205 14.5333 49.2768 17.0475 47.5018C18.3384 46.5909 20.9462 47.8558 20.9462 47.8558C20.9462 47.8558 20.4934 44.9148 22.8254 43.4729C24.6889 42.3173 26.9896 43.7644 26.9896 43.7644C26.9896 43.7644 27.8641 40.7401 30.1493 40.1727C34.7664 39.0119 46.2545 53.8679 42.5639 60.4058Z" fill="#AD6359"/>
<path d="M27.4009 43.9208C27.3953 43.9112 27.393 43.9 27.3943 43.8889C27.3955 43.8779 27.4003 43.8676 27.4078 43.8594C27.4154 43.8513 27.4254 43.8458 27.4363 43.8437C27.4472 43.8416 27.4585 43.8431 27.4685 43.8479C32.4396 47.8092 36.6872 53.686 38.3997 59.8439C38.457 60.0469 38.1498 60.2291 38.0457 60.0156C35.0683 54.0035 31.9451 48.9023 27.4009 43.9208Z" fill="#263238"/>
<path d="M20.9046 47.7419C20.8578 47.6899 20.9463 47.6066 21.0087 47.6534C26.11 51.7656 30.7115 58.5169 31.8462 65.8721C31.8879 66.1219 31.6693 66.3926 31.6016 66.1011C30.4772 61.2602 25.0168 52.2081 20.9046 47.7419Z" fill="#263238"/>
<path d="M24.7149 71.4003C23.3511 64.4096 19.8843 58.5588 15.4598 53.062C15.4025 52.9891 15.5119 52.9162 15.5743 52.9631C18.4737 55.0452 20.9254 58.8607 22.5859 61.9787C24.1838 64.8371 25.0074 68.0633 24.9751 71.3378C24.9751 71.4836 24.7409 71.5513 24.7149 71.4003Z" fill="#263238"/>
<path d="M38.2384 59.6562C38.592 60.914 38.8289 62.2017 38.9463 63.503C39.1068 64.7644 38.927 66.0458 38.4258 67.2144C38.1727 67.7397 37.7328 68.1517 37.1921 68.37C36.6447 68.5841 36.0514 68.654 35.4691 68.573C34.8954 68.4469 34.3548 68.2008 33.8829 67.8509C33.411 67.501 33.0185 67.0552 32.7311 66.5429L31.2216 64.1016L31.7942 66.9177C32.0564 68.1667 32.1144 69.45 31.9659 70.7176C31.8046 71.9512 31.3153 73.138 30.3731 73.7627C29.9373 74.0972 29.4 74.2725 28.8507 74.2592C28.3014 74.246 27.7732 74.045 27.354 73.6898C26.4318 72.8744 25.733 71.837 25.324 70.6759L24.0799 67.5111L24.2152 70.8945C24.2576 71.8362 24.1772 72.7794 23.9758 73.7002C23.8205 74.5801 23.4095 75.3948 22.7942 76.0426C22.504 76.3216 22.1419 76.5142 21.7483 76.5988C21.3548 76.6834 20.9455 76.6566 20.5663 76.5215C19.7651 76.0925 19.1025 75.4443 18.6559 74.6528C17.6753 72.9517 16.8295 71.1765 16.1262 69.3434C15.7358 68.4272 15.3402 67.5111 14.9029 66.6106C14.5126 65.6823 13.9308 64.8469 13.1956 64.1589C13.8405 64.9107 14.3337 65.7804 14.6478 66.7199C15.0122 67.6412 15.3349 68.5834 15.6577 69.5255C16.259 71.4484 17.0416 73.3099 17.9949 75.0848C18.4958 76.0559 19.268 76.8606 20.2175 77.4012C20.7662 77.637 21.3717 77.7074 21.9598 77.6038C22.548 77.5003 23.093 77.2272 23.5281 76.8182C24.3243 76.0402 24.8684 75.041 25.0897 73.9501C25.3292 72.927 25.4342 71.8771 25.402 70.8269L24.2985 71.0455C24.7606 72.4276 25.5773 73.6643 26.6669 74.632C27.2853 75.1526 28.0657 75.4416 28.874 75.4492C29.6671 75.4294 30.436 75.1719 31.081 74.71C32.398 73.7939 32.9393 72.2375 33.0955 70.8581C33.2412 69.4655 33.155 68.0583 32.8404 66.6938L31.8983 67.0738C32.2794 67.6955 32.7918 68.2264 33.3996 68.6292C34.0075 69.032 34.696 69.2971 35.4171 69.4058C36.1425 69.4715 36.8725 69.3478 37.5356 69.0467C38.2125 68.7278 38.7494 68.1723 39.0452 67.4851C39.6178 66.1577 39.4981 64.7627 39.3159 63.4613C39.1003 62.1566 38.7389 60.8803 38.2384 59.6562Z" fill="#263238"/>
<path d="M40.3933 82.9969C40.3933 82.9969 56.457 53.5868 41.4344 53.1964C37.7907 53.1027 23.3147 58.9743 24.361 61.9049C25.7143 65.6944 32.1689 64.5336 36.1458 63.1594C36.1458 63.1594 31.3933 71.5296 36.2343 76.5787C38.038 78.4168 39.4525 80.5997 40.3933 82.9969Z" fill="#AD6359"/>
<path d="M42.4755 53.182C41.0448 53.1262 39.6138 53.2805 38.2279 53.6401C36.8321 53.9605 35.4599 54.3762 34.1209 54.8842C31.4183 55.8572 28.8057 57.0642 26.3129 58.4915C25.654 58.8709 25.0513 59.3404 24.5223 59.8865C24.2209 60.2042 23.9933 60.5846 23.856 61.0004C23.7784 61.23 23.7414 61.4713 23.7467 61.7136C23.7533 61.9514 23.7973 62.1868 23.8769 62.4111C24.1749 63.2172 24.7483 63.892 25.4957 64.3162C26.1913 64.6826 26.945 64.9256 27.7236 65.0346C29.1987 65.2121 30.6933 65.1364 32.1429 64.8107C33.5579 64.5189 34.9497 64.124 36.3072 63.6291L35.719 62.9056C35.2124 63.8811 34.7993 64.9025 34.4853 65.9559C34.1633 66.9966 33.9488 68.0676 33.845 69.152C33.7542 70.2403 33.8208 71.336 34.0428 72.4053C34.266 73.4625 34.6882 74.4677 35.2869 75.3671C34.8203 74.4162 34.516 73.3941 34.3864 72.3428C34.273 71.3028 34.3011 70.2522 34.4697 69.2196C34.6278 68.1913 34.8894 67.1815 35.2505 66.2058C35.6043 65.2337 36.0469 64.2962 36.5726 63.4053L37.2337 62.3174L35.9844 62.687C34.6599 63.112 33.3088 63.4494 31.9399 63.6968C30.6091 63.9674 29.2435 64.0219 27.8954 63.8582C26.6305 63.6656 25.3291 63.0722 24.9752 62.0363C24.5796 61.1514 25.782 60.1572 26.9011 59.4336C28.0783 58.6886 29.2946 58.0075 30.5449 57.3932C31.7994 56.7477 33.0642 56.1231 34.3552 55.5661C36.9891 54.5094 39.6386 53.4059 42.4755 53.182Z" fill="#263238"/>
<path d="M43.7144 84.793L11.3217 91.8722C11.3217 91.8722 9.1875 98.0145 11.0718 104.391C14.6479 116.488 25.3136 142.458 33.918 141.869C43.2355 141.219 45.4998 108.758 45.3697 92.8612C45.276 87.4737 43.7144 84.793 43.7144 84.793Z" fill="#FFAC1C"/>
<g opacity="0.1">
<path d="M45.3333 97.4268C45.3333 98.1087 45.3333 98.8114 45.2864 99.5089C44.5056 99.8993 43.7248 100.269 42.8816 100.586C42.2726 100.826 41.6479 101.044 41.0129 101.232C40.6901 101.326 40.3674 101.419 40.0395 101.492C39.6964 101.573 39.3487 101.634 38.9984 101.674C37.6412 101.805 36.2715 101.692 34.9539 101.341C33.6786 101.044 32.4605 100.638 31.2269 100.357C30.0089 100.058 28.7636 99.8836 27.5103 99.8368C26.2824 99.8012 25.0556 99.9397 23.8665 100.248C23.5751 100.321 23.2783 100.415 23.0025 100.503C22.7266 100.592 22.4819 100.706 22.1904 100.821C21.6439 101.07 21.0817 101.341 20.5195 101.607L17.1309 103.262C15.9961 103.819 14.8457 104.376 13.6849 104.907C12.9822 105.24 12.2639 105.547 11.5351 105.844C11.3738 105.323 11.2228 104.839 11.0823 104.365C10.973 104.006 10.8793 103.647 10.8064 103.288C12.5814 102.59 14.3772 101.862 16.1783 101.128C17.3599 100.659 18.5311 100.165 19.7596 99.7483C20.3738 99.5453 20.988 99.3371 21.6387 99.181C21.9666 99.1029 22.2945 99.0248 22.6797 98.9727C23.0649 98.9207 23.346 98.8947 23.6792 98.879C26.3547 98.7229 28.8845 99.2122 31.4143 99.5089C33.8403 99.8479 36.3017 99.8479 38.7277 99.5089C39.2483 99.4152 39.8521 99.2746 40.4351 99.1185C41.0181 98.9623 41.5959 98.7801 42.1789 98.598C43.1939 98.244 44.2714 97.8484 45.3333 97.4268Z" fill="black"/>
<path d="M45.1564 103.09C45.1564 103.465 45.1252 103.839 45.1043 104.219C44.6775 104.579 44.2455 104.927 43.7978 105.26C42.9112 105.937 41.9751 106.546 40.9974 107.082C40.4938 107.35 39.972 107.581 39.4358 107.775C38.8642 107.973 38.2692 108.095 37.6659 108.139C35.3183 108.29 33.1581 107.816 31.024 107.353L27.8591 106.624C27.3386 106.505 26.8181 106.395 26.2975 106.291C25.8 106.186 25.2955 106.116 24.788 106.083C24.6736 106.075 24.5588 106.075 24.4444 106.083L24.0696 106.13L23.6949 106.203C23.5751 106.203 23.4502 106.27 23.3253 106.302C22.8102 106.462 22.3158 106.682 21.8522 106.957C20.9373 107.507 20.1033 108.182 19.3744 108.961C18.9945 109.347 18.6457 109.758 18.2865 110.164L17.2455 111.418C16.5291 112.324 15.6456 113.084 14.6428 113.657C14.5375 113.715 14.4279 113.766 14.3149 113.808C14.1535 113.386 13.9973 112.97 13.8412 112.553C13.9193 112.522 14.0026 112.496 14.0806 112.459C15.0067 112.026 15.8699 111.469 16.6469 110.804C17.4797 110.127 18.2657 109.373 19.0569 108.623C19.8353 107.84 20.6723 107.118 21.5607 106.463C22.0184 106.13 22.5063 105.841 23.0182 105.599C23.2836 105.479 23.5387 105.38 23.8302 105.286L24.2518 105.167C24.3976 105.136 24.5694 105.104 24.7151 105.089C25.2899 105.034 25.8685 105.034 26.4433 105.089C27.0002 105.136 27.5468 105.214 28.0882 105.297C29.1709 105.469 30.238 105.666 31.2998 105.849C32.3617 106.031 33.4184 106.203 34.4647 106.343C35.4844 106.499 36.5146 106.578 37.5462 106.577C38.0285 106.569 38.5078 106.499 38.9725 106.369C39.4582 106.23 39.9331 106.056 40.3935 105.849C41.3553 105.414 42.2873 104.917 43.1836 104.36C43.8499 103.968 44.5075 103.544 45.1564 103.09Z" fill="black"/>
</g>
<path d="M43.3135 93.5129C27.2915 98.0103 15.7253 100.098 13.4714 100.446C13.459 100.446 13.4471 100.441 13.4383 100.433C13.4295 100.424 13.4246 100.412 13.4246 100.4C13.4246 100.387 13.4295 100.375 13.4383 100.366C13.4471 100.358 13.459 100.353 13.4714 100.353C24.6056 96.938 42.2204 93.4088 43.3031 93.3203C43.3252 93.3241 43.3454 93.3353 43.3603 93.352C43.3752 93.3688 43.384 93.3901 43.3852 93.4125C43.3864 93.4348 43.3799 93.457 43.3669 93.4752C43.3539 93.4935 43.3351 93.5068 43.3135 93.5129Z" fill="#263238"/>
<path d="M44.8908 112.771C44.5108 115.806 43.6467 120.621 42.9492 123.598C42.9024 123.785 42.8555 123.973 42.8139 124.16C43.0116 125.228 43.1109 126.312 43.1106 127.398C43.1106 128.668 43.0013 129.923 42.8711 131.182C42.8711 131.234 42.7827 131.229 42.7879 131.182C42.8712 129.929 42.8607 128.671 42.7566 127.419C42.6994 126.674 42.6369 125.925 42.5744 125.175C41.8925 128.017 41.1742 130.859 40.2893 133.644C40.2893 133.696 40.1956 133.644 40.2112 133.613C40.8775 130.589 41.5906 127.57 42.1476 124.525C42.7046 121.479 43.9799 114.333 44.5108 111.308C44.9325 108.909 45.0105 111.818 44.8908 112.771Z" fill="#263238"/>
<path d="M74.4257 100.129C74.8057 101.237 80.9428 108.082 86.1065 107.333C87.793 107.083 86.8508 97.8435 86.8508 97.8435L86.9393 97.1459L88.147 87.3704L74.4934 80.4629C74.4934 80.4629 74.2644 99.6549 74.4257 100.129Z" fill="#AD6359"/>
<path d="M88.1366 87.3756L86.9186 97.1407L86.8353 97.8435C86.8353 97.8435 87.0018 99.5196 87.0695 101.456C79.8966 101.097 76.1383 96.0997 74.3685 92.5705C74.3998 87.0268 74.4778 80.4629 74.4778 80.4629L88.1366 87.3756Z" fill="#263238"/>
<path d="M103.362 70.7122C108.349 91.2108 96.6317 96.5098 92.2072 97.5821C88.1939 98.5503 74.405 101.346 67.3309 81.4716C60.2569 61.5977 68.2106 52.8007 77.2731 50.0939C86.3356 47.3872 98.3703 50.2085 103.362 70.7122Z" fill="#AD6359"/>
<path d="M97.4749 71.3012C96.9884 71.3082 96.5019 71.2891 96.0174 71.2439C95.5025 71.297 94.9845 71.1781 94.5443 70.9056C94.4223 70.7927 94.3412 70.6425 94.3139 70.4786C94.2866 70.3146 94.3145 70.1462 94.3934 69.9999C94.5896 69.733 94.8542 69.524 95.1593 69.3949C95.4643 69.2657 95.7985 69.2212 96.1267 69.2659C96.8052 69.2476 97.4661 69.4833 97.9798 69.927C98.0908 70.035 98.1681 70.1728 98.2024 70.3238C98.2367 70.4748 98.2265 70.6325 98.1731 70.7779C98.1197 70.9232 98.0254 71.05 97.9015 71.1429C97.7776 71.2357 97.6294 71.2907 97.4749 71.3012Z" fill="#263238"/>
<path d="M82.8897 74.4242C83.351 74.2737 83.8045 74.1 84.2483 73.9037C84.7507 73.7828 85.1991 73.4992 85.5236 73.0969C85.6027 72.9502 85.6303 72.7813 85.602 72.617C85.5737 72.4528 85.4911 72.3029 85.3674 72.1912C85.0935 72.0051 84.7747 71.8959 84.4442 71.8748C84.1137 71.8538 83.7836 71.9217 83.4883 72.0714C82.8422 72.2803 82.2968 72.7219 81.9579 73.3103C81.8935 73.4484 81.8697 73.6021 81.8894 73.7532C81.9092 73.9044 81.9716 74.0468 82.0694 74.1637C82.1672 74.2806 82.2963 74.3672 82.4416 74.4134C82.5869 74.4595 82.7423 74.4633 82.8897 74.4242Z" fill="#263238"/>
<path d="M89.0631 88.5833C89.4431 88.88 89.8335 89.3017 90.354 89.2912C90.8848 89.2252 91.3956 89.0478 91.8531 88.7707C91.8626 88.7669 91.873 88.766 91.8829 88.768C91.8929 88.7701 91.9021 88.775 91.9093 88.7822C91.9165 88.7894 91.9214 88.7986 91.9235 88.8086C91.9255 88.8186 91.9246 88.8289 91.9208 88.8384C91.747 89.1408 91.4946 89.3905 91.1903 89.5609C90.886 89.7314 90.5413 89.8163 90.1926 89.8066C89.893 89.7636 89.6131 89.6321 89.3887 89.429C89.1642 89.2259 89.0056 88.9604 88.933 88.6666C88.9017 88.5833 89.0006 88.5156 89.0631 88.5833Z" fill="#263238"/>
<path d="M94.2373 85.1729C93.8642 86.1121 93.2567 86.9401 92.4726 87.5778C92.0326 87.9053 91.5012 88.0873 90.9527 88.0983C89.7503 88.1295 89.4275 87.1093 89.3911 86.1723C89.3705 85.6731 89.4107 85.1731 89.5108 84.6836C90.9939 85.3463 92.6499 85.5177 94.2373 85.1729Z" fill="#FFF3DD"/>
<path d="M93.5189 86.5C93.4616 86.5781 93.3992 86.6666 93.3315 86.7447C92.9528 86.7889 92.5702 86.7889 92.1915 86.7447C92.6444 86.6614 93.0868 86.5833 93.5189 86.5Z" fill="#DBDBDB"/>
<path d="M90.9838 86.6465C90.6914 86.6491 90.3997 86.6176 90.1145 86.5528C89.8658 86.4885 89.6236 86.4014 89.391 86.2925C89.391 86.2613 89.391 86.2196 89.391 86.1884C89.391 86.1572 89.391 86.0843 89.391 86.0322C89.9085 86.2703 90.4405 86.4754 90.9838 86.6465Z" fill="#DBDBDB"/>
<path d="M94.1382 82.4763C94.1382 82.4763 94.7785 84.5584 94.9451 85.5422C94.9451 85.6359 94.7265 85.7192 94.3933 85.7921C94.3933 85.7921 94.3673 85.7921 94.3517 85.7921C93.5208 86.0902 92.6239 86.1542 91.7592 85.977C90.8944 85.7998 90.095 85.3883 89.4483 84.7875C89.4262 84.7709 89.4116 84.7462 89.4077 84.7189C89.4038 84.6916 89.4109 84.6638 89.4274 84.6417C89.444 84.6196 89.4687 84.605 89.496 84.6011C89.5233 84.5972 89.5511 84.6043 89.5732 84.6209C90.9919 85.2809 92.5862 85.4635 94.1174 85.1414C94.1174 84.8551 92.889 81.6018 93.0503 81.6018C93.7322 81.6018 94.9503 81.7007 95.4031 81.7372C95.0127 80.3838 93.7218 76.5995 93.0191 74.1322C92.9775 73.9812 93.2117 73.8875 93.269 74.0281C94.5535 76.749 95.656 79.5521 96.5691 82.419C96.6368 82.6585 94.5651 82.5752 94.1382 82.4763Z" fill="#263238"/>
<path d="M84.0296 78.2597C84.0363 77.8914 84.1424 77.5317 84.3367 77.2186C84.4514 77.0552 84.5983 76.9169 84.7684 76.8121C84.9384 76.7074 85.1281 76.6385 85.3257 76.6096C85.5282 76.5857 85.7334 76.6095 85.925 76.6791C86.1166 76.7487 86.2893 76.8621 86.4292 77.0104C86.671 77.2736 86.8491 77.5888 86.9498 77.9318C87.0039 78.1373 87.0456 78.3459 87.0747 78.5564C87.1363 78.995 87.0971 79.4418 86.9602 79.8629C86.9364 79.5433 86.877 79.2273 86.7832 78.9208C86.7032 78.6452 86.6041 78.3756 86.4865 78.1139C86.2314 77.5934 85.8462 77.1614 85.4038 77.2447C84.9613 77.3279 84.6438 77.7235 84.5293 78.2857C84.4322 78.8914 84.3938 79.505 84.4148 80.118C84.1473 79.5357 84.0156 78.9003 84.0296 78.2597Z" fill="#263238"/>
<path d="M98.2089 75.5013C98.0649 75.1679 97.8328 74.8799 97.5374 74.6685C97.3701 74.5593 97.182 74.4859 96.9849 74.4527C96.7879 74.4196 96.5861 74.4275 96.3923 74.4759C96.1956 74.529 96.0144 74.6279 95.8633 74.7645C95.7122 74.9012 95.5956 75.0716 95.523 75.2619C95.3973 75.5936 95.3527 75.9505 95.3928 76.3029C95.4168 76.5139 95.4568 76.7227 95.5126 76.9276C95.6159 77.3585 95.8212 77.7584 96.1112 78.0936C96.0098 77.7901 95.9451 77.4755 95.9186 77.1566C95.8953 76.8691 95.8953 76.5801 95.9186 76.2925C95.9498 75.7043 96.1476 75.1734 96.5901 75.0849C97.0325 74.9964 97.475 75.2359 97.7977 75.7356C98.1157 76.2605 98.3824 76.8148 98.5941 77.3909C98.6183 76.7393 98.4862 76.0914 98.2089 75.5013Z" fill="#263238"/>
<path d="M65.3009 83.3097C71.5733 83.3774 74.3946 75.736 72.5883 69.8331C72.5883 69.8331 89.3287 71.0512 89.3339 57.6735C90.6072 59.4068 92.2874 60.8001 94.2264 61.7306C96.1655 62.6611 98.3036 63.1001 100.452 63.009L102.602 67.8135C104.278 67.2201 105.804 62.275 101.41 58.7198C101.41 58.7198 100.734 52.0934 95.5959 48.3924C94.2052 47.3254 92.5357 46.683 90.7885 46.5427C89.0412 46.4023 87.2906 46.7699 85.7474 47.6012C82.7324 45.6807 79.0884 45.0087 75.5866 45.7273C69.538 46.8725 67.3466 52.5983 67.3466 52.5983C67.3466 52.5983 59.2107 54.6805 58.1592 60.5833C57.8199 62.2667 57.8417 64.0029 58.223 65.6772C58.6044 67.3516 59.3366 68.926 60.3715 70.2964C60.3715 70.2964 58.4455 72.7169 59.7885 77.6411C60.6317 80.7799 63.4218 83.3097 65.3009 83.3097Z" fill="#263238"/>
<path d="M88.8862 56.5234C89.0764 57.5968 89.1532 58.6873 89.1152 59.7768C89.1079 60.8517 88.968 61.9217 88.6988 62.9624C88.1856 65.0221 86.9141 66.8123 85.1383 67.9751C83.4154 69.2296 81.2083 69.5367 79.1054 69.8699C78.0279 69.9011 76.9451 70.0104 75.8572 69.9792C74.7693 69.948 73.6814 69.8647 72.5779 69.8439C73.6554 70.0365 74.7433 70.1874 75.8364 70.3644C76.9295 70.5414 78.0383 70.4321 79.1522 70.4685C81.3384 70.2499 83.6392 69.948 85.56 68.6206C87.4721 67.3376 88.8061 65.3571 89.2766 63.103C89.7026 60.9119 89.5683 58.6487 88.8862 56.5234Z" fill="#263238"/>
<path d="M67.3466 52.5977C65.237 52.7389 63.1795 53.3149 61.3032 54.2894C59.345 55.2547 57.7909 56.8807 56.9151 58.8805C56.5477 59.8984 56.3456 60.9687 56.3165 62.0505C56.2482 63.1242 56.3644 64.2017 56.66 65.2362C57.2162 67.3298 58.5415 69.1365 60.3714 70.2957C58.7942 68.9641 57.6971 67.1521 57.2482 65.1373C56.8088 63.1639 56.9461 61.1059 57.6438 59.2084C58.0041 58.2855 58.5337 57.4381 59.2054 56.7099C59.9185 55.9929 60.7175 55.367 61.5843 54.8464C63.3737 53.7962 65.3188 53.0371 67.3466 52.5977Z" fill="#263238"/>
<path d="M85.7682 47.6216C87.301 46.9579 88.9299 46.5432 90.5935 46.3932C92.2149 46.2355 93.8496 46.4972 95.3408 47.1531C96.7991 47.8706 98.0524 48.9449 98.9845 50.2763C99.9465 51.6426 100.704 53.1419 101.233 54.7269C100.983 53.0296 100.384 51.4025 99.4738 49.9484C98.5922 48.4141 97.2574 47.1902 95.6525 46.4446C94.0477 45.699 92.2514 45.4683 90.5102 45.7841C88.8152 46.0463 87.1973 46.6732 85.7682 47.6216Z" fill="#263238"/>
<path d="M97.907 63.7223C96.05 63.2115 94.2909 62.3952 92.7017 61.307C91.9252 60.7644 91.2249 60.1202 90.6196 59.3915C90.0081 58.6396 89.4842 57.8206 89.058 56.9502C89.2026 57.9437 89.5576 58.8949 90.099 59.7402C90.6419 60.6008 91.3495 61.3456 92.1812 61.9317C93.0058 62.5167 93.9175 62.9682 94.8827 63.2695C95.8571 63.5939 96.8803 63.7472 97.907 63.7223Z" fill="#263238"/>
<path d="M84.7114 86.0582C83.3351 86.1551 81.9592 85.8638 80.7403 85.2173C79.5214 84.5708 78.5084 83.5952 77.8166 82.4015C77.1248 81.2077 76.782 79.8438 76.8271 78.4648C76.8722 77.0858 77.3034 75.7472 78.0717 74.6012C78.84 73.4552 79.9146 72.5478 81.1731 71.9824C82.4316 71.4169 83.8236 71.2161 85.1906 71.4027C86.5577 71.5893 87.8449 72.1558 88.9059 73.0378C89.9668 73.9199 90.7589 75.082 91.192 76.392C91.8015 78.2482 91.6507 80.2702 90.7727 82.0155C89.8946 83.7608 88.3609 85.0872 86.5072 85.7043C85.9251 85.8945 85.3221 86.0133 84.7114 86.0582ZM83.7484 72.337C83.2173 72.3755 82.6929 72.4786 82.1868 72.6441C80.6453 73.1536 79.3559 74.2315 78.5812 75.6582C77.8065 77.085 77.6047 78.7534 78.0169 80.3237C78.4291 81.8941 79.4243 83.2482 80.7998 84.1106C82.1754 84.9729 83.828 85.2785 85.421 84.9653C87.014 84.652 88.4277 83.7433 89.3743 82.4243C90.3209 81.1052 90.7291 79.475 90.516 77.8656C90.3028 76.2561 89.4842 74.7884 88.2269 73.7612C86.9696 72.7341 85.3681 72.2248 83.7484 72.337Z" fill="#FFAC1C"/>
<path d="M100.671 82.8722C97.8549 83.07 95.1064 80.3685 94.3881 76.5894C94.0188 74.7895 94.2189 72.9193 94.9607 71.2384C95.2367 70.4974 95.6995 69.8402 96.3041 69.3306C96.9087 68.821 97.6347 68.4762 98.4117 68.3296C99.1887 68.183 99.9905 68.2396 100.739 68.4938C101.488 68.7481 102.158 69.1914 102.685 69.7809C103.99 71.0726 104.858 72.7397 105.168 74.5489C105.923 78.5414 104.127 82.2476 101.15 82.8098C100.992 82.8408 100.832 82.8617 100.671 82.8722ZM98.9636 69.2551C98.8387 69.2551 98.7189 69.2551 98.594 69.302C97.9811 69.4479 97.4122 69.7387 96.9349 70.1498C96.4576 70.561 96.0858 71.0807 95.8508 71.6652C95.1945 73.1572 95.0216 74.8172 95.3563 76.4124C96.0122 79.8688 98.5211 82.3101 100.968 81.8468C103.414 81.3835 104.856 78.2031 104.2 74.7415C103.931 73.1333 103.164 71.6498 102.009 70.4992C101.616 70.0906 101.142 69.7688 100.618 69.5545C100.093 69.3402 99.5299 69.2382 98.9636 69.2551Z" fill="#FFAC1C"/>
<path d="M91.1766 77.261L90.5311 76.7404C91.3119 75.7879 93.2535 74.3408 95.0493 75.6525L94.5288 76.3188C92.9516 75.1372 91.2495 77.1777 91.1766 77.261Z" fill="#FFAC1C"/>
<path d="M62.0163 84.4127L61.2198 84.1733C61.3344 83.8037 62.3546 80.5296 64.1192 79.8893C65.7745 79.2959 76.9035 78.2549 77.3772 78.208L77.4552 79.0357C74.2644 79.3324 65.6808 80.2068 64.4055 80.6701C63.2395 81.097 62.2869 83.5174 62.0163 84.4127Z" fill="#FFAC1C"/>
<path d="M71.6826 82.4144C71.6826 82.4144 66.1338 76.6053 63.4322 78.677C60.7306 80.7487 65.5924 89.6654 69.257 90.4254C69.7192 90.5557 70.203 90.5912 70.6792 90.5299C71.1555 90.4686 71.6145 90.3117 72.0287 90.0686C72.4429 89.8256 72.8037 89.5014 73.0895 89.1154C73.3753 88.7295 73.5802 88.2898 73.6919 87.8228L71.6826 82.4144Z" fill="#AD6359"/>
<path d="M64.8896 81.1956C64.8791 81.199 64.8701 81.2056 64.8636 81.2145C64.8572 81.2234 64.8538 81.2341 64.8538 81.245C64.8538 81.256 64.8572 81.2667 64.8636 81.2756C64.8701 81.2844 64.8791 81.2911 64.8896 81.2945C67.4922 81.9035 69.0955 83.9648 70.3499 86.1667C69.4911 85.3755 68.4292 85.0319 67.3569 86.0782C67.2996 86.1354 67.3569 86.2239 67.4454 86.1979C67.8521 85.9972 68.3109 85.9269 68.759 85.9968C69.2072 86.0667 69.6228 86.2733 69.9491 86.5883C70.4893 87.1219 70.971 87.7117 71.3858 88.3477C71.5316 88.5455 71.9063 88.3477 71.7866 88.1343L71.7554 88.077C71.339 84.9694 68.2678 80.9978 64.8896 81.1956Z" fill="#263238"/>
<path d="M200.139 179.483C200.139 179.483 206.23 157.511 211.07 150.052C215.911 142.593 225 134.395 225 134.395C225 134.395 224.807 168.266 200.139 179.483Z" fill="#498AEC"/>
<path d="M200.576 179.086C202.626 175.654 204.477 172.106 206.12 168.462C206.819 164.536 207.83 160.671 209.144 156.906C209.17 156.839 209.269 156.875 209.254 156.948C208.447 160.415 207.505 163.855 206.651 167.317C209.108 161.971 211.445 156.557 214.371 151.503C215.046 149.06 215.994 146.701 217.197 144.471C217.228 144.408 217.332 144.439 217.301 144.507C216.56 146.226 215.926 147.989 215.401 149.785C216.781 147.53 218.328 145.381 220.029 143.357C220.138 143.232 220.351 143.357 220.242 143.508C216.328 148.531 213.626 154.241 211.055 160.024C213.822 157.006 216.375 153.799 218.696 150.426C218.696 150.394 218.769 150.426 218.748 150.462C216.33 154.244 213.592 157.813 210.565 161.128C208.692 165.365 206.849 169.618 204.616 173.652C209.082 169.857 212.517 164.948 215.917 160.212C215.924 160.201 215.934 160.191 215.945 160.184C215.956 160.177 215.968 160.172 215.981 160.169C215.994 160.167 216.008 160.167 216.021 160.17C216.034 160.173 216.046 160.178 216.057 160.186C216.068 160.193 216.077 160.203 216.085 160.214C216.092 160.225 216.097 160.237 216.099 160.25C216.102 160.264 216.101 160.277 216.099 160.29C216.096 160.303 216.091 160.315 216.083 160.326C212.679 165.531 209.16 170.419 204.267 174.266C203.276 176.037 202.184 177.751 200.998 179.398C200.957 179.454 200.895 179.492 200.826 179.502C200.757 179.512 200.687 179.494 200.631 179.453C200.575 179.412 200.538 179.35 200.528 179.281C200.518 179.212 200.535 179.142 200.576 179.086Z" fill="#263238"/>
<path d="M198.25 181.46C198.25 181.46 209.181 161.201 206.016 141.561C202.851 121.922 199.431 114.926 199.431 114.926C199.431 114.926 182.228 145.476 198.25 181.46Z" fill="#498AEC"/>
<path d="M193.758 149.615C194.684 155.18 196.099 160.653 197.984 165.97C198.016 158.76 198.151 151.556 198.344 144.347C197.107 139.973 196.408 135.465 196.261 130.922C196.261 130.792 196.454 130.797 196.464 130.922C196.811 134.816 197.453 138.677 198.385 142.473C198.552 136.529 198.743 130.584 198.958 124.64C198.958 124.619 198.966 124.599 198.981 124.584C198.995 124.57 199.015 124.562 199.036 124.562C199.057 124.562 199.076 124.57 199.091 124.584C199.106 124.599 199.114 124.619 199.114 124.64C199.114 133.926 199.114 143.212 199.051 152.504C200.387 148.912 201.441 145.223 202.206 141.468C202.209 141.462 202.213 141.456 202.219 141.452C202.225 141.448 202.232 141.445 202.24 141.445C202.247 141.445 202.254 141.448 202.26 141.452C202.266 141.456 202.271 141.462 202.274 141.468C201.94 145.804 200.629 150 199.041 154.024C198.999 159.963 198.937 165.897 198.802 171.836C200.655 165.522 202.633 159.411 203.169 152.738C203.169 152.729 203.171 152.72 203.174 152.712C203.177 152.704 203.182 152.696 203.189 152.69C203.195 152.684 203.202 152.679 203.211 152.675C203.219 152.672 203.228 152.67 203.237 152.67C203.245 152.67 203.254 152.672 203.262 152.675C203.271 152.679 203.278 152.684 203.284 152.69C203.291 152.696 203.296 152.704 203.299 152.712C203.302 152.72 203.304 152.729 203.304 152.738C203.164 160.093 201.274 167.557 198.864 174.475C198.837 174.544 198.794 174.604 198.739 174.652C198.687 176.818 198.625 178.987 198.552 181.159C198.552 181.222 198.526 181.283 198.482 181.328C198.437 181.373 198.376 181.398 198.312 181.398C198.249 181.398 198.188 181.373 198.143 181.328C198.098 181.283 198.073 181.222 198.073 181.159C197.983 176.721 197.946 172.282 197.964 167.844C195.507 162.118 194.195 155.773 193.648 149.625C193.659 149.568 193.752 149.557 193.758 149.615Z" fill="#263238"/>
<path d="M194.507 146.481C194.892 148.244 195.148 150.032 195.272 151.832C195.272 151.895 195.184 151.9 195.168 151.832C194.743 150.077 194.442 148.294 194.268 146.497C194.252 146.372 194.481 146.346 194.507 146.481Z" fill="#263238"/>
<path d="M200.915 131.671C200.915 131.609 201.019 131.63 201.019 131.671C201.005 132.921 200.82 134.163 200.467 135.362C200.441 135.461 200.301 135.414 200.322 135.32C200.556 134.118 200.702 132.895 200.915 131.671Z" fill="#263238"/>
<path d="M194.263 183.011C194.263 183.011 194.705 161.862 188.672 151.352C182.639 140.843 172.629 135.486 172.629 135.486C172.629 135.486 176.663 172.762 194.263 183.011Z" fill="#498AEC"/>
<path d="M183.264 164.928C185.799 168.598 188.323 172.137 191.431 175.338C190.223 171.015 188.835 166.764 187.267 162.585C183.883 159.603 180.531 156.511 178.454 152.43C178.423 152.367 178.516 152.31 178.553 152.373C180.786 155.985 183.758 158.879 186.907 161.659C184.488 155.362 181.684 149.221 178.511 143.268C178.5 143.239 178.5 143.206 178.511 143.177C178.522 143.147 178.542 143.122 178.57 143.106C178.597 143.09 178.629 143.084 178.66 143.089C178.691 143.094 178.719 143.109 178.74 143.133C180.67 146.254 182.428 149.477 184.008 152.789C183.441 150.525 182.967 148.213 182.41 145.97C182.407 145.958 182.408 145.944 182.414 145.933C182.421 145.922 182.431 145.914 182.444 145.91C182.456 145.907 182.469 145.908 182.481 145.915C182.492 145.921 182.5 145.932 182.504 145.944C183.576 148.77 184.638 151.894 184.981 154.913C187.095 159.604 188.871 164.44 190.296 169.384C190.14 166.213 189.942 163.059 189.619 159.894C189.619 159.837 189.713 159.821 189.723 159.894C190.393 163.403 190.698 166.972 190.634 170.544C191.504 173.694 192.238 176.884 192.826 180.096C192.826 180.185 192.716 180.221 192.696 180.133C192.368 178.784 192.009 177.452 191.655 176.119C191.655 176.119 191.608 176.119 191.587 176.119C188.349 172.855 185.278 169.144 183.258 164.985C183.217 164.923 183.248 164.907 183.264 164.928Z" fill="#263238"/>
<path d="M176.273 147.719C176.944 148.448 177.559 149.218 178.209 149.968C178.84 150.602 179.422 151.284 179.948 152.008C179.948 152.039 179.948 152.076 179.901 152.055C179.141 151.49 178.465 150.82 177.892 150.066C177.257 149.358 176.682 148.597 176.174 147.792C176.138 147.734 176.226 147.667 176.273 147.719Z" fill="#263238"/>
<path d="M212.189 180.43L211.43 187.197L209.134 207.716H189.146L186.86 187.207L186.095 180.44H212.195L212.189 180.43Z" fill="#455A64"/>
<path d="M212.189 180.43L211.43 187.197H186.86L186.095 180.43H212.195H212.189Z" fill="#37474F"/>
<path d="M184.315 183.188H213.965V175.511H184.315V183.188Z" fill="#455A64"/>
<path d="M185.117 200.642H125.308V207.721H185.117V200.642Z" fill="#37474F"/>
<path d="M139.477 200.642H137.041V207.721H139.477V200.642Z" fill="#455A64"/>
<path d="M178.079 200.642H172.234V207.721H178.079V200.642Z" fill="#455A64"/>
<path d="M180.812 179.944H119.722V189.298H180.812V179.944Z" fill="#37474F"/>
<path d="M170.006 182.979H155.332V186.264H170.006V182.979Z" fill="#498AEC"/>
<path d="M177.361 184.619C177.386 185.008 177.294 185.395 177.096 185.73C176.898 186.066 176.604 186.334 176.252 186.5C175.9 186.666 175.506 186.723 175.121 186.662C174.736 186.602 174.379 186.427 174.095 186.16C173.811 185.894 173.614 185.548 173.529 185.168C173.444 184.788 173.475 184.391 173.618 184.029C173.761 183.667 174.01 183.357 174.332 183.138C174.655 182.919 175.035 182.802 175.424 182.803C175.922 182.787 176.405 182.97 176.768 183.31C177.131 183.651 177.345 184.122 177.361 184.619Z" fill="#498AEC"/>
<path d="M147.638 171.669H116.776V179.925H147.638V171.669Z" fill="#263238"/>
<path d="M176.164 171.669H147.638V179.925H176.164V171.669Z" fill="#263238"/>
<path d="M147.638 172.527H116.776V179.07H147.638V172.527Z" fill="#FFF3DD"/>
<path d="M119.462 173.881C122.696 173.839 125.931 173.808 129.165 173.787L133.553 173.756L143.25 173.787C146.483 173.787 144.406 173.834 147.638 173.881C144.406 173.928 146.483 173.959 143.25 173.98L133.553 174.006L129.165 173.98C125.931 173.952 122.696 173.919 119.462 173.881Z" fill="#DBDBDB"/>
<path d="M119.462 175.157C122.696 175.112 125.931 175.081 129.165 175.063L133.553 175.032L143.25 175.058C146.483 175.058 144.406 175.11 147.638 175.157C144.406 175.204 146.483 175.235 143.25 175.251L133.553 175.282L129.165 175.251C125.931 175.237 122.696 175.206 119.462 175.157Z" fill="#DBDBDB"/>
<path d="M119.462 176.436C122.696 176.394 125.931 176.363 129.165 176.342L133.553 176.316L143.25 176.342C146.483 176.342 144.406 176.394 147.638 176.436C144.406 176.483 146.483 176.519 143.25 176.535H133.553H129.165C125.931 176.518 122.696 176.485 119.462 176.436Z" fill="#DBDBDB"/>
<path d="M119.462 177.723C122.696 177.677 125.931 177.646 129.165 177.629L133.553 177.598L143.25 177.629C146.483 177.629 144.406 177.676 147.638 177.723C144.406 177.769 146.483 177.801 143.25 177.816L133.553 177.848L129.165 177.816C125.931 177.802 122.696 177.771 119.462 177.723Z" fill="#DBDBDB"/>
<path d="M157.976 171.669H153.958V179.925H157.976V171.669Z" fill="#455A64"/>
<path d="M174.691 171.669H171.989V179.925H174.691V171.669Z" fill="#455A64"/>
<path d="M143.542 200.636H178.298V189.288H143.542V200.636Z" fill="#498AEC"/>
<path d="M117.151 200.636H143.542V189.288H117.151V200.636Z" fill="#498AEC"/>
<path d="M143.542 199.46H178.298V190.47H143.542V199.46Z" fill="#FFF3DD"/>
<path d="M176.044 197.611C173.337 197.66 170.629 197.691 167.918 197.705L159.793 197.736L151.667 197.705C148.957 197.705 146.247 197.674 143.537 197.611C146.25 197.566 148.961 197.535 151.667 197.518L159.793 197.486L167.918 197.518C170.629 197.535 173.337 197.566 176.044 197.611Z" fill="#DBDBDB"/>
<path d="M176.044 195.848C173.337 195.897 170.629 195.928 167.918 195.942L159.793 195.973L151.667 195.947C148.957 195.926 146.247 195.893 143.537 195.848C146.25 195.803 148.961 195.772 151.667 195.755L159.793 195.744L167.918 195.775C170.629 195.779 173.337 195.803 176.044 195.848Z" fill="#DBDBDB"/>
<path d="M176.044 194.084C173.337 194.129 170.629 194.162 167.918 194.183L159.793 194.209L151.667 194.183C148.957 194.162 146.247 194.129 143.537 194.084C146.25 194.039 148.961 194.008 151.667 193.99L159.793 193.959L167.918 193.99C170.629 194.008 173.337 194.039 176.044 194.084Z" fill="#DBDBDB"/>
<path d="M176.044 192.317C173.337 192.362 170.629 192.395 167.918 192.416L159.793 192.442L151.667 192.416C148.957 192.416 146.247 192.383 143.537 192.317C146.25 192.269 148.961 192.237 151.667 192.224L159.793 192.192L167.918 192.224C170.63 192.239 173.327 192.276 176.044 192.317Z" fill="#DBDBDB"/>
<path d="M126.291 189.293H121.352V200.641H126.291V189.293Z" fill="#455A64"/>
<path d="M146.218 36.2835C146.217 39.7277 145.259 43.1039 143.452 46.0358C141.644 48.9677 139.058 51.3399 135.981 52.888C132.905 54.4361 129.458 55.0991 126.027 54.8032C122.595 54.5074 119.313 53.2642 116.547 51.2123L107.438 53.5391L111.233 45.0544C109.898 42.5613 109.149 39.7966 109.044 36.9707C108.938 34.1447 109.478 31.3319 110.623 28.7462C111.768 26.1604 113.488 23.8698 115.651 22.0485C117.814 20.2272 120.365 18.9232 123.108 18.2357C125.851 17.5482 128.715 17.4953 131.481 18.081C134.248 18.6666 136.844 19.8755 139.074 21.6156C141.303 23.3557 143.106 25.5812 144.345 28.1229C145.585 30.6646 146.229 33.4555 146.228 36.2835H146.218Z" fill="#FFF3DD"/>
<path d="M146.217 36.284C146.212 39.7291 145.258 43.1061 143.459 46.044C143.007 46.7663 142.513 47.4616 141.98 48.1262C141.426 48.7802 140.831 49.3991 140.2 49.9792C139.892 50.2767 139.569 50.5582 139.232 50.8225L138.191 51.5981C137.847 51.8532 137.467 52.0562 137.103 52.2904L136.556 52.6287C136.369 52.7329 136.171 52.8214 135.984 52.915C135.593 53.1024 135.213 53.3002 134.823 53.4772L133.615 53.9301C133.213 54.084 132.801 54.2092 132.382 54.3049C131.965 54.4038 131.559 54.5443 131.132 54.6068C130.287 54.7732 129.432 54.8776 128.571 54.9191C127.705 54.9879 126.835 54.9879 125.969 54.9191C124.248 54.7783 122.555 54.4035 120.935 53.8052C119.317 53.1948 117.788 52.3683 116.391 51.3482L116.547 51.3795L107.448 53.7427L106.99 53.8624L107.183 53.4304L110.957 44.9353V45.1591C109.607 42.639 108.862 39.8393 108.781 36.9816C108.677 34.1182 109.23 31.269 110.397 28.6525C111.565 26.0359 113.316 23.7213 115.516 21.8861C117.708 20.0633 120.288 18.767 123.059 18.0967C125.811 17.4295 128.679 17.3949 131.447 17.9955C134.215 18.5961 136.81 19.8162 139.039 21.5641C141.267 23.312 143.07 25.5423 144.313 28.0874C145.555 30.6324 146.205 33.4259 146.212 36.258L146.217 36.284ZM146.217 36.284C146.203 33.4614 145.547 30.6789 144.301 28.1462C143.055 25.6135 141.251 23.3965 139.024 21.6623C136.791 19.9492 134.203 18.7576 131.45 18.1747C128.692 17.6193 125.845 17.6958 123.121 18.3986C120.409 19.0907 117.892 20.394 115.761 22.2089C113.649 24.0353 111.963 26.3025 110.821 28.8508C109.698 31.403 109.169 34.1768 109.275 36.9631C109.38 39.7495 110.117 42.4754 111.43 44.9353L111.488 45.0446L111.441 45.1591L107.636 53.6386L107.37 53.3211L116.495 51.0359H116.578L116.651 51.088C119.374 53.1516 122.619 54.4136 126.021 54.7317C126.869 54.8115 127.722 54.8237 128.571 54.7681C129.422 54.7334 130.269 54.6413 131.106 54.4923C131.528 54.435 131.934 54.2945 132.35 54.2008C132.768 54.1139 133.179 53.9955 133.579 53.8468L134.781 53.4148L135.937 52.8682C136.13 52.7745 136.327 52.6912 136.515 52.5871L137.035 52.2592C137.394 52.0353 137.78 51.8375 138.123 51.5877L139.164 50.8225C139.501 50.5604 139.825 50.2807 140.132 49.9844C140.762 49.4083 141.357 48.7947 141.913 48.147C142.449 47.4837 142.944 46.7883 143.396 46.0648C145.221 43.1274 146.198 39.7422 146.217 36.284Z" fill="#263238"/>
<path d="M124.605 47.3508L116.271 38.913L119.072 36.1437L123.939 41.0732L134.058 25.2178L137.374 27.3311L124.605 47.3508Z" fill="#498AEC"/>
</svg>
