<svg width="231" height="205" viewBox="0 0 231 205" fill="none" xmlns="http://www.w3.org/2000/svg">
<path d="M36.2124 185.925C-8.12466 161.238 -8.12466 121.211 36.2124 96.5157C80.5494 71.82 152.429 71.8294 196.766 96.5157C241.103 121.202 241.099 161.229 196.766 185.925C152.434 210.62 80.5445 210.611 36.2124 185.925Z" fill="#F5F5F5"/>
<path d="M167.267 123.061C155.405 129.649 155.405 140.373 167.267 146.98C179.128 153.587 198.362 153.568 210.228 146.98C222.094 140.392 222.089 129.663 210.228 123.061C198.367 116.459 179.128 116.454 167.267 123.061Z" fill="#E6E6E6"/>
<path d="M152.634 188.165C152.44 188.054 152.24 187.954 152.034 187.864C151.313 187.628 150.609 187.346 149.926 187.021C149.103 186.548 148.32 186.013 147.584 185.421C145.472 183.675 142.852 182.348 140.671 180.716C138.158 178.833 135.367 177.252 133.132 175.069C130.644 172.631 128.975 169.553 126.989 166.721C125.238 164.222 123.086 161.808 120.31 160.504L122.749 159.159L150.834 143.55C151.81 142.999 151.81 142.11 150.834 141.564L79.1149 101.607C78.5619 101.338 77.951 101.198 77.3315 101.198C76.7121 101.198 76.1012 101.338 75.5482 101.607L14.9977 135.329C14.0218 135.879 14.0218 136.769 14.9977 137.314L86.7215 177.238C87.2745 177.507 87.8854 177.648 88.5048 177.648C89.1243 177.648 89.7352 177.507 90.2882 177.238L95.221 174.49L102.301 170.523C102.301 170.523 102.598 173.727 104.194 175.93C105.589 177.854 109.654 180.607 111.883 181.553C113.982 182.425 116.024 183.42 117.997 184.532C120.119 185.741 122.335 186.819 124.457 188.056C125.565 188.641 126.556 189.411 127.385 190.329C127.833 190.871 128.175 191.478 128.575 192.056C130.292 194.405 132.703 196.199 135.494 197.204C138.258 198.277 141.184 198.913 144.159 199.087C148.004 199.294 152.137 199.129 154.947 196.169C156.006 195.059 156.059 192.63 155.523 191.28C154.943 189.963 153.927 188.867 152.634 188.165Z" fill="#E0E0E0"/>
<path d="M28.1325 128.021L23.7802 130.435L21.9457 131.456C21.7944 130.002 21.3748 126.223 20.8186 122.12C20.033 116.374 19.067 112.322 16.9689 108.417C15.0709 104.873 12.2508 101.452 7.7912 96.9863C1.1848 90.3653 3.42922 83.9984 9.07442 83.589C18.2863 82.9161 24.0632 91.3676 27.0249 100.85C29.6353 109.137 29.3083 121.423 28.1325 128.021Z" fill="#E0E0E0"/>
<path d="M25.4049 129.343H25.3659C25.2695 129.332 25.1814 129.285 25.121 129.212C25.0606 129.139 25.0329 129.045 25.0439 128.952C27.2736 108.892 19.5206 93.838 10.8504 87.8147C10.7714 87.7598 10.7183 87.6769 10.7028 87.5842C10.6872 87.4915 10.7105 87.3967 10.7674 87.3206C10.8243 87.2445 10.9103 87.1933 11.0064 87.1783C11.1025 87.1633 11.2008 87.1857 11.2797 87.2406C20.1208 93.3816 28.0299 108.685 25.7709 129.028C25.7612 129.115 25.7184 129.195 25.6508 129.253C25.5832 129.311 25.4956 129.343 25.4049 129.343Z" fill="white"/>
<path d="M23.7802 130.435L21.9456 131.456L19.8281 132.665C19.3402 128.901 17.7837 123.305 13.2266 118.967C8.01561 114.012 1.36042 111.334 0.189414 106.986C-0.923037 102.859 2.96078 99.8708 9.31347 102.021C12.3754 103.126 15.0582 105.031 17.0616 107.522C21.609 112.99 24.4682 121.87 23.7802 130.435Z" fill="#EBEBEB"/>
<path d="M21.9456 131.583C21.849 131.58 21.7571 131.542 21.6897 131.475C21.6223 131.408 21.5845 131.319 21.5846 131.225C21.7309 118.412 13.934 108.986 6.1371 105.344C6.04975 105.303 5.98295 105.23 5.95138 105.141C5.91981 105.052 5.92607 104.955 5.96877 104.871C6.01147 104.787 6.08713 104.722 6.17909 104.692C6.27105 104.661 6.37178 104.667 6.45913 104.708C14.461 108.473 22.4628 118.129 22.3164 131.249C22.3102 131.34 22.2684 131.425 22.1996 131.487C22.1307 131.549 22.0399 131.583 21.9456 131.583Z" fill="white"/>
<path d="M116.972 0.664426C117.751 1.01007 118.474 1.46172 119.119 2.00556C119.74 2.51754 120.26 3.13275 120.656 3.82198C121.034 4.48272 121.259 5.21492 121.315 5.9678C121.364 6.7719 121.196 7.57456 120.827 8.29714C120.562 8.87818 120.181 9.40281 119.705 9.84062C119.281 10.2186 118.802 10.5355 118.285 10.7818C117.782 11.0155 117.257 11.2045 116.719 11.3465L115.201 11.7559C114.743 11.8741 114.298 12.0315 113.869 12.2264C113.487 12.3986 113.162 12.6709 112.932 13.0123C112.82 13.1696 112.665 13.2935 112.483 13.3699C112.399 13.4095 112.306 13.43 112.213 13.43C112.119 13.43 112.026 13.4095 111.942 13.3699L110.034 12.5182C109.85 12.4352 109.707 12.2868 109.634 12.1041C109.595 12.0178 109.577 11.9236 109.583 11.8295C109.589 11.7354 109.618 11.644 109.668 11.5629C109.962 10.9968 110.374 10.4954 110.878 10.09C111.331 9.72808 111.834 9.42729 112.371 9.19594C112.886 8.97402 113.42 8.79456 113.967 8.65948C114.508 8.52772 115.016 8.39596 115.484 8.2642C115.912 8.15166 116.326 7.99385 116.719 7.79362C117.059 7.62023 117.331 7.34427 117.494 7.00777C117.642 6.71175 117.712 6.38539 117.698 6.05725C117.685 5.7291 117.588 5.40917 117.416 5.12547C116.995 4.4261 116.344 3.88154 115.567 3.57728C114.142 2.94985 112.766 3.16945 111.439 4.23608C111.307 4.35653 111.154 4.45227 110.985 4.51843C110.806 4.56153 110.617 4.53446 110.459 4.44313L108.424 3.53963C108.352 3.50942 108.286 3.46554 108.232 3.41058C108.177 3.35562 108.135 3.2907 108.107 3.21964C108.071 3.14608 108.052 3.06572 108.052 2.98435C108.052 2.90299 108.071 2.82263 108.107 2.74907C108.431 2.15296 108.902 1.64245 109.478 1.26205C110.127 0.812816 110.854 0.479687 111.625 0.278554C112.47 0.058029 113.346 -0.0324929 114.22 0.0103268C115.173 0.0513969 116.109 0.273689 116.972 0.664426ZM111.4 14.8616C111.489 14.9009 111.569 14.9576 111.635 15.028C111.7 15.0985 111.75 15.1812 111.781 15.271C111.821 15.3569 111.841 15.4499 111.841 15.544C111.841 15.638 111.821 15.7311 111.781 15.8169L110.761 17.9486C110.677 18.1177 110.529 18.249 110.347 18.3148C110.165 18.3806 109.964 18.3758 109.785 18.3015L107.624 17.3604C107.45 17.2779 107.316 17.1343 107.249 16.9592C107.182 16.7841 107.187 16.5909 107.263 16.4192L108.282 14.2875C108.366 14.1184 108.515 13.9875 108.697 13.9225C108.879 13.8574 109.081 13.8635 109.258 13.9393L111.4 14.8616Z" fill="#498AEC"/>
<path d="M116.192 25.8449C116.75 26.0309 117.278 26.2941 117.758 26.626C118.219 26.9376 118.619 27.3265 118.939 27.7742C119.24 28.1983 119.445 28.6796 119.539 29.1859C119.608 29.6774 119.57 30.1774 119.427 30.6539C119.284 31.1304 119.04 31.5728 118.709 31.9529C118.444 32.235 118.139 32.4791 117.802 32.6776C117.471 32.8642 117.123 33.0217 116.762 33.1482L115.748 33.5246C115.442 33.6376 115.148 33.7778 114.869 33.9434C114.618 34.0843 114.413 34.2917 114.279 34.5411C114.212 34.6563 114.114 34.7522 113.996 34.8187C113.939 34.8488 113.876 34.8669 113.811 34.8718C113.747 34.8766 113.681 34.8682 113.62 34.8469L112.249 34.3764C112.119 34.3294 112.011 34.2371 111.947 34.1175C111.916 34.0594 111.899 33.9948 111.899 33.9293C111.899 33.8638 111.916 33.7993 111.947 33.7411C112.112 33.335 112.361 32.9653 112.679 32.6541C112.971 32.3773 113.299 32.1385 113.654 31.9435C113.995 31.759 114.351 31.6016 114.718 31.4729C115.079 31.3459 115.416 31.2235 115.733 31.1012C116.019 30.9961 116.293 30.8603 116.548 30.6965C116.773 30.5553 116.944 30.3471 117.036 30.1036C117.113 29.8914 117.136 29.6645 117.104 29.4419C117.072 29.2193 116.985 29.0073 116.85 28.8236C116.513 28.3706 116.029 28.0393 115.474 27.8824C114.989 27.7111 114.461 27.6878 113.962 27.8158C113.463 27.9438 113.016 28.2167 112.684 28.5977C112.6 28.6882 112.501 28.7645 112.391 28.8236C112.273 28.8694 112.142 28.8694 112.025 28.8236L110.561 28.353C110.508 28.3367 110.46 28.3103 110.418 28.2756C110.376 28.2408 110.342 28.1984 110.317 28.1507C110.293 28.1014 110.28 28.0476 110.28 27.993C110.28 27.9385 110.293 27.8846 110.317 27.8354C110.49 27.4138 110.764 27.0379 111.117 26.7389C111.533 26.3877 112.01 26.1119 112.527 25.9249C113.093 25.7169 113.689 25.5977 114.294 25.5719C114.939 25.5442 115.583 25.6369 116.192 25.8449ZM113.332 35.9575C113.461 36.0016 113.566 36.093 113.625 36.2116C113.657 36.27 113.675 36.334 113.679 36.3997C113.683 36.4653 113.673 36.5311 113.65 36.5928L113.093 38.1221C113.072 38.1843 113.038 38.2415 112.992 38.2901C112.947 38.3387 112.892 38.3777 112.83 38.4045C112.706 38.4616 112.565 38.47 112.435 38.428L110.888 37.901C110.824 37.8811 110.765 37.8487 110.715 37.8058C110.664 37.7628 110.624 37.7103 110.595 37.6516C110.564 37.5932 110.545 37.5291 110.541 37.4635C110.537 37.3978 110.547 37.332 110.571 37.2704L111.117 35.7269C111.138 35.6648 111.173 35.6076 111.218 35.559C111.264 35.5103 111.319 35.4714 111.381 35.4446C111.441 35.4149 111.506 35.3975 111.573 35.3934C111.641 35.3894 111.708 35.3988 111.771 35.421L113.332 35.9575Z" fill="#498AEC"/>
<g opacity="0.2">
<path d="M116.192 25.8449C116.75 26.0309 117.278 26.2941 117.758 26.626C118.219 26.9376 118.619 27.3265 118.939 27.7742C119.24 28.1983 119.445 28.6796 119.539 29.1859C119.608 29.6774 119.57 30.1774 119.427 30.6539C119.284 31.1304 119.04 31.5728 118.709 31.9529C118.444 32.235 118.139 32.4791 117.802 32.6776C117.471 32.8642 117.123 33.0217 116.762 33.1482L115.748 33.5246C115.442 33.6376 115.148 33.7778 114.869 33.9434C114.618 34.0843 114.413 34.2917 114.279 34.5411C114.212 34.6563 114.114 34.7522 113.996 34.8187C113.939 34.8488 113.876 34.8669 113.811 34.8718C113.747 34.8766 113.681 34.8682 113.62 34.8469L112.249 34.3764C112.119 34.3294 112.011 34.2371 111.947 34.1175C111.916 34.0594 111.899 33.9948 111.899 33.9293C111.899 33.8638 111.916 33.7993 111.947 33.7411C112.112 33.335 112.361 32.9653 112.679 32.6541C112.971 32.3773 113.299 32.1385 113.654 31.9435C113.995 31.759 114.351 31.6016 114.718 31.4729C115.079 31.3459 115.416 31.2235 115.733 31.1012C116.019 30.9961 116.293 30.8603 116.548 30.6965C116.773 30.5553 116.944 30.3471 117.036 30.1036C117.113 29.8914 117.136 29.6645 117.104 29.4419C117.072 29.2193 116.985 29.0073 116.85 28.8236C116.513 28.3706 116.029 28.0393 115.474 27.8824C114.989 27.7111 114.461 27.6878 113.962 27.8158C113.463 27.9438 113.016 28.2167 112.684 28.5977C112.6 28.6882 112.501 28.7645 112.391 28.8236C112.273 28.8694 112.142 28.8694 112.025 28.8236L110.561 28.353C110.508 28.3367 110.46 28.3103 110.418 28.2756C110.376 28.2408 110.342 28.1984 110.317 28.1507C110.293 28.1014 110.28 28.0476 110.28 27.993C110.28 27.9385 110.293 27.8846 110.317 27.8354C110.49 27.4138 110.764 27.0379 111.117 26.7389C111.533 26.3877 112.01 26.1119 112.527 25.9249C113.093 25.7169 113.689 25.5977 114.294 25.5719C114.939 25.5442 115.583 25.6369 116.192 25.8449ZM113.332 35.9575C113.461 36.0016 113.566 36.093 113.625 36.2116C113.657 36.27 113.675 36.334 113.679 36.3997C113.683 36.4653 113.673 36.5311 113.65 36.5928L113.093 38.1221C113.072 38.1843 113.038 38.2415 112.992 38.2901C112.947 38.3387 112.892 38.3777 112.83 38.4045C112.706 38.4616 112.565 38.47 112.435 38.428L110.888 37.901C110.824 37.8811 110.765 37.8487 110.715 37.8058C110.664 37.7628 110.624 37.7103 110.595 37.6516C110.564 37.5932 110.545 37.5291 110.541 37.4635C110.537 37.3978 110.547 37.332 110.571 37.2704L111.117 35.7269C111.138 35.6648 111.173 35.6076 111.218 35.559C111.264 35.5103 111.319 35.4714 111.381 35.4446C111.441 35.4149 111.506 35.3975 111.573 35.3934C111.641 35.3894 111.708 35.3988 111.771 35.421L113.332 35.9575Z" fill="black"/>
</g>
<path d="M134.186 27.7272C134.266 27.7327 134.344 27.7539 134.416 27.7895C134.487 27.8251 134.55 27.8743 134.601 27.9342C134.655 27.9919 134.695 28.0598 134.721 28.1335C134.746 28.2072 134.755 28.2852 134.747 28.3624L134.596 30.273C134.592 30.3506 134.571 30.4265 134.534 30.4955C134.497 30.5645 134.445 30.6251 134.381 30.673C134.322 30.7249 134.253 30.7646 134.177 30.7897C134.102 30.8148 134.022 30.8247 133.942 30.8188L131.99 30.673C131.829 30.6609 131.68 30.5878 131.575 30.4696C131.47 30.3514 131.417 30.1977 131.429 30.0424L131.581 28.1272C131.586 28.0499 131.608 27.9746 131.645 27.9058C131.682 27.837 131.733 27.7762 131.795 27.7272C131.855 27.6758 131.924 27.6368 132 27.6125C132.075 27.5883 132.155 27.5792 132.234 27.586L134.186 27.7272ZM134.259 15.3087C134.957 15.3571 135.644 15.5029 136.299 15.7416C136.927 15.9631 137.508 16.2915 138.016 16.711C138.502 17.1136 138.891 17.6129 139.158 18.1745C139.439 18.7744 139.551 19.4347 139.485 20.0897C139.456 20.6078 139.32 21.115 139.085 21.5815C138.871 21.984 138.597 22.3535 138.27 22.6779C137.955 22.9963 137.61 23.2861 137.24 23.5438L136.191 24.2779C135.878 24.4965 135.586 24.7422 135.318 25.012C135.077 25.2504 134.908 25.5483 134.83 25.8731C134.79 26.0239 134.709 26.1618 134.596 26.2731C134.543 26.327 134.477 26.3679 134.404 26.3924C134.331 26.417 134.253 26.4245 134.176 26.4143L132.464 26.2872C132.299 26.2763 132.145 26.2037 132.034 26.0849C131.976 26.0301 131.934 25.9622 131.91 25.8874C131.886 25.8127 131.882 25.7333 131.898 25.6566C131.956 25.142 132.122 24.6442 132.386 24.1932C132.626 23.7927 132.921 23.4255 133.264 23.1014C133.594 22.7878 133.951 22.5028 134.332 22.2497C134.703 22.0003 135.055 21.7791 135.372 21.525C135.666 21.3188 135.936 21.0821 136.177 20.8191C136.385 20.5921 136.511 20.3067 136.538 20.005C136.562 19.7393 136.519 19.4718 136.411 19.2259C136.304 18.9799 136.137 18.7628 135.923 18.5933C135.394 18.1724 134.735 17.9325 134.049 17.911C132.771 17.8169 131.781 18.3816 131.083 19.5533C131.016 19.6813 130.927 19.7975 130.819 19.8968C130.693 19.977 130.54 20.0089 130.39 19.9862L128.565 19.8498C128.501 19.8471 128.437 19.8319 128.378 19.8053C128.32 19.7786 128.267 19.7409 128.224 19.6945C128.18 19.6458 128.147 19.5889 128.127 19.5274C128.107 19.4659 128.1 19.401 128.107 19.3368C128.177 18.7901 128.384 18.2683 128.712 17.8169C129.078 17.2949 129.538 16.8394 130.068 16.471C130.648 16.061 131.292 15.7432 131.976 15.5299C132.714 15.3115 133.49 15.2347 134.259 15.304V15.3087Z" fill="#498AEC"/>
<g opacity="0.3">
<path d="M134.186 27.7272C134.266 27.7327 134.344 27.7539 134.416 27.7895C134.487 27.8251 134.55 27.8743 134.601 27.9342C134.655 27.9919 134.695 28.0598 134.721 28.1335C134.746 28.2072 134.755 28.2852 134.747 28.3624L134.596 30.273C134.592 30.3506 134.571 30.4265 134.534 30.4955C134.497 30.5645 134.445 30.6251 134.381 30.673C134.322 30.7249 134.253 30.7646 134.177 30.7897C134.102 30.8148 134.022 30.8247 133.942 30.8188L131.99 30.673C131.829 30.6609 131.68 30.5878 131.575 30.4696C131.47 30.3514 131.417 30.1977 131.429 30.0424L131.581 28.1272C131.586 28.0499 131.608 27.9746 131.645 27.9058C131.682 27.837 131.733 27.7762 131.795 27.7272C131.855 27.6758 131.924 27.6368 132 27.6125C132.075 27.5883 132.155 27.5792 132.234 27.586L134.186 27.7272ZM134.259 15.3087C134.957 15.3571 135.644 15.5029 136.299 15.7416C136.927 15.9631 137.508 16.2915 138.016 16.711C138.502 17.1136 138.891 17.6129 139.158 18.1745C139.439 18.7744 139.551 19.4347 139.485 20.0897C139.456 20.6078 139.32 21.115 139.085 21.5815C138.871 21.984 138.597 22.3535 138.27 22.6779C137.955 22.9963 137.61 23.2861 137.24 23.5438L136.191 24.2779C135.878 24.4965 135.586 24.7422 135.318 25.012C135.077 25.2504 134.908 25.5483 134.83 25.8731C134.79 26.0239 134.709 26.1618 134.596 26.2731C134.543 26.327 134.477 26.3679 134.404 26.3924C134.331 26.417 134.253 26.4245 134.176 26.4143L132.464 26.2872C132.299 26.2763 132.145 26.2037 132.034 26.0849C131.976 26.0301 131.934 25.9622 131.91 25.8874C131.886 25.8127 131.882 25.7333 131.898 25.6566C131.956 25.142 132.122 24.6442 132.386 24.1932C132.626 23.7927 132.921 23.4255 133.264 23.1014C133.594 22.7878 133.951 22.5028 134.332 22.2497C134.703 22.0003 135.055 21.7791 135.372 21.525C135.666 21.3188 135.936 21.0821 136.177 20.8191C136.385 20.5921 136.511 20.3067 136.538 20.005C136.562 19.7393 136.519 19.4718 136.411 19.2259C136.304 18.9799 136.137 18.7628 135.923 18.5933C135.394 18.1724 134.735 17.9325 134.049 17.911C132.771 17.8169 131.781 18.3816 131.083 19.5533C131.016 19.6813 130.927 19.7975 130.819 19.8968C130.693 19.977 130.54 20.0089 130.39 19.9862L128.565 19.8498C128.501 19.8471 128.437 19.8319 128.378 19.8053C128.32 19.7786 128.267 19.7409 128.224 19.6945C128.18 19.6458 128.147 19.5889 128.127 19.5274C128.107 19.4659 128.1 19.401 128.107 19.3368C128.177 18.7901 128.384 18.2683 128.712 17.8169C129.078 17.2949 129.538 16.8394 130.068 16.471C130.648 16.061 131.292 15.7432 131.976 15.5299C132.714 15.3115 133.49 15.2347 134.259 15.304V15.3087Z" fill="white"/>
</g>
<path d="M136.977 112.722C137.253 114.315 137.019 115.952 136.306 117.413C135.593 118.874 134.435 120.091 132.986 120.901L86.2337 144.43L86.0971 147.032L83.9405 148.194L86.6875 149.719L138.407 120.849L136.977 112.722Z" fill="#498AEC"/>
<path d="M89.0588 50.1499L77.1049 56.8038L128.082 87.8899C129.695 88.875 131.073 90.1765 132.129 91.7097C133.185 93.2429 133.894 94.9734 134.211 96.7885L141.637 143.149C141.659 143.277 141.713 143.398 141.794 143.501C141.875 143.604 141.98 143.686 142.102 143.741C142.223 143.796 142.357 143.822 142.491 143.817C142.625 143.811 142.755 143.774 142.871 143.709C143.149 143.559 143.31 143.239 143.213 142.133L138.968 92.8686C138.729 90.0875 136.889 86.7512 133.952 84.5206L89.0588 50.1499Z" fill="#498AEC"/>
<path opacity="0.1" d="M89.0588 50.1499L77.1049 56.8038L128.082 87.8899C129.695 88.875 131.073 90.1765 132.129 91.7097C133.185 93.2429 133.894 94.9734 134.211 96.7885L141.637 143.149C141.659 143.277 141.713 143.398 141.794 143.501C141.875 143.604 141.98 143.686 142.102 143.741C142.223 143.796 142.357 143.822 142.491 143.817C142.625 143.811 142.755 143.774 142.871 143.709C143.149 143.559 143.31 143.239 143.213 142.133L138.968 92.8686C138.729 90.0875 136.889 86.7512 133.952 84.5206L89.0588 50.1499Z" fill="black"/>
<path d="M137.465 115.532C137.734 117.09 137.505 118.69 136.807 120.119C136.11 121.548 134.978 122.738 133.562 123.531L89.9175 147.855L92.2449 152.5L134.401 129.023C134.956 128.716 135.581 128.544 136.22 128.52C136.86 128.497 137.496 128.624 138.074 128.889C138.652 129.155 139.154 129.551 139.539 130.045C139.923 130.539 140.177 131.115 140.28 131.724L137.465 115.532Z" fill="#498AEC"/>
<path opacity="0.1" d="M137.465 115.532C137.734 117.09 137.505 118.69 136.807 120.119C136.11 121.548 134.978 122.738 133.562 123.531L89.9175 147.855L92.2449 152.5L134.401 129.023C134.956 128.716 135.581 128.544 136.22 128.52C136.86 128.497 137.496 128.624 138.074 128.889C138.652 129.155 139.154 129.551 139.539 130.045C139.923 130.539 140.177 131.115 140.28 131.724L137.465 115.532Z" fill="black"/>
<path d="M83.194 147.879L82.6036 144.491L38.5251 119.96L43.8922 116.981L41.2184 115.494L39.218 116.609C38.489 117.022 37.6431 117.201 36.8018 117.121C35.9605 117.041 35.1673 116.706 34.536 116.164C33.9048 115.621 33.4682 114.9 33.289 114.103C33.1098 113.306 33.1972 112.475 33.5386 111.729L33.724 111.315L33.4313 111.965L29.4401 120.835L32.9092 123.07L35.8367 121.437L83.194 147.879Z" fill="#498AEC"/>
<path d="M83.7649 145.135L38.7008 120.021C37.8699 119.499 37.1786 118.795 36.6834 117.967C36.1882 117.139 35.9031 116.209 35.8514 115.254V112.694C35.9039 111.741 36.1893 110.813 36.6845 109.986C37.1797 109.159 37.8706 108.457 38.7008 107.937L83.7649 82.8408C84.6472 82.4092 85.6225 82.1843 86.6118 82.1843C87.6011 82.1843 88.5765 82.4092 89.4588 82.8408L134.538 107.946C135.366 108.467 136.056 109.17 136.55 109.996C137.044 110.823 137.329 111.751 137.382 112.703V115.296C137.329 116.249 137.043 117.176 136.549 118.003C136.055 118.829 135.366 119.532 134.538 120.054L89.4686 145.135C88.585 145.569 87.6079 145.794 86.6167 145.794C85.6256 145.794 84.6484 145.569 83.7649 145.135Z" fill="#455A64"/>
<path d="M84.5992 145.484C84.3096 145.393 84.0302 145.275 83.7649 145.131L38.7008 120.021C37.8713 119.498 37.1814 118.794 36.6872 117.966C36.1929 117.137 35.9082 116.208 35.8563 115.254V112.689C35.907 111.844 36.1382 111.017 36.5353 110.262C36.9324 109.507 37.4869 108.838 38.1641 108.299C37.1541 109.174 37.3347 110.341 38.7008 111.122L83.5502 136.1L84.5992 145.484Z" fill="#263238"/>
<path d="M137.372 112.699V115.296C137.321 116.249 137.038 117.176 136.546 118.003C136.053 118.829 135.365 119.532 134.538 120.054L89.4735 145.135C88.7243 145.501 87.9072 145.72 87.0696 145.779C86.232 145.838 85.3907 145.736 84.5943 145.479L83.5453 136.068L83.76 136.185C84.6416 136.619 85.6172 136.845 86.607 136.845C87.5967 136.845 88.5723 136.619 89.454 136.185L134.538 111.113C135.913 110.355 136.089 109.179 135.074 108.29C135.753 108.831 136.307 109.503 136.703 110.262C137.098 111.021 137.326 111.851 137.372 112.699Z" fill="#37474F"/>
<path d="M99.7979 91.7722L54.7289 116.868C53.7053 117.391 52.5446 117.612 51.3916 117.503C51.2208 117.503 51.0549 117.475 50.9037 117.451H50.8012L50.5036 117.4H50.4646C50.3143 117.371 50.166 117.333 50.0205 117.287C49.6794 117.195 49.3516 117.062 49.0447 116.891L46.7125 115.579C44.99 114.491 43.7672 112.806 43.297 110.873L36.4662 73.9798C36.4269 73.7528 36.4074 73.523 36.4077 73.2928C36.4077 73.2034 36.4077 73.114 36.4077 73.0246C36.4464 72.5626 36.5515 72.1081 36.7199 71.674C37.0199 70.8728 37.5311 70.1609 38.2032 69.6082L38.3984 69.467C38.4955 69.3989 38.5965 69.336 38.7009 69.2788L83.7649 44.1831C84.6483 43.7551 85.6233 43.5322 86.6119 43.5322C87.6005 43.5322 88.5755 43.7551 89.4589 44.1831L91.7765 45.4772C92.2831 45.7714 92.7446 46.1325 93.1475 46.5501L93.3769 46.7948C93.6835 47.1331 93.9609 47.4951 94.2063 47.8771C94.2645 47.9558 94.3183 48.0375 94.3673 48.1218L94.4942 48.3429L94.6698 48.6676C94.7235 48.7759 94.7772 48.8841 94.8211 48.9923C94.865 49.1006 94.8992 49.1759 94.9333 49.2653C94.9554 49.3075 94.9734 49.3516 94.987 49.397C95.0163 49.477 95.0407 49.557 95.0651 49.637C95.0895 49.717 95.1285 49.8488 95.1529 49.9523C95.1749 50.0282 95.1928 50.1052 95.2066 50.1829L102.062 87.0853C102.185 87.9932 102.037 88.9161 101.636 89.7461C101.235 90.576 100.598 91.2788 99.7979 91.7722Z" fill="#455A64"/>
<path d="M44.4486 78.4363L51.2794 115.334C51.5966 117.056 53.1335 117.748 54.6948 116.868L99.7589 91.7771C100.562 91.282 101.202 90.5763 101.604 89.7428C102.006 88.9093 102.153 87.9826 102.028 87.0713L95.1724 50.1783C94.8553 48.4513 93.3184 47.7643 91.757 48.6395L46.7125 73.7305C45.9099 74.2258 45.2706 74.9317 44.8696 75.7653C44.4685 76.5988 44.3225 77.5254 44.4486 78.4363Z" fill="#37474F"/>
<path d="M53.5677 117.315C52.8574 117.489 52.1227 117.553 51.3916 117.503C51.2208 117.503 51.0549 117.475 50.9037 117.452C50.7524 117.428 50.6402 117.414 50.5036 117.386H50.4646C50.3143 117.357 50.166 117.319 50.0205 117.273C49.6794 117.181 49.3516 117.048 49.0447 116.877L46.7125 115.579C44.99 114.491 43.7672 112.806 43.297 110.873L36.4662 73.9799C36.4269 73.7528 36.4074 73.523 36.4077 73.2928C36.4077 73.2034 36.4077 73.114 36.4077 73.0246C36.4464 72.5627 36.5515 72.1081 36.7199 71.6741L44.7608 76.0786C44.4419 76.8224 44.3422 77.6366 44.4729 78.4315L51.3038 115.329C51.538 116.614 52.4504 117.329 53.5579 117.24C53.5581 117.265 53.5614 117.29 53.5677 117.315Z" fill="#263238"/>
<path d="M123.14 140.124C123.14 140.124 117.973 150.825 117.524 155.121C117.036 159.596 115.855 161.027 116.397 165.944C116.519 167.017 116.987 169.172 117.09 170.043C117.182 170.819 116.85 171.422 115.816 171.577C113.777 171.888 110.605 168.076 109.21 164.02C107.814 159.963 106.004 150.886 105.916 149.803C105.893 148.717 106.168 147.644 106.712 146.693C106.995 146.134 107.333 145.603 107.722 145.107C108.488 143.187 108.995 139.488 109.673 136.947L123.14 140.124Z" fill="#F28F8F"/>
<path d="M101.764 153.709C101.475 154.153 101.267 154.642 101.149 155.154C101.057 156.048 103.003 159.093 103.774 160.203C104.545 161.314 105.277 162.697 105.033 165.379C104.765 168.241 105.941 171.059 107.741 173.511C109.542 175.963 112.737 178.687 117.568 180.386C122.398 182.085 124.238 179.784 124.238 179.784C124.238 179.784 125.872 177.572 125.009 176.598C124.145 175.624 101.764 153.709 101.764 153.709Z" fill="#263238"/>
<path d="M107.702 145.107C107.556 145.107 107.292 145.046 106.887 145.474C106.731 145.634 105.731 147.719 104.936 148.801C104.14 149.884 102.086 151.907 101.745 153.709C102.72 157.267 105.989 159.86 106.336 163.191C106.682 166.523 106.546 170.368 111.615 174.659C116.685 178.951 122.081 179.629 124.081 178.645C126.082 177.662 126.009 175.643 123.486 171.685C120.807 167.483 119.305 158.575 119.305 158.57C119.022 157.017 119.466 154.443 117.929 153.422C117.16 152.993 116.302 152.732 115.416 152.66C114.44 152.509 113.323 152.378 112.489 152.891C111.774 153.402 111.294 154.161 111.152 155.008C111.017 155.848 110.825 156.678 110.576 157.493C110.473 157.747 110.303 158.025 110.02 158.053C109.6 158.09 109.4 157.582 109.341 157.168C109.016 155.032 108.701 152.894 108.395 150.754C108.239 149.714 108.083 148.67 107.931 147.63C107.809 146.825 107.478 145.893 107.702 145.107Z" fill="#37474F"/>
<path d="M129.844 155.102C129.844 155.102 132.971 167.657 135.767 172.419C138.563 177.182 139.983 179.478 143.608 182.974C144.393 183.732 146.165 185.13 146.809 185.746C147.384 186.292 147.521 186.965 146.809 187.713C145.423 189.186 139.139 189.948 135.416 187.638C131.693 185.327 128.068 180.108 125.804 178.193C124.955 177.473 124.155 176.734 123.364 175.944C122.574 175.153 122.754 174.4 122.627 173.502C122.564 173.064 122.54 171.864 122.54 171.864C121.896 169.761 120.339 166.495 119.49 164.457L129.844 155.102Z" fill="#FFA8A7"/>
<path d="M122.032 181.553C122.033 182.077 122.125 182.598 122.305 183.092C122.72 183.892 126.053 185.473 127.316 186.024C128.58 186.574 129.966 187.365 131.22 189.755C132.576 192.311 135.123 194.099 137.997 195.252C140.871 196.405 145.096 197.087 150.112 196.033C155.128 194.979 155.43 192.099 155.43 192.099C155.43 192.099 155.596 189.388 154.323 189.007C153.049 188.626 122.032 181.553 122.032 181.553Z" fill="#263238"/>
<path d="M122.34 171.215C122.208 171.28 121.954 171.37 121.852 171.939C121.813 172.156 122.115 174.433 122.037 175.756C121.949 177.167 121.334 179.85 122.037 181.553C124.808 184.071 129.024 184.584 131.151 187.228C133.279 189.873 135.289 193.195 141.949 194.23C148.609 195.266 153.552 193.068 154.703 191.209C155.855 189.351 154.679 187.68 150.356 185.624C145.774 183.435 139.592 176.683 139.587 176.659C138.737 175.7 137.952 174.689 137.236 173.633C136.792 172.993 136.801 172.344 135.772 172.283C135.285 172.282 134.802 172.375 134.352 172.556C133.43 172.866 132.522 173.219 131.639 173.615C131.179 173.765 130.791 174.073 130.551 174.48C130.421 174.953 130.477 175.456 130.707 175.892C131.309 177.461 131.911 179.029 132.513 180.598C130.483 179.657 129.156 177.774 127.799 176.029C127.049 175.005 126.152 174.09 125.135 173.309C124.653 172.953 124.123 172.661 123.559 172.443C123.354 172.367 122.813 172.325 122.666 172.179C122.598 172.109 122.554 171.789 122.496 171.765C122.434 171.584 122.382 171.401 122.34 171.215Z" fill="#37474F"/>
<path d="M96.968 90.8358C102.652 94.2804 122.242 103.457 130.385 109.748C132.737 111.565 133.874 114.421 132.776 119.894C131.254 127.475 125.457 143.7 125.457 143.7C124.854 145.148 124.378 146.642 124.033 148.166L94.0405 118.491L96.968 90.8358Z" fill="#498AEC"/>
<path opacity="0.4" d="M96.968 90.8358C102.652 94.2804 122.242 103.457 130.385 109.748C132.737 111.565 133.874 114.421 132.776 119.894C131.254 127.475 125.457 143.7 125.457 143.7C124.854 145.148 124.378 146.642 124.033 148.166L94.0405 118.491L96.968 90.8358Z" fill="white"/>
<path opacity="0.3" d="M123.14 125.851C122.325 122.891 120.271 121.301 118.446 120.101C111.171 115.32 100.881 108.383 99.0365 107.038C99.8318 105.155 101.154 101.838 99.705 98.6144C99.705 98.6144 99.1585 105.673 95.1283 108.581L95.0844 108.652C96.109 109.983 116.372 136.35 125.15 144.415C125.247 144.166 125.35 143.945 125.452 143.719C125.452 143.719 125.833 142.651 126.428 140.943C125.648 136.533 124.364 130.312 123.14 125.851Z" fill="black"/>
<path d="M97.2996 90.0171L57.3879 98.958C58.5345 105.221 59.1005 107.899 61.3254 111.325C63.5503 114.75 67.3219 118.383 80.2225 124.218C89.9418 128.609 101.984 133.413 104.413 134.326C106.243 135.018 106.692 138.42 107.936 142.759C109.327 147.611 111.674 151.013 113.791 155.018C116.885 160.862 119.202 165.676 119.202 165.676C119.202 165.676 127.668 165.714 132.151 161.323C123.667 131.399 123.037 129.249 122.803 128.515C121.783 125.282 121.744 124.402 117.246 121.084C113.386 118.237 96.3042 107.527 96.3042 107.527C96.3042 107.527 102.12 98.7368 97.2996 90.0171Z" fill="#498AEC"/>
<path opacity="0.4" d="M97.2996 90.0171L57.3879 98.958C58.5345 105.221 59.1005 107.899 61.3254 111.325C63.5503 114.75 67.3219 118.383 80.2225 124.218C89.9418 128.609 101.984 133.413 104.413 134.326C106.243 135.018 106.692 138.42 107.936 142.759C109.327 147.611 111.674 151.013 113.791 155.018C116.885 160.862 119.202 165.676 119.202 165.676C119.202 165.676 127.668 165.714 132.151 161.323C123.667 131.399 123.037 129.249 122.803 128.515C121.783 125.282 121.744 124.402 117.246 121.084C113.386 118.237 96.3042 107.527 96.3042 107.527C96.3042 107.527 102.12 98.7368 97.2996 90.0171Z" fill="white"/>
<path d="M89.0001 49.9572C96.3189 50.0089 99.705 54.3429 101.896 60.5545C104.087 66.7661 105.238 69.886 106.98 74.7423C108.824 79.881 98.9341 86.1772 96.275 84.7326L90.8201 71.1659C90.3224 66.5496 89.0001 49.9572 89.0001 49.9572Z" fill="#FFA8A7"/>
<path d="M88.6342 48.2349C92.6692 48.4231 95.8358 49.7031 97.3093 51.0112C98.7828 52.3194 99.8221 52.7147 103.052 62.1497C105.384 68.9589 105.78 70.5212 105.78 70.5212C105.78 70.5212 100.808 76.5775 91.2201 75.8481L89.571 72.0836L88.6342 48.2349Z" fill="#263238"/>
<path d="M74.6993 47.2984L65.2532 50.1501C65.2532 50.1501 57.2855 55.7499 56.4707 62.0132C55.6559 68.2766 55.3973 71.6035 56.295 86.9301C56.783 95.344 59.6178 107.494 59.6178 107.494C59.6178 107.494 68.7564 110.092 83.472 104.986C100.637 99.0333 100.637 92.7041 100.637 92.7041C98.4896 90.9056 97.1454 88.3768 96.8849 85.6455C96.6604 82.9208 96.6068 79.1045 96.9483 70.5353C97.4362 58.2016 96.6897 50.8371 89.5271 48.7289C89.5515 48.7336 79.3296 46.6631 74.6993 47.2984Z" fill="#498AEC"/>
<path opacity="0.3" d="M74.6993 47.2984L65.2532 50.1501C65.2532 50.1501 57.2855 55.7499 56.4707 62.0132C55.6559 68.2766 55.3973 71.6035 56.295 86.9301C56.783 95.344 59.6178 107.494 59.6178 107.494C59.6178 107.494 68.7564 110.092 83.472 104.986C100.637 99.0333 100.637 92.7041 100.637 92.7041C98.4896 90.9056 97.1454 88.3768 96.8849 85.6455C96.6604 82.9208 96.6068 79.1045 96.9483 70.5353C97.4362 58.2016 96.6897 50.8371 89.5271 48.7289C89.5515 48.7336 79.3296 46.6631 74.6993 47.2984Z" fill="black"/>
<path d="M87.9804 14.2498C78.3001 12.3346 70.1421 18.485 68.4637 24.1883C65.8436 32.9881 74.5139 39.7832 75.8849 44.696L99.466 26.8753C99.8075 23.2707 97.6607 16.1651 87.9804 14.2498Z" fill="#263238"/>
<path d="M81.6277 26.6307C78.544 25.9861 77.8121 27.3366 77.6316 29.2565C77.4511 31.1765 77.5975 31.8918 77.1437 33.8823C77.0652 34.3139 76.8994 34.7265 76.6558 35.0964C76.5342 35.2815 76.3712 35.438 76.1787 35.5545C75.9862 35.6709 75.7691 35.7443 75.5433 35.7693C74.9383 35.8116 74.6895 35.454 74.5041 34.9928C74.265 34.3999 74.2357 33.3882 73.1964 32.5364C72.1572 31.6847 69.4004 30.7765 68.1172 33.5811C66.7901 36.4846 69.3029 40.0421 71.3912 40.9456C74.1772 42.155 75.7824 39.4633 75.7824 39.4633L73.5917 50.0183C78.3635 57.3075 89.3416 55.4911 87.1606 52.5406L89.2099 47.7501C89.2099 47.7501 91.7129 48.0748 93.3426 47.6748C95.1918 47.3313 98.3535 46.4372 99.3634 40.2962C99.7391 38.0045 99.7977 31.6612 99.5488 28.1319C99.339 25.139 98.7731 24.1038 98.6413 23.6991C97.3581 22.6591 93.2742 22.6967 91.3226 24.5085C88.2584 22.5509 83.9453 22.7109 81.6277 26.6307Z" fill="#FFA8A7"/>
<path d="M91.6007 41.5902C91.1801 41.1653 90.6326 40.8774 90.0345 40.7667C89.7641 40.7071 89.4871 40.6802 89.2099 40.6867C88.9157 40.6742 88.6241 40.7445 88.3707 40.8891C88.3334 40.9207 88.3056 40.9614 88.2902 41.0069C88.2747 41.0524 88.2722 41.1011 88.2828 41.1479C88.2828 41.2232 88.3511 41.3644 88.4487 41.3691C88.5892 41.3676 88.7294 41.3566 88.8683 41.3361C89.0196 41.3361 89.166 41.3361 89.3172 41.3361C89.562 41.3345 89.8061 41.3614 90.0442 41.4161C90.2811 41.4692 90.5105 41.5498 90.7273 41.6561C90.9538 41.7863 91.1721 41.9293 91.3811 42.0843C91.4036 42.1038 91.4307 42.1177 91.46 42.1248C91.4893 42.1318 91.5199 42.1319 91.5493 42.1249C91.5786 42.118 91.6058 42.1042 91.6283 42.0848C91.6509 42.0655 91.6682 42.0411 91.6787 42.0137C91.7083 41.9432 91.7167 41.8661 91.7029 41.7912C91.6891 41.7162 91.6537 41.6466 91.6007 41.5902Z" fill="#B16668"/>
<path d="M89.2098 47.7502C85.8432 47.4819 84.0379 46.9408 82.579 46.3667C79.8906 45.3079 78.783 45.0349 76.4752 39.4916C76.4752 39.4916 76.7289 44.395 79.8906 46.8984C82.3838 48.9031 88.5267 49.3736 88.5267 49.3736L89.2098 47.7502Z" fill="#F28F8F"/>
<path d="M98.5486 25.4496C97.3044 22.0991 93.5084 19.5627 91.3127 24.5084C88.273 20.3203 83.0182 20.9038 81.8813 26.226C81.218 29.2175 81.3388 32.3212 82.2326 35.2564C82.2326 35.2564 78.8172 33.6517 78.6854 29.0589C78.6854 29.0589 78.1585 32.3906 78.5732 33.7129C78.5732 33.7129 70.1615 32.9411 67.7512 30.4753C67.7512 30.4753 65.7069 21.2991 72.1181 18.9604C72.606 15.0217 78.8123 10.0195 89.4294 12.537C100.046 15.0546 101.627 20.4803 101.627 20.4803C100.604 19.8043 99.4894 19.2675 98.3144 18.8851C100.327 20.7611 101.545 23.2922 101.73 25.986C102.081 30.5412 99.7147 32.8799 99.7147 32.8799C99.7147 32.8799 99.5488 28.1319 98.5486 25.4496Z" fill="#37474F"/>
<path d="M71.9132 19.6003L68.5563 17.1768C68.9072 16.7466 69.4173 16.4641 69.9795 16.3886C70.5416 16.3132 71.1123 16.4506 71.5717 16.7721C71.7915 16.9327 71.9755 17.1346 72.1123 17.3655C72.2492 17.5964 72.3362 17.8517 72.3682 18.1159C72.4001 18.3802 72.3762 18.6479 72.298 18.903C72.2198 19.1581 72.0889 19.3953 71.9132 19.6003Z" fill="#37474F"/>
<path d="M72.3719 19.3604L68.4442 20.7721C68.2605 20.2548 68.2909 19.6891 68.529 19.1929C68.7672 18.6967 69.1947 18.3083 69.7225 18.1087C69.9813 18.0174 70.2566 17.9775 70.5318 17.9915C70.807 18.0054 71.0764 18.0729 71.3239 18.1898C71.5713 18.3067 71.7918 18.4707 71.9719 18.6719C72.152 18.873 72.288 19.1072 72.3719 19.3604Z" fill="#37474F"/>
<path d="M89.6492 21.2895C89.6878 21.2902 89.7255 21.2786 89.7565 21.2566C89.7896 21.2299 89.8106 21.192 89.8151 21.1507C89.8197 21.1095 89.8074 21.0681 89.7809 21.0354C86.1752 16.6826 76.5535 16.2685 72.7965 18.4849C72.7783 18.4957 72.7624 18.5099 72.7498 18.5266C72.7372 18.5433 72.7282 18.5623 72.7232 18.5824C72.7182 18.6025 72.7174 18.6233 72.7208 18.6438C72.7242 18.6642 72.7317 18.6837 72.7429 18.7013C72.7541 18.719 72.7688 18.7343 72.7861 18.7464C72.8035 18.7585 72.8231 18.7673 72.844 18.7721C72.8648 18.7769 72.8864 18.7777 72.9076 18.7744C72.9288 18.7712 72.9491 18.7639 72.9673 18.7531C76.5437 16.6449 86.0777 17.0732 89.5223 21.233C89.5382 21.2505 89.5576 21.2646 89.5795 21.2744C89.6014 21.2841 89.6251 21.2893 89.6492 21.2895Z" fill="#263238"/>
<path d="M88.3269 33.3742C88.3294 33.6178 88.2577 33.8568 88.1205 34.0614C87.9833 34.266 87.7868 34.4271 87.5554 34.5248C87.324 34.6225 87.0679 34.6525 86.819 34.6109C86.5701 34.5693 86.3393 34.4581 86.1555 34.291C85.9716 34.1239 85.8428 33.9084 85.7849 33.6712C85.7271 33.434 85.7429 33.1857 85.8302 32.9571C85.9176 32.7285 86.0727 32.5297 86.2763 32.3855C86.48 32.2413 86.723 32.158 86.9753 32.146C87.1479 32.1403 87.3199 32.1677 87.4814 32.2265C87.6429 32.2853 87.7908 32.3743 87.9164 32.4885C88.0421 32.6027 88.143 32.7398 88.2135 32.8918C88.2839 33.0438 88.3225 33.2077 88.3269 33.3742Z" fill="#263238"/>
<path d="M97.6411 32.7013C97.653 32.8625 97.6317 33.0243 97.5785 33.1774C97.5252 33.3306 97.4411 33.472 97.3308 33.5937C97.2206 33.7153 97.0865 33.8146 96.9363 33.886C96.786 33.9574 96.6226 33.9994 96.4554 34.0095C96.2853 34.0257 96.1136 34.0067 95.9518 33.9537C95.7899 33.9007 95.6417 33.8149 95.517 33.7022C95.3922 33.5895 95.2939 33.4524 95.2286 33.3001C95.1632 33.1478 95.1324 32.9837 95.1381 32.819C95.1233 32.6568 95.1426 32.4934 95.1948 32.3386C95.2471 32.1839 95.3312 32.0408 95.4421 31.9181C95.5531 31.7955 95.6886 31.6956 95.8405 31.6247C95.9924 31.5537 96.1576 31.513 96.3262 31.5051C96.4947 31.4972 96.6633 31.5222 96.8216 31.5786C96.9799 31.6349 97.1248 31.7216 97.2476 31.8333C97.3704 31.945 97.4685 32.0794 97.5361 32.2286C97.6038 32.3778 97.6394 32.5386 97.6411 32.7013Z" fill="#263238"/>
<path d="M91.2787 30.7529L91.8496 39.1997L96.4019 37.3457L91.2787 30.7529Z" fill="#F28F8F"/>
<path d="M83.9452 30.1648L86.4628 27.9296C86.7682 28.2657 86.927 28.7026 86.9061 29.1489C86.8851 29.5953 86.6861 30.0166 86.3506 30.3248C86.184 30.4711 85.9884 30.5833 85.7756 30.6547C85.5628 30.7261 85.3373 30.7552 85.1125 30.7403C84.8877 30.7253 84.6684 30.6666 84.4678 30.5677C84.2672 30.4688 84.0894 30.3317 83.9452 30.1648Z" fill="#263238"/>
<path d="M95.7383 27.4684L98.456 29.5154C98.3266 29.6926 98.1611 29.8424 97.9696 29.9559C97.7782 30.0693 97.5648 30.144 97.3424 30.1752C97.12 30.2065 96.8934 30.1937 96.6764 30.1377C96.4593 30.0817 96.2563 29.9837 96.0798 29.8495C95.7175 29.5703 95.48 29.1677 95.4165 28.7247C95.3529 28.2816 95.4681 27.8319 95.7383 27.4684Z" fill="#263238"/>
<path d="M74.0357 38.8373C75.2018 38.5738 76.0996 39.5949 76.0996 39.5949C76.0996 39.5949 77.012 39.0255 77.5633 39.5949C77.9204 39.9569 78.1683 40.4059 78.2806 40.8937C78.2806 40.8937 79.2271 40.2537 79.8712 40.9831C80.2673 41.4425 80.5568 41.9784 80.7202 42.5548C80.7202 42.5548 81.5643 42.2442 82.2912 43.3077C82.8133 44.0748 83.7892 45.27 85.0333 45.7735C86.1507 46.2441 85.6091 46.9076 84.3844 47.2182C83.1597 47.5288 73.5283 39.3737 73.5283 39.3737L74.0357 38.8373Z" fill="#F28F8F"/>
<path d="M63.4527 81.5938C63.9016 82.0173 73.1867 77.4339 73.86 71.8105C71.396 71.2505 63.0038 76.8221 63.4527 81.5938Z" fill="#263238"/>
<path d="M65.1653 50.71C57.9588 53.284 56.1974 58.8838 56.8707 64.6437C57.3879 68.9259 60.13 73.4481 65.7655 82.3325C71.4009 91.217 76.0703 88.3041 76.0703 88.3041L77.6121 81.7161L69.5078 62.2908C69.5078 62.2908 69.0882 53.764 65.1653 50.71Z" fill="#FFA8A7"/>
<path d="M73.0599 70.7425L71.8743 67.8625C71.8743 67.8625 67.5806 75.6553 69.6055 80.7328L73.0599 70.7425Z" fill="#F28F8F"/>
<path d="M65.2532 50.1499C59.3982 52.1451 57.266 54.4604 56.3634 59.4202C55.7535 62.7754 56.217 65.1848 57.7686 69.8246C59.3738 74.6433 63.5602 81.589 63.5602 81.589C63.6187 78.7938 69.1663 72.4598 73.9626 71.8057C73.9626 71.8057 71.2058 63.7448 70.3812 61.5472C69.5567 59.3496 67.7709 52.7569 65.2532 50.1499Z" fill="#263238"/>
<path d="M84.0137 55.5946C84.8187 53.4393 85.4774 51.5853 85.1993 50.4183C84.8334 48.8418 84.0381 48.5642 84.0381 48.5642C84.3468 48.5171 84.6433 48.4133 84.9114 48.2583C85.0506 48.1788 85.1677 48.0679 85.2527 47.9351C85.3377 47.8023 85.388 47.6516 85.3993 47.496C85.4335 47.0819 84.5309 46.8231 84.1698 46.5878C82.9793 45.8113 82.5792 45.2561 81.7302 44.1973C81.6125 44.0274 81.4601 43.8826 81.2822 43.7717C81.1043 43.6608 80.9047 43.5863 80.6958 43.5526C80.4323 42.7761 80.1494 42.0703 79.6029 41.8114C79.4156 41.7212 79.2111 41.6693 79.002 41.6587C78.793 41.6482 78.584 41.6794 78.388 41.7503C78.2242 41.2193 77.8673 40.7632 77.3829 40.4656C76.9798 40.3132 76.532 40.3132 76.1289 40.4656C75.8624 40.1085 75.5565 39.7803 75.2165 39.4868C74.8889 39.2821 74.5039 39.1795 74.1137 39.1929C73.7236 39.2064 73.3471 39.3353 73.0355 39.5621C72.1914 40.1221 71.8938 40.9738 71.4986 41.835C71.1512 42.5948 70.872 43.382 70.6642 44.1878C70.4548 44.9386 70.2919 45.7007 70.1763 46.4701C70.0915 46.9124 70.1099 47.3673 70.23 47.8019C70.5911 48.743 75.8362 54.0276 75.8362 54.0276C75.3824 57.1286 71.7621 70.54 70.2056 75.1328C68.7418 79.5091 70.108 86.676 72.2597 87.8383C74.4114 89.0006 77.2316 89.203 80.7788 84.1537C84.7016 78.5492 82.023 60.9215 84.0137 55.5946Z" fill="#FFA8A7"/>
<path d="M76.0899 88.3042C77.4512 87.8336 78.9686 86.6713 80.6568 84.309C79.881 84.1443 79.0906 84.022 78.3197 83.9326C77.0023 83.7726 75.8801 83.2079 74.6066 82.8408C74.5784 82.8227 74.5457 82.812 74.5119 82.8098C74.478 82.8076 74.4441 82.8139 74.4136 82.8282C74.3831 82.8424 74.3569 82.8641 74.3377 82.8911C74.3185 82.9181 74.3069 82.9494 74.3041 82.982C74.2102 83.279 74.1865 83.5925 74.2346 83.8994C74.2827 84.2064 74.4015 84.4991 74.5822 84.7561C74.8949 85.1441 75.2765 85.4755 75.7093 85.7349C75.8459 85.8243 76.0801 85.9184 76.5778 86.2054C76.7876 86.3278 76.9535 86.4737 76.9145 86.6478C76.7974 87.1889 74.9286 87.1842 74.5822 87.1842C73.4405 87.1688 72.3082 86.9831 71.2254 86.6337C70.9615 86.5611 70.7076 86.4584 70.4691 86.3278C70.2387 86.1856 70.0301 86.0129 69.8494 85.8149C69.595 85.5647 69.3555 85.3007 69.1322 85.0243C68.6214 84.2911 68.0345 83.6099 67.3806 82.9914C66.9277 82.6093 66.3638 82.3711 65.7656 82.3091V82.342C71.4108 91.1888 76.0899 88.3042 76.0899 88.3042Z" fill="#F28F8F"/>
<path d="M84.1454 48.4561C83.6428 48.5441 83.1273 48.5361 82.628 48.4325C82.2828 48.3959 81.9495 48.2899 81.6494 48.1213C81.3494 47.9527 81.0893 47.7253 80.8861 47.4538C80.8861 47.4538 80.808 45.4303 80.5885 45.595C80.3689 45.7597 80.4275 47.3314 80.4275 47.3314C80.1077 47.1661 79.823 46.9442 79.5882 46.6773C79.1442 46.9455 79.7444 47.4161 80.364 47.7926C80.722 48.0469 81.1024 48.2705 81.5009 48.4608C82.1371 48.6944 82.8109 48.8186 83.4916 48.8278C83.7035 48.8082 83.9173 48.8353 84.1167 48.907C84.3162 48.9788 84.4962 49.0933 84.6431 49.2419C84.4235 48.9455 84.1454 48.4561 84.1454 48.4561Z" fill="#B16668"/>
<path d="M81.0373 43.6185C80.9592 43.6185 80.8812 43.6938 80.808 43.6797C80.1249 43.5714 79.3882 43.7926 78.4074 44.3996C77.5692 45.011 76.8364 45.7463 76.2362 46.5784C76.2362 46.5784 76.3972 45.6372 77.7 44.5079C79.0027 43.3785 80.3103 43.1714 81.0373 43.6185Z" fill="#B16668"/>
<path d="M78.427 41.6188L78.3977 41.8541C76.0362 42.6164 74.8457 44.1693 74.0065 45.3551C74.0065 45.3551 74.0748 44.3105 75.8069 42.8752C76.5537 42.2461 77.4562 41.8134 78.427 41.6188Z" fill="#B16668"/>
<path d="M75.7873 40.0657C75.3628 40.1739 74.7724 40.6868 74.0649 41.4492C73.3218 42.2411 72.7333 43.1562 72.3279 44.1503C72.7866 43.435 74.3723 41.1339 76.285 40.5127C76.0647 40.4324 75.886 40.2719 75.7873 40.0657Z" fill="#B16668"/>
<path d="M74.0358 52.1454C75.3601 53.3299 77.0423 54.0752 78.8369 54.2724C77.8243 54.416 76.7913 54.3421 75.8118 54.0559L74.0358 52.1454Z" fill="#B16668"/>
<path d="M83.0232 73.4482C83.1061 71.3259 83.1256 69.213 83.1305 67.0766C83.1354 64.9402 83.1305 62.8414 83.2037 60.6956C83.2402 59.6314 83.333 58.5696 83.4818 57.5145C83.5559 56.9845 83.6718 56.4606 83.8282 55.9475C83.9795 55.4299 84.1893 54.9405 84.3601 54.437C84.7452 53.4461 85.0152 52.4171 85.1651 51.3688C85.2136 50.8488 85.1351 50.325 84.9358 49.8395C84.7876 49.3482 84.4601 48.9253 84.0136 48.6489C83.993 48.6388 83.9774 48.6213 83.9701 48.6002C83.9628 48.579 83.9644 48.556 83.9746 48.536C83.9876 48.5169 84.0064 48.5022 84.0283 48.4936C84.3575 48.4487 84.6706 48.3277 84.9407 48.1407C85.0662 48.0455 85.1665 47.9229 85.2334 47.783C85.2672 47.7205 85.2877 47.652 85.2936 47.5817C85.2994 47.5114 85.2906 47.4406 85.2676 47.3736C85.0475 47.1431 84.773 46.9671 84.4674 46.8607C84.1532 46.7067 83.8571 46.5206 83.5843 46.3054C83.0333 45.8909 82.5412 45.4084 82.1205 44.8702C81.9058 44.6161 81.696 44.3384 81.4765 44.0984C81.2765 43.8557 80.9856 43.6985 80.6665 43.6608C80.6458 43.6607 80.6257 43.6543 80.609 43.6425C80.5924 43.6306 80.58 43.614 80.5738 43.5949C80.4311 43.0756 80.1877 42.587 79.8566 42.155C79.6756 41.9693 79.4381 41.8441 79.1784 41.7973C78.9154 41.752 78.6448 41.773 78.3928 41.8585C78.3794 41.8629 78.3652 41.8647 78.351 41.8638C78.3368 41.8629 78.323 41.8592 78.3103 41.8531C78.2975 41.847 78.2862 41.8385 78.2769 41.8281C78.2677 41.8177 78.2606 41.8057 78.2562 41.7926C78.1213 41.3496 77.8488 40.9571 77.4755 40.668C77.2768 40.5522 77.0523 40.4838 76.8207 40.4682C76.5891 40.4527 76.357 40.4905 76.1435 40.5786C76.1213 40.5853 76.0976 40.5858 76.0751 40.58C76.0526 40.5741 76.0324 40.5622 76.0167 40.5456C75.729 40.1212 75.3596 39.7538 74.9286 39.4633C74.6987 39.3627 74.4492 39.3106 74.1967 39.3106C73.9443 39.3106 73.6948 39.3627 73.4649 39.4633C72.9769 39.6631 72.5634 40.0011 72.2792 40.4327C72.0046 40.8761 71.768 41.3404 71.5717 41.8209C71.147 42.7712 70.8202 43.7594 70.5959 44.7714C70.4739 45.2749 70.3666 45.7878 70.2885 46.3007C70.243 46.5542 70.2169 46.8106 70.2105 47.0678C70.1869 47.3138 70.2151 47.5619 70.2934 47.7972C70.452 48.0964 70.6451 48.3774 70.8691 48.6348C71.0887 48.903 71.318 49.1712 71.5473 49.4301C72.006 49.9571 72.4793 50.47 72.9574 50.9829C73.9137 52.0025 74.8896 53.0127 75.8849 54.0134C75.8898 54.0204 75.8923 54.0286 75.8923 54.037C75.8923 54.0454 75.8898 54.0535 75.8849 54.0605C75.7288 55.0581 75.4946 56.0416 75.2604 57.0204C75.0262 57.9992 74.7725 58.978 74.5139 59.9521L72.9477 65.8013L74.4407 59.938L75.1531 56.9969C75.3824 56.0181 75.6117 55.0346 75.763 54.0417V54.0934C74.7871 53.0958 73.8113 52.0935 72.8354 51.0724C72.3475 50.5641 71.8596 50.0465 71.4156 49.5242C71.1814 49.2607 70.9521 48.9971 70.7325 48.7242C70.4966 48.4558 70.2936 48.1621 70.1275 47.8489C70.0268 47.5925 69.9884 47.3172 70.0153 47.0442C70.0263 46.7811 70.0524 46.5188 70.0934 46.2584C70.1714 45.7408 70.2739 45.2278 70.3959 44.7149C70.6287 43.6916 70.9636 42.6925 71.3961 41.7315C71.5977 41.244 71.8375 40.7721 72.1133 40.3197C72.4056 39.8567 72.8358 39.4894 73.3478 39.2657C73.6072 39.1507 73.8893 39.0912 74.1748 39.0912C74.4603 39.0912 74.7424 39.1507 75.0018 39.2657C75.2477 39.4005 75.4659 39.5775 75.6459 39.788C75.8302 39.9822 76.0029 40.1865 76.163 40.3997L76.0411 40.3668C76.288 40.2741 76.552 40.2309 76.8169 40.2397C77.0883 40.2446 77.3525 40.3246 77.578 40.4703C77.7942 40.6188 77.9755 40.8096 78.1098 41.0303C78.2495 41.2402 78.361 41.4663 78.4416 41.7032L78.305 41.6373C78.5936 41.5424 78.9026 41.5197 79.2028 41.5715C79.506 41.6286 79.7827 41.7769 79.9932 41.995C80.343 42.4484 80.5981 42.963 80.7446 43.5102L80.6519 43.4396C81.0242 43.4837 81.3648 43.6639 81.6033 43.9432C81.8424 44.2067 82.0376 44.4702 82.2523 44.729C82.6639 45.2569 83.1444 45.7314 83.6819 46.1407C83.9427 46.3479 84.2256 46.5278 84.5259 46.6772C84.6821 46.7478 84.8382 46.8231 85.0139 46.9078C85.1816 46.9928 85.3243 47.1175 85.4286 47.2701C85.4791 47.4502 85.4706 47.641 85.4042 47.8163C85.3378 47.9915 85.2168 48.1427 85.0578 48.2489C84.7673 48.4477 84.4335 48.5797 84.0819 48.6348V48.4748C84.5791 48.7654 84.9448 49.2256 85.1066 49.7642C85.2026 50.0193 85.2744 50.2824 85.3213 50.55C85.3529 50.8205 85.3529 51.0936 85.3213 51.3641C85.1676 52.4243 84.8911 53.4645 84.4967 54.4652C84.3259 54.9687 84.1112 55.4628 83.96 55.9663C83.8053 56.4735 83.6896 56.991 83.6135 57.5145C83.4525 58.5639 83.3793 59.6227 83.3257 60.6815C83.2378 62.8038 83.233 64.9166 83.2037 67.0578C83.1744 69.1989 83.1305 71.3259 83.0232 73.4482Z" fill="#B16668"/>
<path d="M90.0247 94.2051C88.5073 94.7557 86.5751 95.9556 84.5454 96.4874C82.4134 97.0079 80.2143 97.2266 78.0171 97.1368C76.8635 97.122 75.7118 97.0434 74.5675 96.9015C73.3672 96.7462 72.3524 96.1392 71.2692 95.6309C70.186 95.1227 69.0345 94.5251 68.6296 93.4428C68.4149 92.8781 68.4393 92.2334 68.1124 91.7205C67.9123 91.4052 67.6001 91.1746 67.3756 90.8781C67.0561 90.3635 66.8688 89.7827 66.8291 89.1841C66.7305 88.5428 66.5671 87.9124 66.3412 87.3018C65.8574 85.9538 65.2821 84.6381 64.6189 83.3631C64.5881 83.3206 64.5759 83.2683 64.5847 83.2172C64.6107 83.1665 64.6563 83.1277 64.7116 83.109C65.1466 82.9673 65.6135 82.9433 66.0617 83.0395C66.5098 83.1357 66.9221 83.3486 67.2536 83.6548C67.9088 84.274 68.4958 84.9568 69.0053 85.6924C69.2297 85.9654 69.4688 86.2289 69.7225 86.483C69.9046 86.6783 70.113 86.8492 70.3421 86.9912C70.5801 87.123 70.8342 87.2257 71.0984 87.2971C72.1817 87.6454 73.3136 87.8326 74.4553 87.8524C74.8017 87.8524 76.6704 87.8524 76.7924 87.3159C76.8314 87.1371 76.6607 86.9912 76.4509 86.8736C75.9629 86.5959 75.719 86.4971 75.5872 86.403C75.1507 86.1447 74.7671 85.8113 74.4553 85.4195C74.2746 85.1626 74.1558 84.8698 74.1077 84.5629C74.0596 84.2559 74.0833 83.9424 74.1772 83.6454C74.1914 83.5899 74.2239 83.5404 74.2699 83.5043C74.303 83.4904 74.3387 83.4832 74.3748 83.4832C74.4109 83.4832 74.4466 83.4904 74.4797 83.5043C75.7385 83.8713 76.8754 84.4454 78.1927 84.596C79.489 84.7288 80.7686 84.9841 82.0131 85.3583C82.8673 85.6912 83.7386 85.9817 84.6235 86.2289C85.1423 86.3478 85.6807 86.3646 86.2063 86.278C86.732 86.1915 87.2342 86.0035 87.6827 85.7254C89.8393 84.5772 94.5721 80.9161 97.0995 79.1844L106.658 73.7587C106.658 73.7587 107.321 75.641 107.98 77.895C109.244 82.229 109.097 83.0713 107.092 84.916C103.745 88.0029 97.3581 91.5417 90.0247 94.2051Z" fill="#FFA8A7"/>
<path d="M64.6872 83.1232C64.9525 83.0172 65.2368 82.9626 65.524 82.9626C65.8111 82.9626 66.0955 83.0172 66.3608 83.1232C66.8948 83.3292 67.3723 83.6513 67.7562 84.0644C68.1465 84.4738 68.4734 84.9302 68.815 85.3679C68.9809 85.589 69.1712 85.7914 69.3614 85.9984C69.5517 86.2055 69.7274 86.4173 69.9372 86.6008C70.3512 86.9566 70.8567 87.1988 71.4009 87.3019C71.9448 87.4553 72.4991 87.5716 73.0599 87.6502C73.6202 87.7294 74.1869 87.7593 74.7529 87.7396C75.3095 87.7436 75.8631 87.661 76.3923 87.4949C76.6509 87.3913 76.7388 87.2031 76.5094 87.0243C76.2801 86.8455 76.0215 86.7514 75.7776 86.6149C75.5236 86.4802 75.2834 86.3227 75.0603 86.1443C74.8251 85.9771 74.6135 85.7809 74.4309 85.5608C74.2483 85.3341 74.1142 85.0747 74.0363 84.7976C73.9584 84.5206 73.9383 84.2314 73.9771 83.9467C73.9944 83.8018 74.0304 83.6595 74.0845 83.5232C74.1039 83.4772 74.138 83.4382 74.1819 83.412C74.2257 83.3858 74.277 83.3737 74.3284 83.3773C74.4053 83.3852 74.4807 83.4026 74.5529 83.4291C74.8261 83.5138 75.0945 83.6079 75.3628 83.702C75.8995 83.895 76.4314 84.0973 76.973 84.2573C77.5162 84.412 78.0732 84.5175 78.6367 84.5726C79.7695 84.7252 80.8851 84.9788 81.9692 85.3302C80.8773 85.0114 79.7566 84.7924 78.6221 84.6761C78.0512 84.6246 77.4862 84.5238 76.9339 84.375C76.3826 84.215 75.8507 84.0173 75.314 83.8338C75.0457 83.7397 74.7773 83.6503 74.5041 83.575C74.4452 83.55 74.3827 83.5342 74.3187 83.5279C74.2699 83.5279 74.2553 83.5279 74.226 83.5891C74.1831 83.7113 74.1536 83.8374 74.1382 83.9656C74.1039 84.2288 74.1246 84.4961 74.1992 84.7515C74.2738 85.0069 74.4007 85.2453 74.5724 85.4526C74.7497 85.6595 74.9529 85.8445 75.1774 86.0031C75.3993 86.1727 75.6379 86.3209 75.8898 86.4455C76.1457 86.5713 76.3948 86.7095 76.6363 86.8596C76.7052 86.9093 76.7632 86.9717 76.8071 87.0431C76.8319 87.0839 76.8478 87.1292 76.8537 87.1761C76.8596 87.2231 76.8553 87.2707 76.8412 87.3161C76.8119 87.3954 76.7641 87.4672 76.7015 87.5259C76.6389 87.5847 76.5632 87.6288 76.4802 87.6549C75.9236 87.8329 75.3391 87.9157 74.7529 87.8996C74.1784 87.9145 73.6036 87.8798 73.0355 87.796C72.468 87.7084 71.9073 87.5842 71.357 87.4243C71.0778 87.351 70.804 87.2598 70.5373 87.1513C70.268 87.0397 70.023 86.8801 69.8152 86.6808C69.6054 86.4878 69.4298 86.2714 69.2395 86.0643C69.0492 85.8573 68.8638 85.6455 68.6979 85.4196C68.3563 84.9773 68.0343 84.5255 67.6586 84.1161C67.2983 83.6926 66.8406 83.3558 66.3217 83.1326C65.7992 82.9233 65.2123 82.9199 64.6872 83.1232Z" fill="#B16668"/>
<path d="M96.7483 79.434C98.4462 78.1822 101.993 76.9305 104.555 77.5799C103.091 76.0694 98.5975 76.9917 96.7483 77.9658V79.434Z" fill="#F28F8F"/>
<path d="M82.0572 141.178C82.1578 141.769 82.0825 142.376 81.84 142.928C81.5974 143.48 81.1977 143.955 80.687 144.297C80.1763 144.639 79.5756 144.834 78.9545 144.86C78.3335 144.886 77.7175 144.741 77.178 144.444L35.1683 121.051C34.0963 120.456 33.2402 119.557 32.7165 118.476C32.1927 117.395 32.0267 116.184 32.2408 115.009L41.1746 94.6521H35.8075L21.2383 135.051C21.1741 135.239 21.1701 135.442 21.2267 135.632C21.2833 135.822 21.3979 135.992 21.5557 136.119C21.7135 136.246 21.9072 136.324 22.1116 136.343C22.316 136.362 22.5217 136.322 22.7021 136.227C22.8935 136.119 23.0439 135.954 23.1314 135.757L27.108 126.689C27.8451 125.909 28.8369 125.397 29.9182 125.237C30.9995 125.076 32.1051 125.278 33.0508 125.809L79.7542 151.817C81.2053 152.638 82.4533 153.755 83.4114 155.088C84.3695 156.422 85.0146 157.941 85.3018 159.54L82.0572 141.178Z" fill="#498AEC"/>
<path opacity="0.2" d="M82.0572 141.178C82.1578 141.769 82.0825 142.376 81.84 142.928C81.5974 143.48 81.1977 143.955 80.687 144.297C80.1763 144.639 79.5756 144.834 78.9545 144.86C78.3335 144.886 77.7175 144.741 77.178 144.444L35.1683 121.051C34.0963 120.456 33.2402 119.557 32.7165 118.476C32.1927 117.395 32.0267 116.184 32.2408 115.009L41.1746 94.6521H35.8075L21.2383 135.051C21.1741 135.239 21.1701 135.442 21.2267 135.632C21.2833 135.822 21.3979 135.992 21.5557 136.119C21.7135 136.246 21.9072 136.324 22.1116 136.343C22.316 136.362 22.5217 136.322 22.7021 136.227C22.8935 136.119 23.0439 135.954 23.1314 135.757L27.108 126.689C27.8451 125.909 28.8369 125.397 29.9182 125.237C30.9995 125.076 32.1051 125.278 33.0508 125.809L79.7542 151.817C81.2053 152.638 82.4533 153.755 83.4114 155.088C84.3695 156.422 85.0146 157.941 85.3018 159.54L82.0572 141.178Z" fill="white"/>
<path d="M89.9126 147.869C89.6004 148.078 89.2351 148.2 88.8561 148.223C88.4771 148.245 88.0989 148.168 87.7623 147.998C87.4258 147.829 87.1437 147.574 86.9465 147.261C86.7493 146.948 86.6446 146.589 86.6436 146.222L86.4192 143.987L86.4826 144.651L84.4285 124.101C84.2744 122.319 83.7439 120.587 82.8695 119.01C81.9952 117.434 80.7955 116.047 79.3444 114.934L38.1886 83.4056L37.3737 79.0433C35.9536 80.1297 34.8236 81.5281 34.0782 83.1217C33.3329 84.7153 32.9938 86.4578 33.0893 88.2036C33.1849 89.9494 33.7122 91.6478 34.6273 93.1569C35.5424 94.666 36.8187 95.9419 38.3496 96.8781L73.4796 118.285C75.093 119.269 76.4732 120.57 77.5299 122.103C78.5867 123.636 79.2964 125.367 79.6127 127.183L87.6682 173.04C87.6954 173.251 87.8083 173.443 87.9822 173.574C88.0683 173.639 88.1667 173.686 88.2719 173.714C88.3771 173.742 88.487 173.75 88.5953 173.737C88.7035 173.724 88.8081 173.691 88.903 173.639C88.9979 173.587 89.0813 173.517 89.1483 173.434C89.2154 173.351 89.2648 173.256 89.2938 173.155C89.3228 173.053 89.3308 172.947 89.3174 172.843L88.1513 161.182C87.8536 157.719 89.1271 154.232 92.2498 152.495" fill="#498AEC"/>
<path opacity="0.1" d="M89.9126 147.869C89.6004 148.078 89.2351 148.2 88.8561 148.223C88.4771 148.245 88.0989 148.168 87.7623 147.998C87.4258 147.829 87.1437 147.574 86.9465 147.261C86.7493 146.948 86.6446 146.589 86.6436 146.222L86.4192 143.987L86.4826 144.651L84.4285 124.101C84.2744 122.319 83.7439 120.587 82.8695 119.01C81.9952 117.434 80.7955 116.047 79.3444 114.934L38.1886 83.4056L37.3737 79.0433C35.9536 80.1297 34.8236 81.5281 34.0782 83.1217C33.3329 84.7153 32.9938 86.4578 33.0893 88.2036C33.1849 89.9494 33.7122 91.6478 34.6273 93.1569C35.5424 94.666 36.8187 95.9419 38.3496 96.8781L73.4796 118.285C75.093 119.269 76.4732 120.57 77.5299 122.103C78.5867 123.636 79.2964 125.367 79.6127 127.183L87.6682 173.04C87.6954 173.251 87.8083 173.443 87.9822 173.574C88.0683 173.639 88.1667 173.686 88.2719 173.714C88.3771 173.742 88.487 173.75 88.5953 173.737C88.7035 173.724 88.8081 173.691 88.903 173.639C88.9979 173.587 89.0813 173.517 89.1483 173.434C89.2154 173.351 89.2648 173.256 89.2938 173.155C89.3228 173.053 89.3308 172.947 89.3174 172.843L88.1513 161.182C87.8536 157.719 89.1271 154.232 92.2498 152.495" fill="black"/>
</svg>
