<svg width="30" height="30" viewBox="0 0 30 30" fill="none" xmlns="http://www.w3.org/2000/svg">
<rect y="0.000244141" width="30" height="30" rx="5" fill="#FFF3DD"/>
<path fill-rule="evenodd" clip-rule="evenodd" d="M15.9917 7.66699C11.3917 7.66699 7.66667 11.4003 7.66667 16.0003C7.66667 20.6003 11.3917 24.3337 15.9917 24.3337C20.6 24.3337 24.3333 20.6003 24.3333 16.0003C24.3333 11.4003 20.6 7.66699 15.9917 7.66699ZM16 22.667C12.3167 22.667 9.33333 19.6837 9.33333 16.0003C9.33333 12.317 12.3167 9.33366 16 9.33366C19.6833 9.33366 22.6667 12.317 22.6667 16.0003C22.6667 19.6837 19.6833 22.667 16 22.667ZM16.4167 11.8337H15.1667V16.8337L19.5417 19.4587L20.1667 18.4337L16.4167 16.2087V11.8337Z" fill="#E69B19"/>
</svg>
