<svg width="30" height="30" viewBox="0 0 30 30" fill="none" xmlns="http://www.w3.org/2000/svg">
<rect y="0.000244141" width="30" height="30" rx="5" fill="#FAECE7"/>
<g clip-path="url(#clip0_68_3022)">
<path d="M13.3867 6.70312L13.9531 7.26836L14.5039 6.71719L14.4883 6.70312H13.3867ZM15.5078 6.70312L15.4961 6.71523L16.3281 7.5457L16.9922 6.88203L16.8125 6.70312H15.5078ZM12.625 6.93789L12.168 7.39375L12.7227 8.49844L13.4531 7.76719L12.625 6.93789ZM15 7.21367L14.4492 7.76484L15.2773 8.59492L15.8281 8.04414L15 7.21367ZM13.9492 8.26406L13.2188 8.9957L14.3242 9.54883L14.7812 9.09336L13.9492 8.26406ZM12.375 8.84375L11.7422 9.47656L12.2422 9.97656L12.875 9.34062L12.375 8.84375ZM10.418 9.14727L9.14883 10.418L11.4453 12.7148H12.7148V11.4414L10.418 9.14727ZM14.3906 11.1797C14.3359 11.9453 13.9297 12.7305 13.3281 13.3281C12.7305 13.9297 11.9453 14.3359 11.1797 14.3906L11.3164 15.0859C12.2578 14.9961 13.1445 14.5078 13.8281 13.8281C14.5078 13.1445 14.9961 12.2578 15.0859 11.3164L14.3906 11.1797ZM16.2461 11.5508C15.9961 14.043 14.043 15.9922 11.5508 16.2461L11.6875 16.9375C14.4453 16.625 16.625 14.4453 16.9375 11.6875L16.2461 11.5508ZM9.47773 11.7422L8.84414 12.375L9.34141 12.875L9.97656 12.2383L9.47773 11.7422ZM19.2812 12.1562C18.9922 13.6367 18.1797 15.2344 16.9883 16.543C15.7305 17.9297 14.0625 18.9883 12.1602 19.3008L12.2969 19.9922C14.3711 19.6445 16.168 18.4922 17.5117 17.0195C18.7812 15.6172 19.6602 13.9258 19.9727 12.293L19.2812 12.1562ZM7.39805 12.168L6.94258 12.625L7.77188 13.4531L8.50273 12.7227L7.39805 12.168ZM22.9531 12.8906C22.5195 15.043 21.3828 17.1328 19.8164 18.8516L20.4414 19.2109C22.0313 17.4258 23.1953 15.2773 23.6445 13.0273L22.9531 12.8906ZM9 13.2188L8.26836 13.9492L9.09727 14.7812L9.55273 14.3242L9 13.2188ZM6.70312 13.3828V14.4844L6.72109 14.5039L7.27305 13.9531L6.70312 13.3828ZM7.76953 14.4492L7.21836 15L8.04883 15.8281L8.59922 15.2773L7.76953 14.4492ZM6.71953 15.4961L6.70312 15.5117V16.8086L6.88672 16.9922L7.55039 16.3281L6.71953 15.4961ZM23.0625 19.2227L19.2227 23.0625C19.668 23.3164 20.4141 23.5547 21.1562 23.6406C22.0977 23.7422 23.0234 23.5742 23.2969 23.2969C23.5742 23.0234 23.7422 22.0977 23.6406 21.1562C23.5547 20.4141 23.3164 19.668 23.0625 19.2227ZM19.4531 19.4531L20.3242 20.9688L20.9688 20.3242L19.4531 19.4531ZM18.8516 19.8125C17.1328 21.3828 15.043 22.5195 12.8906 22.9531L13.0273 23.6445C15.2773 23.1953 17.4258 22.0313 19.2109 20.4414L18.8516 19.8125ZM24.3359 22.6016C24.2656 23.0742 24.0977 23.4922 23.7969 23.7969C23.4922 24.0977 23.0742 24.2656 22.6016 24.3359V25.0234H25.0234V22.6016H24.3359Z" fill="#C67156"/>
</g>
<defs>
<clipPath id="clip0_68_3022">
<rect width="20" height="20" fill="white" transform="translate(6 6)"/>
</clipPath>
</defs>
</svg>
