<svg width="30" height="30" viewBox="0 0 30 30" fill="none" xmlns="http://www.w3.org/2000/svg">
<rect y="0.000244141" width="30" height="30" rx="5" fill="#E4EDFC"/>
<path d="M19 12.0002C19 13.8568 18.2625 15.6372 16.9497 16.95C15.637 18.2627 13.8565 19.0002 12 19.0002C10.1435 19.0002 8.36301 18.2627 7.05025 16.95C5.7375 15.6372 5 13.8568 5 12.0002C5 10.1437 5.7375 8.36325 7.05025 7.0505C8.36301 5.73774 10.1435 5.00024 12 5.00024C13.8565 5.00024 15.637 5.73774 16.9497 7.0505C18.2625 8.36325 19 10.1437 19 12.0002Z" stroke="#427CD4" stroke-width="1.5" stroke-linecap="round" stroke-linejoin="round"/>
<path d="M11.026 18.6072C10.9356 17.5691 11.0781 16.5239 11.4431 15.5478C11.8081 14.5718 12.3864 13.6895 13.1359 12.9655C13.8853 12.2414 14.787 11.6938 15.775 11.3626C16.7631 11.0315 17.8126 10.9251 18.847 11.0512M21.997 12.2532C22.8375 12.8381 23.5394 13.6001 24.0533 14.4857C24.5672 15.3713 24.8806 16.3589 24.9713 17.3787C25.062 18.3986 24.9279 19.426 24.5785 20.3884C24.229 21.3508 23.6726 22.2248 22.9486 22.9488C22.2246 23.6729 21.3506 24.2292 20.3882 24.5787C19.4257 24.9282 18.3984 25.0623 17.3785 24.9716C16.3586 24.8808 15.3711 24.5674 14.4855 24.0535C13.5999 23.5396 12.8378 22.8377 12.253 21.9972M9.5 5.50024L18.5 14.5002M5.5 9.50024L14.5 18.5002" stroke="#427CD4" stroke-width="1.5" stroke-linecap="round" stroke-linejoin="round"/>
</svg>
