<svg width="11" height="28" viewBox="0 0 11 28" fill="none" xmlns="http://www.w3.org/2000/svg">
<mask id="path-1-outside-1_83_4288" maskUnits="userSpaceOnUse" x="-2" y="-2" width="15" height="32" fill="black">
<rect fill="white" x="-2" y="-2" width="15" height="32"/>
<path d="M0.026 6.302V0.259999H10.552V28H3.788V6.302H0.026Z"/>
</mask>
<path d="M0.026 6.302V0.259999H10.552V28H3.788V6.302H0.026Z" fill="#FFAC1C"/>
<path d="M0.026 6.302H-1.974V8.302H0.026V6.302ZM0.026 0.259999V-1.74H-1.974V0.259999H0.026ZM10.552 0.259999H12.552V-1.74H10.552V0.259999ZM10.552 28V30H12.552V28H10.552ZM3.788 28H1.788V30H3.788V28ZM3.788 6.302H5.788V4.302H3.788V6.302ZM2.026 6.302V0.259999H-1.974V6.302H2.026ZM0.026 2.26H10.552V-1.74H0.026V2.26ZM8.552 0.259999V28H12.552V0.259999H8.552ZM10.552 26H3.788V30H10.552V26ZM5.788 28V6.302H1.788V28H5.788ZM3.788 4.302H0.026V8.302H3.788V4.302Z" fill="#FFE5B9" mask="url(#path-1-outside-1_83_4288)"/>
</svg>
