<svg width="20" height="30" viewBox="0 0 20 30" fill="none" xmlns="http://www.w3.org/2000/svg">
<mask id="path-1-outside-1_83_4301" maskUnits="userSpaceOnUse" x="-2" y="-2" width="24" height="34" fill="black">
<rect fill="white" x="-2" y="-2" width="24" height="34"/>
<path d="M0.938 9.088C1.03933 6.37733 1.926 4.28733 3.598 2.818C5.27 1.34867 7.53733 0.613999 10.4 0.613999C12.3 0.613999 13.9213 0.943332 15.264 1.602C16.632 2.26067 17.658 3.16 18.342 4.3C19.0513 5.44 19.406 6.71933 19.406 8.138C19.406 9.81 18.988 11.178 18.152 12.242C17.316 13.2807 16.3407 13.99 15.226 14.37V14.522C16.67 15.0033 17.81 15.8013 18.646 16.916C19.482 18.0307 19.9 19.462 19.9 21.21C19.9 22.7807 19.5327 24.174 18.798 25.39C18.0887 26.5807 17.0373 27.518 15.644 28.202C14.276 28.886 12.642 29.228 10.742 29.228C7.702 29.228 5.27 28.4807 3.446 26.986C1.64733 25.4913 0.697333 23.2367 0.596 20.222H6.904C6.92933 21.3367 7.246 22.2233 7.854 22.882C8.462 23.5153 9.34867 23.832 10.514 23.832C11.502 23.832 12.262 23.5533 12.794 22.996C13.3513 22.4133 13.63 21.6533 13.63 20.716C13.63 19.5 13.2373 18.626 12.452 18.094C11.692 17.5367 10.4633 17.258 8.766 17.258H7.55V11.976H8.766C10.058 11.976 11.0967 11.7607 11.882 11.33C12.6927 10.874 13.098 10.076 13.098 8.936C13.098 8.024 12.8447 7.31467 12.338 6.808C11.8313 6.30133 11.1347 6.048 10.248 6.048C9.28533 6.048 8.56333 6.33933 8.082 6.922C7.626 7.50467 7.36 8.22667 7.284 9.088H0.938Z"/>
</mask>
<path d="M0.938 9.088C1.03933 6.37733 1.926 4.28733 3.598 2.818C5.27 1.34867 7.53733 0.613999 10.4 0.613999C12.3 0.613999 13.9213 0.943332 15.264 1.602C16.632 2.26067 17.658 3.16 18.342 4.3C19.0513 5.44 19.406 6.71933 19.406 8.138C19.406 9.81 18.988 11.178 18.152 12.242C17.316 13.2807 16.3407 13.99 15.226 14.37V14.522C16.67 15.0033 17.81 15.8013 18.646 16.916C19.482 18.0307 19.9 19.462 19.9 21.21C19.9 22.7807 19.5327 24.174 18.798 25.39C18.0887 26.5807 17.0373 27.518 15.644 28.202C14.276 28.886 12.642 29.228 10.742 29.228C7.702 29.228 5.27 28.4807 3.446 26.986C1.64733 25.4913 0.697333 23.2367 0.596 20.222H6.904C6.92933 21.3367 7.246 22.2233 7.854 22.882C8.462 23.5153 9.34867 23.832 10.514 23.832C11.502 23.832 12.262 23.5533 12.794 22.996C13.3513 22.4133 13.63 21.6533 13.63 20.716C13.63 19.5 13.2373 18.626 12.452 18.094C11.692 17.5367 10.4633 17.258 8.766 17.258H7.55V11.976H8.766C10.058 11.976 11.0967 11.7607 11.882 11.33C12.6927 10.874 13.098 10.076 13.098 8.936C13.098 8.024 12.8447 7.31467 12.338 6.808C11.8313 6.30133 11.1347 6.048 10.248 6.048C9.28533 6.048 8.56333 6.33933 8.082 6.922C7.626 7.50467 7.36 8.22667 7.284 9.088H0.938Z" fill="#FFAC1C"/>
<path d="M0.938 9.088L-1.0606 9.01328L-1.13816 11.088H0.938V9.088ZM3.598 2.818L4.91823 4.32033L4.91823 4.32033L3.598 2.818ZM15.264 1.602L14.3832 3.39758L14.3897 3.40082L14.3964 3.404L15.264 1.602ZM18.342 4.3L16.627 5.32899L16.6353 5.34286L16.6439 5.3566L18.342 4.3ZM18.152 12.242L19.71 13.496L19.7174 13.4869L19.7246 13.4776L18.152 12.242ZM15.226 14.37L14.5807 12.477L13.226 12.9388V14.37H15.226ZM15.226 14.522H13.226V15.9635L14.5935 16.4194L15.226 14.522ZM18.646 16.916L20.246 15.716L18.646 16.916ZM18.798 25.39L17.0861 24.3557L17.0798 24.3664L18.798 25.39ZM15.644 28.202L14.7627 26.4067L14.7561 26.4099L14.7496 26.4131L15.644 28.202ZM3.446 26.986L2.16773 28.5243L2.17835 28.533L3.446 26.986ZM0.596 20.222V18.222H-1.47236L-1.40287 20.2892L0.596 20.222ZM6.904 20.222L8.90348 20.1766L8.85906 18.222H6.904V20.222ZM7.854 22.882L6.38439 24.2386L6.39767 24.2529L6.41123 24.2671L7.854 22.882ZM12.794 22.996L11.3487 21.6136L11.3473 21.615L12.794 22.996ZM12.452 18.094L11.2693 19.7068L11.2994 19.7289L11.3303 19.7498L12.452 18.094ZM7.55 17.258H5.55V19.258H7.55V17.258ZM7.55 11.976V9.976H5.55V11.976H7.55ZM11.882 11.33L12.8437 13.0836L12.8531 13.0784L12.8625 13.0732L11.882 11.33ZM12.338 6.808L13.7522 5.39379L13.7522 5.39378L12.338 6.808ZM8.082 6.922L6.54008 5.64824L6.52326 5.66859L6.50699 5.68938L8.082 6.922ZM7.284 9.088V11.088H9.1153L9.27626 9.26379L7.284 9.088ZM2.9366 9.16271C3.02224 6.87196 3.74659 5.34996 4.91823 4.32033L2.27777 1.31567C0.105415 3.22471 -0.943573 5.8827 -1.0606 9.01328L2.9366 9.16271ZM4.91823 4.32033C6.13066 3.25486 7.88057 2.614 10.4 2.614V-1.386C7.1941 -1.386 4.40934 -0.557529 2.27777 1.31567L4.91823 4.32033ZM10.4 2.614C12.0748 2.614 13.3785 2.90474 14.3832 3.39758L16.1449 -0.193579C14.4642 -1.01807 12.5252 -1.386 10.4 -1.386V2.614ZM14.3964 3.404C15.4639 3.91801 16.1714 4.56966 16.627 5.32899L20.057 3.27101C19.1446 1.75034 17.8001 0.603319 16.1316 -0.200004L14.3964 3.404ZM16.6439 5.3566C17.1445 6.16124 17.406 7.0707 17.406 8.138H21.406C21.406 6.36796 20.9581 4.71876 20.0401 3.2434L16.6439 5.3566ZM17.406 8.138C17.406 9.47008 17.0783 10.3713 16.5794 11.0064L19.7246 13.4776C20.8977 11.9847 21.406 10.1499 21.406 8.138H17.406ZM16.594 10.988C15.9633 11.7716 15.2909 12.2348 14.5807 12.477L15.8713 16.263C17.3904 15.7452 18.6687 14.7897 19.71 13.496L16.594 10.988ZM13.226 14.37V14.522H17.226V14.37H13.226ZM14.5935 16.4194C15.689 16.7845 16.4767 17.3569 17.046 18.116L20.246 15.716C19.1433 14.2457 17.651 13.2222 15.8585 12.6246L14.5935 16.4194ZM17.046 18.116C17.5625 18.8047 17.9 19.7831 17.9 21.21H21.9C21.9 19.1409 21.4015 17.2567 20.246 15.716L17.046 18.116ZM17.9 21.21C17.9 22.4557 17.6128 23.4841 17.0862 24.3558L20.5098 26.4242C21.4525 24.8639 21.9 23.1056 21.9 21.21H17.9ZM17.0798 24.3664C16.592 25.1852 15.8513 25.8722 14.7627 26.4067L16.5253 29.9973C18.2234 29.1638 19.5853 27.9761 20.5162 26.4136L17.0798 24.3664ZM14.7496 26.4131C13.7184 26.9287 12.4051 27.228 10.742 27.228V31.228C12.8789 31.228 14.8336 30.8433 16.5384 29.9909L14.7496 26.4131ZM10.742 27.228C8.02844 27.228 6.0876 26.5649 4.71365 25.439L2.17835 28.533C4.4524 30.3964 7.37556 31.228 10.742 31.228V27.228ZM4.72424 25.4478C3.48422 24.4174 2.68294 22.7749 2.59487 20.1548L-1.40287 20.2892C-1.28827 23.6984 -0.189558 26.5653 2.16776 28.5242L4.72424 25.4478ZM0.596 22.222H6.904V18.222H0.596V22.222ZM4.90452 20.2674C4.93812 21.7458 5.37096 23.1407 6.38439 24.2386L9.32361 21.5254C9.12104 21.306 8.92055 20.9275 8.90348 20.1766L4.90452 20.2674ZM6.41123 24.2671C7.50806 25.4096 8.98973 25.832 10.514 25.832V21.832C9.7076 21.832 9.41594 21.6211 9.29678 21.4969L6.41123 24.2671ZM10.514 25.832C11.8858 25.832 13.232 25.4337 14.2407 24.377L11.3473 21.615C11.292 21.673 11.1182 21.832 10.514 21.832V25.832ZM14.2393 24.3784C15.2102 23.3633 15.63 22.0785 15.63 20.716H11.63C11.63 21.2281 11.4924 21.4633 11.3487 21.6136L14.2393 24.3784ZM15.63 20.716C15.63 19.0461 15.0617 17.4461 13.5737 16.4382L11.3303 19.7498C11.413 19.8059 11.63 19.9539 11.63 20.716H15.63ZM13.6347 16.4812C12.3509 15.5397 10.5899 15.258 8.766 15.258V19.258C10.3368 19.258 11.0331 19.5336 11.2693 19.7068L13.6347 16.4812ZM8.766 15.258H7.55V19.258H8.766V15.258ZM9.55 17.258V11.976H5.55V17.258H9.55ZM7.55 13.976H8.766V9.976H7.55V13.976ZM8.766 13.976C10.255 13.976 11.6618 13.7317 12.8437 13.0836L10.9203 9.57638C10.5315 9.78959 9.86102 9.976 8.766 9.976V13.976ZM12.8625 13.0732C14.4542 12.1778 15.098 10.6064 15.098 8.936H11.098C11.098 9.27497 11.0373 9.43159 11.0108 9.48377C10.9944 9.51614 10.9767 9.54454 10.9015 9.58685L12.8625 13.0732ZM15.098 8.936C15.098 7.64548 14.7292 6.37079 13.7522 5.39379L10.9238 8.22221C10.9601 8.25854 11.098 8.40251 11.098 8.936H15.098ZM13.7522 5.39378C12.7856 4.42717 11.5316 4.048 10.248 4.048V8.048C10.7377 8.048 10.8771 8.17549 10.9238 8.22221L13.7522 5.39378ZM10.248 4.048C8.8657 4.048 7.50124 4.48472 6.54008 5.64824L9.62392 8.19576C9.646 8.16904 9.67094 8.14619 9.73289 8.1212C9.80708 8.09126 9.96444 8.048 10.248 8.048V4.048ZM6.50699 5.68938C5.77471 6.62507 5.39588 7.73197 5.29174 8.91221L9.27626 9.26379C9.32412 8.72136 9.47729 8.38426 9.65701 8.15462L6.50699 5.68938ZM7.284 7.088H0.938V11.088H7.284V7.088Z" fill="#FFE5B9" mask="url(#path-1-outside-1_83_4301)"/>
</svg>
