<svg width="20" height="29" viewBox="0 0 20 29" fill="none" xmlns="http://www.w3.org/2000/svg">
<mask id="path-1-outside-1_83_4296" maskUnits="userSpaceOnUse" x="-2" y="-2" width="24" height="33" fill="black">
<rect fill="white" x="-2" y="-2" width="24" height="33"/>
<path d="M0.482 23.794C1.34333 23.11 1.736 22.7933 1.66 22.844C4.14267 20.792 6.09333 19.1073 7.512 17.79C8.956 16.4727 10.172 15.092 11.16 13.648C12.148 12.204 12.642 10.798 12.642 9.43C12.642 8.39133 12.4013 7.58066 11.92 6.998C11.4387 6.41533 10.7167 6.124 9.754 6.124C8.79133 6.124 8.03133 6.49133 7.474 7.226C6.942 7.93533 6.676 8.94867 6.676 10.266H0.406C0.456667 8.11267 0.912667 6.314 1.774 4.87C2.66067 3.426 3.81333 2.362 5.232 1.678C6.676 0.993998 8.272 0.651998 10.02 0.651998C13.0347 0.651998 15.302 1.42466 16.822 2.97C18.3673 4.51533 19.14 6.52933 19.14 9.012C19.14 11.7227 18.2153 14.2433 16.366 16.574C14.5167 18.8793 12.1607 21.134 9.298 23.338H19.558V28.62H0.482V23.794Z"/>
</mask>
<path d="M0.482 23.794C1.34333 23.11 1.736 22.7933 1.66 22.844C4.14267 20.792 6.09333 19.1073 7.512 17.79C8.956 16.4727 10.172 15.092 11.16 13.648C12.148 12.204 12.642 10.798 12.642 9.43C12.642 8.39133 12.4013 7.58066 11.92 6.998C11.4387 6.41533 10.7167 6.124 9.754 6.124C8.79133 6.124 8.03133 6.49133 7.474 7.226C6.942 7.93533 6.676 8.94867 6.676 10.266H0.406C0.456667 8.11267 0.912667 6.314 1.774 4.87C2.66067 3.426 3.81333 2.362 5.232 1.678C6.676 0.993998 8.272 0.651998 10.02 0.651998C13.0347 0.651998 15.302 1.42466 16.822 2.97C18.3673 4.51533 19.14 6.52933 19.14 9.012C19.14 11.7227 18.2153 14.2433 16.366 16.574C14.5167 18.8793 12.1607 21.134 9.298 23.338H19.558V28.62H0.482V23.794Z" fill="#FFAC1C"/>
<path d="M0.482 23.794L-0.761764 22.2278L-1.518 22.8283V23.794H0.482ZM1.66 22.844L0.385831 21.3024L2.7694 24.5081L1.66 22.844ZM7.512 17.79L6.16408 16.3125L6.15756 16.3184L6.1511 16.3244L7.512 17.79ZM11.16 13.648L9.50939 12.5186L11.16 13.648ZM11.92 6.998L10.3781 8.27176L10.3781 8.27176L11.92 6.998ZM7.474 7.226L5.88059 6.01721L5.874 6.026L7.474 7.226ZM6.676 10.266V12.266H8.676V10.266H6.676ZM0.406 10.266L-1.59345 10.219L-1.64161 12.266H0.406V10.266ZM1.774 4.87L0.0696579 3.82347L0.0629389 3.83441L0.056361 3.84544L1.774 4.87ZM5.232 1.678L4.37581 -0.12952L4.3634 -0.123539L5.232 1.678ZM16.822 2.97L15.3961 4.37248L15.4019 4.37837L15.4078 4.38421L16.822 2.97ZM16.366 16.574L17.9261 17.8255L17.9327 17.8171L16.366 16.574ZM9.298 23.338L8.0779 21.7533L3.42188 25.338H9.298V23.338ZM19.558 23.338H21.558V21.338H19.558V23.338ZM19.558 28.62V30.62H21.558V28.62H19.558ZM0.482 28.62H-1.518V30.62H0.482V28.62ZM1.72576 25.3602C2.1569 25.0178 2.47541 24.7637 2.678 24.6003C2.77604 24.5213 2.85896 24.4538 2.91551 24.4063C2.91595 24.4059 3.00167 24.3355 3.08075 24.2564C3.09701 24.2402 3.12572 24.211 3.15964 24.173C3.18182 24.1482 3.26124 24.0592 3.34424 23.932C3.38196 23.8741 3.47337 23.7292 3.54793 23.5249C3.59278 23.4021 3.81356 22.7937 3.51857 22.0773C3.12987 21.1334 2.2709 20.8882 1.8642 20.8483C1.50233 20.8128 1.22361 20.8872 1.14252 20.9093C0.939498 20.9646 0.791646 21.0411 0.764368 21.0549C0.709549 21.0826 0.667198 21.1073 0.645348 21.1202C0.600347 21.1469 0.565417 21.17 0.5506 21.1799L2.7694 24.5081C2.75933 24.5148 2.72824 24.5355 2.68616 24.5604C2.66577 24.5725 2.62465 24.5965 2.57083 24.6237C2.54455 24.637 2.39747 24.7131 2.195 24.7683C2.11418 24.7904 1.83567 24.8647 1.47396 24.8292C1.06742 24.7894 0.208551 24.5442 -0.180108 23.6004C-0.475058 22.8841 -0.254287 22.2759 -0.209509 22.1532C-0.135016 21.9492 -0.043738 21.8045 -0.00620604 21.7469C0.0764211 21.6202 0.155246 21.532 0.176595 21.5081C0.20969 21.4711 0.237337 21.443 0.252318 21.428C0.321106 21.3592 0.381889 21.3106 0.342741 21.3435C0.320123 21.3625 0.26529 21.4074 0.166996 21.4867C-0.0230773 21.64 -0.331568 21.8862 -0.761764 22.2278L1.72576 25.3602ZM2.93417 24.3856C5.42985 22.3228 7.41376 20.6105 8.8729 19.2556L6.1511 16.3244C4.7729 17.6042 2.85548 19.2612 0.385831 21.3024L2.93417 24.3856ZM8.85992 19.2675C10.4048 17.8582 11.726 16.3626 12.8106 14.7774L9.50939 12.5186C8.61798 13.8214 7.50718 15.0872 6.16408 16.3125L8.85992 19.2675ZM12.8106 14.7774C13.9629 13.0932 14.642 11.3002 14.642 9.43H10.642C10.642 10.2958 10.3331 11.3148 9.50939 12.5186L12.8106 14.7774ZM14.642 9.43C14.642 8.09945 14.3335 6.77927 13.4619 5.72423L10.3781 8.27176C10.4692 8.38206 10.642 8.68321 10.642 9.43H14.642ZM13.4619 5.72424C12.5008 4.56072 11.1363 4.124 9.754 4.124V8.124C10.0376 8.124 10.1949 8.16726 10.2691 8.1972C10.3311 8.22219 10.356 8.24504 10.3781 8.27176L13.4619 5.72424ZM9.754 4.124C8.19781 4.124 6.83509 4.75906 5.88062 6.01723L9.06738 8.43477C9.22758 8.2236 9.38486 8.124 9.754 8.124V4.124ZM5.874 6.026C4.98344 7.21342 4.676 8.71646 4.676 10.266H8.676C8.676 9.18088 8.90057 8.65725 9.074 8.426L5.874 6.026ZM6.676 8.266H0.406V12.266H6.676V8.266ZM2.40545 10.313C2.45023 8.40962 2.84985 6.97049 3.49164 5.89455L0.056361 3.84544C-1.02452 5.65751 -1.5369 7.81571 -1.59345 10.219L2.40545 10.313ZM3.47834 5.91652C4.18039 4.77319 5.05345 3.98441 6.1006 3.47954L4.3634 -0.123539C2.57321 0.739588 1.14094 2.07881 0.0696579 3.82347L3.47834 5.91652ZM6.08817 3.48547C7.24018 2.93979 8.53992 2.652 10.02 2.652V-1.348C8.00408 -1.348 6.11182 -0.951789 4.37583 -0.129477L6.08817 3.48547ZM10.02 2.652C12.7122 2.652 14.3794 3.33876 15.3961 4.37248L18.2479 1.56752C16.2246 -0.489426 13.3571 -1.348 10.02 -1.348V2.652ZM15.4078 4.38421C16.5259 5.50237 17.14 6.98124 17.14 9.012H21.14C21.14 6.07742 20.2087 3.52829 18.2362 1.55578L15.4078 4.38421ZM17.14 9.012C17.14 11.2265 16.3972 13.3171 14.7993 15.3308L17.9327 17.8171C20.0335 15.1696 21.14 12.2188 21.14 9.012H17.14ZM14.8059 15.3225C13.0754 17.4798 10.8412 19.6258 8.0779 21.7533L10.5181 24.9227C13.4801 22.6422 15.9579 20.2789 17.9261 17.8255L14.8059 15.3225ZM9.298 25.338H19.558V21.338H9.298V25.338ZM17.558 23.338V28.62H21.558V23.338H17.558ZM19.558 26.62H0.482V30.62H19.558V26.62ZM2.482 28.62V23.794H-1.518V28.62H2.482Z" fill="#FFE5B9" mask="url(#path-1-outside-1_83_4296)"/>
</svg>
