<svg width="249" height="196" viewBox="0 0 249 196" fill="none" xmlns="http://www.w3.org/2000/svg">
<path d="M149.404 15.4554V2.61597C138.819 5.0627 129.103 9.37416 119.573 15.4435L149.404 15.4554Z" fill="#3768B1"/>
<path d="M226.613 20.0815H153.562V104.375H226.613V20.0815Z" fill="#3768B1"/>
<path d="M149.404 20.0815H112.732C104.536 25.7827 96.1233 31.555 86.3052 34.8451C83.0219 35.9497 79.7002 36.9177 76.353 37.8144V104.375H149.404V20.0815Z" fill="#3768B1"/>
<path d="M241.063 33.5683C238.297 28.9501 234.832 24.726 230.772 21.0259V104.375H238.284C249.833 82.8949 253.615 54.7397 241.063 33.5683Z" fill="#3768B1"/>
<path d="M72.2009 38.9014C68.2213 39.9169 64.2098 40.873 60.1982 41.8707C28.7638 49.68 9.27464 75.9408 12.8837 104.375H72.2009V38.9014Z" fill="#3768B1"/>
<path d="M230.772 109.001V115.944C231.696 114.795 232.58 113.608 233.423 112.38C234.177 111.282 234.905 110.147 235.62 108.995L230.772 109.001Z" fill="#3768B1"/>
<path d="M226.613 109.001H153.562V144.55C159.637 144.621 165.661 145.072 171.806 144.449C191.979 142.406 212.65 134.733 226.613 120.587V109.001Z" fill="#3768B1"/>
<path d="M153.562 15.4555H223.79C209.539 5.5854 191.059 0.680065 173.569 0.288114C166.862 0.104088 160.154 0.599921 153.562 1.76684V15.4555Z" fill="#3768B1"/>
<path d="M149.404 109.001H76.353V159.598C89.02 159.8 101.745 156.415 113.754 152.626C123.297 149.621 132.917 146.51 142.997 145.108C145.114 144.821 147.247 144.651 149.385 144.597L149.404 109.001Z" fill="#3768B1"/>
<path d="M72.2009 109.001H13.6759C18.2879 129.786 36.0843 148.737 58.4672 156.54C62.8825 158.073 67.5038 159.034 72.2009 159.396V109.001Z" fill="#3768B1"/>
<g opacity="0.7">
<path d="M149.404 15.4554V2.61597C138.819 5.0627 129.103 9.37416 119.573 15.4435L149.404 15.4554Z" fill="white"/>
<path d="M226.613 20.0815H153.562V104.375H226.613V20.0815Z" fill="white"/>
<path d="M149.404 20.0815H112.732C104.536 25.7827 96.1233 31.555 86.3052 34.8451C83.0219 35.9497 79.7002 36.9177 76.353 37.8144V104.375H149.404V20.0815Z" fill="white"/>
<path d="M241.063 33.5683C238.297 28.9501 234.832 24.726 230.772 21.0259V104.375H238.284C249.833 82.8949 253.615 54.7397 241.063 33.5683Z" fill="white"/>
<path d="M72.2009 38.9014C68.2213 39.9169 64.2098 40.873 60.1982 41.8707C28.7638 49.68 9.27464 75.9408 12.8837 104.375H72.2009V38.9014Z" fill="white"/>
<path d="M230.772 109.001V115.944C231.696 114.795 232.58 113.608 233.423 112.38C234.177 111.282 234.905 110.147 235.62 108.995L230.772 109.001Z" fill="white"/>
<path d="M226.613 109.001H153.562V144.55C159.637 144.621 165.661 145.072 171.806 144.449C191.979 142.406 212.65 134.733 226.613 120.587V109.001Z" fill="white"/>
<path d="M153.562 15.4555H223.79C209.539 5.5854 191.059 0.680065 173.569 0.288114C166.862 0.104088 160.154 0.599921 153.562 1.76684V15.4555Z" fill="white"/>
<path d="M149.404 109.001H76.353V159.598C89.02 159.8 101.745 156.415 113.754 152.626C123.297 149.621 132.917 146.51 142.997 145.108C145.114 144.821 147.247 144.651 149.385 144.597L149.404 109.001Z" fill="white"/>
<path d="M72.2009 109.001H13.6759C18.2879 129.786 36.0843 148.737 58.4672 156.54C62.8825 158.073 67.5038 159.034 72.2009 159.396V109.001Z" fill="white"/>
</g>
<path d="M240.948 123.183H238.239H115.932H113.223V128.219H115.932V179.41H238.239V128.219H240.948V123.183Z" fill="#3768B1"/>
<path opacity="0.5" d="M240.948 123.183H238.239H115.932H113.223V128.219H115.932V179.41H238.239V128.219H240.948V123.183Z" fill="white"/>
<path d="M119.202 149.931H152.566V133.362H119.202V149.931ZM119.879 133.991H151.889V149.301H119.879V133.991Z" fill="white"/>
<path d="M160.634 149.931H193.991V133.362H160.634V149.931ZM161.311 133.991H193.314V149.301H161.311V133.991Z" fill="white"/>
<path d="M202.059 133.362V149.931H235.416V133.362H202.059ZM234.739 149.301H202.736V133.991H234.739V149.301Z" fill="white"/>
<path d="M119.202 172.171H152.566V155.596H119.202V172.171ZM119.879 156.226H151.889V171.542H119.879V156.226Z" fill="white"/>
<path d="M160.634 172.171H193.991V155.596H160.634V172.171ZM161.311 156.226H193.314V171.542H161.311V156.226Z" fill="white"/>
<path d="M202.059 172.171H235.416V155.596H202.059V172.171ZM202.736 156.226H234.739V171.542H202.736V156.226Z" fill="white"/>
<path d="M136.239 143.743C139.23 143.743 141.656 142.897 141.656 141.854C141.656 140.811 139.23 139.966 136.239 139.966C133.247 139.966 130.822 140.811 130.822 141.854C130.822 142.897 133.247 143.743 136.239 143.743Z" fill="white"/>
<path d="M177.466 143.743C180.457 143.743 182.882 142.897 182.882 141.854C182.882 140.811 180.457 139.966 177.466 139.966C174.474 139.966 172.049 140.811 172.049 141.854C172.049 142.897 174.474 143.743 177.466 143.743Z" fill="white"/>
<path d="M219.893 143.743C222.885 143.743 225.31 142.897 225.31 141.854C225.31 140.811 222.885 139.966 219.893 139.966C216.902 139.966 214.476 140.811 214.476 141.854C214.476 142.897 216.902 143.743 219.893 143.743Z" fill="white"/>
<path d="M136.239 162.206C133.249 162.206 130.828 163.049 130.828 164.094C130.828 165.14 133.249 165.983 136.239 165.983C139.228 165.983 141.655 165.14 141.655 164.094C141.655 163.049 139.234 162.206 136.239 162.206Z" fill="white"/>
<path d="M177.466 162.206C174.476 162.206 172.055 163.049 172.055 164.094C172.055 165.14 174.476 165.983 177.466 165.983C180.455 165.983 182.882 165.14 182.882 164.094C182.882 163.049 180.461 162.206 177.466 162.206Z" fill="white"/>
<path d="M219.893 162.206C216.904 162.206 214.476 163.049 214.476 164.094C214.476 165.14 216.904 165.983 219.893 165.983C222.883 165.983 225.31 165.14 225.31 164.094C225.31 163.049 222.883 162.206 219.893 162.206Z" fill="white"/>
<path d="M66.6819 118.788C64.2162 122.185 60.7795 126.609 58.9462 130.161C59.6425 127.821 60.326 125.612 60.9456 123.628C61.8846 121.918 64.4014 117.583 67.3334 114.72C71.0192 111.05 72.597 108.698 70.6104 108.491C69.237 108.348 65.2127 113.331 62.6895 118.283C63.2388 116.591 63.6732 115.314 63.9351 114.542C64.0565 114.204 64.1715 113.824 64.2864 113.426C66.8983 110.034 69.2751 106.492 71.4025 102.819C75.1265 96.346 76.3275 90.2411 73.8426 92.8719C71.5558 95.289 67.5762 107.303 64.4206 112.962C64.6825 111.988 64.938 110.908 65.1616 109.845C65.6087 108.817 66.1964 107.772 66.5286 106.822C67.046 105.367 67.4995 103.888 67.8636 102.392C68.4636 100.057 68.7681 97.6654 68.7707 95.2652C68.834 92.446 68.0079 89.6713 66.3944 87.2836C65.9664 86.6898 63.3538 83.0553 62.5617 84.9082C62.4596 85.2179 62.4399 85.546 62.5043 85.8643C62.8875 88.9583 64.0948 91.803 64.8422 94.8139C65.9601 99.3213 65.2191 106.893 64.8422 110.112C64.7017 110.617 64.5228 111.252 64.312 111.983C64.8294 106.371 62.2168 99.7251 59.7958 98.5671C56.7999 97.13 59.7383 102.772 62.0507 107.695C63.1485 109.851 63.6638 112.224 63.5519 114.607C63.0792 116.229 62.5362 118.046 61.9741 119.887C61.8655 120.142 61.7569 120.392 61.6547 120.641C61.9135 119.439 62.0206 118.214 61.9741 116.989C61.7505 113.77 57.8284 107.327 55.2222 108.235C52.6159 109.144 57.0299 112.547 59.387 116.502C60.5918 118.671 61.0511 121.132 60.7029 123.551C60.7029 123.694 60.6518 123.836 60.6326 123.979C60.3643 124.816 60.096 125.63 59.8341 126.396C59.1954 128.177 58.6524 129.888 58.1094 131.539C58.7766 129.145 59.0692 126.675 58.9782 124.204C58.6524 119.483 55.6821 115.029 53.2292 114.423C50.7762 113.818 55.4585 121.508 57.0299 125.832C57.8843 128.357 58.0294 131.043 57.4515 133.635C56.6913 135.975 55.9759 138.279 55.2413 140.726C55.4489 137.529 55.3763 134.321 55.0241 131.135C54.545 125.885 51.1914 122.53 48.8727 122.666C46.5539 122.803 48.9749 125.784 52.3093 132.168C54.0694 135.52 54.8535 139.243 54.5834 142.965C54.2831 143.998 53.9446 145.055 53.6635 146.16C53.3058 147.419 53.0247 148.784 52.7756 150.186C52.4371 148.939 51.9388 147.11 51.3575 145.091C50.6806 142.856 50.1894 140.577 49.8883 138.273C49.5753 135.595 48.8152 132.257 45.9918 130.862C45.8008 130.736 45.5824 130.652 45.3522 130.614C45.122 130.576 44.8857 130.586 44.66 130.642C44.4343 130.699 44.2249 130.801 44.0466 130.942C43.8682 131.082 43.7254 131.258 43.6283 131.455C43.3632 132.028 43.3028 132.665 43.4558 133.273C43.8309 135.093 44.4758 136.855 45.3722 138.511C44.8131 139.498 44.5588 140.61 44.6376 141.723C44.6376 142.145 44.6759 142.561 44.7078 142.97C44.4587 142.549 44.2224 142.157 43.9988 141.783C43.5945 141.154 43.0954 140.582 42.5168 140.084C42.6611 139.1 42.7337 138.108 42.734 137.115C42.734 135.808 41.0923 132.495 39.6104 134.953C39.0227 135.933 39.1313 137.869 39.0738 139.152C38.6713 139.502 38.55 140.227 38.8885 141.373C38.5526 144.348 38.7207 147.354 39.3868 150.281L38.8821 149.45C38.1563 146.015 37.7291 142.532 37.6046 139.033C37.3618 133.267 38.3456 128.516 36.6592 126.734C34.9728 124.953 34.021 131.218 34.7429 138.018C35.0857 141.135 35.9792 144.179 37.3874 147.027C35.7266 144.253 34.0849 141.426 32.5327 138.712C31.8939 137.252 30.3097 133.32 30.6994 129.329C31.1912 124.293 31.5489 120.178 29.4921 117.345C27.4352 114.512 27.0072 116.347 28.0165 122.25C28.7064 126.307 29.441 131.723 30.7121 135.482C29.5049 133.326 28.3742 131.277 27.3649 129.418C26.79 127.572 25.4486 122.809 25.4486 118.86C25.4486 113.841 24.8673 111.139 23.2704 112.226C22.1589 112.998 22.8743 119.192 24.6629 124.406C23.8261 122.821 23.1937 121.603 22.8296 120.885C22.6635 120.558 22.4783 120.214 22.2675 119.845C21.6966 115.711 20.8432 111.615 19.7123 107.582C17.6874 100.456 14.0847 95.2652 14.1933 98.7571C14.2955 101.976 20.2106 113.283 22.0567 119.424C21.5329 118.545 20.926 117.595 20.3128 116.674C19.8848 115.641 19.5463 114.506 19.0927 113.598C18.3965 112.208 17.6491 110.836 16.8123 109.512C15.5377 107.42 14.0025 105.474 12.2386 103.716C10.214 101.615 7.57115 100.112 4.63713 99.3926C3.88336 99.2263 -0.690303 98.2048 0.0890095 100.105C0.238222 100.393 0.45681 100.645 0.72779 100.842C3.28291 102.861 6.24685 104.173 9.03194 105.901C13.1585 108.485 18.1729 114.489 20.2425 117.09L21.2263 118.8C17.4894 114.37 10.6992 111.169 8.08015 111.858C4.83515 112.707 11.1271 114.97 16.429 117.102C18.8154 117.981 20.934 119.39 22.5996 121.205C23.4428 122.684 24.3818 124.359 25.3208 126.063C25.4294 126.318 25.5316 126.568 25.6466 126.811C24.952 125.77 24.1287 124.807 23.1937 123.943C20.6386 121.734 13.069 119.513 11.8362 121.829C10.6033 124.145 16.3076 123.83 20.9452 125.226C23.4445 126.035 25.6118 127.546 27.1478 129.549L27.4096 129.911C27.8312 130.695 28.2273 131.455 28.6042 132.186C29.4729 133.884 30.3033 135.482 31.121 137.038C29.8534 134.855 28.2526 132.855 26.3684 131.099C22.6635 127.857 17.2211 126.485 14.9662 127.613C12.7113 128.741 21.8012 131.378 26.1193 133.552C28.5975 134.854 30.6756 136.725 32.1558 138.986C33.3184 141.177 34.4873 143.321 35.7457 145.572C33.5364 143.104 31.1161 140.806 28.5084 138.701C24.3052 135.173 19.3866 134.852 17.796 136.414C16.2054 137.976 20.1595 138.629 27.2755 141.165C31.0197 142.501 34.3229 144.725 36.8572 147.615C37.3938 148.559 37.9431 149.527 38.5308 150.53C39.2339 151.737 40.0036 152.908 40.8368 154.04C39.6742 153.339 37.9623 152.318 36.0587 151.213C33.9241 150.011 31.8931 148.657 29.9839 147.163C27.7865 145.382 24.7779 143.446 21.6798 144.194C21.4497 144.226 21.2299 144.305 21.0359 144.424C20.8419 144.544 20.6783 144.701 20.5566 144.886C20.4349 145.07 20.358 145.277 20.3314 145.492C20.3047 145.707 20.3289 145.925 20.4022 146.13C20.6278 146.717 21.0512 147.221 21.6095 147.567C24.5224 149.669 28.4381 150.679 31.83 151.914C34.9385 153.052 38.1244 153.999 41.367 154.747C42.1719 155.822 43.0151 156.879 43.8519 157.894L42.3316 157.936C40.5302 157.983 32.4049 154.563 28.2784 153.458C24.1519 152.354 20.2936 154.444 24.6182 156.606C28.9427 158.767 40.7027 158.286 40.7027 158.286L44.0946 158.209C44.8931 159.159 45.6788 160.056 46.4134 160.882H30.3033V165.039H33.4972L36.0524 179.814H57.509L60.0641 165.05H63.258V160.893H52.5776C52.4913 159.099 52.5425 157.301 52.7309 155.513C53.4425 154.839 54.2331 154.241 55.088 153.731C59.7767 150.72 67.7231 150.471 69.8374 144.675C70.3485 143.273 69.7736 141.48 67.9722 141.557C66.6947 141.616 65.3085 142.668 64.5036 143.535C61.8208 146.415 59.8022 149.402 56.3145 151.582C56.1548 151.683 53.9574 153.31 52.8651 154.319C52.9864 153.375 53.1397 152.365 53.3377 151.279C54.1805 149.889 55.1418 148.564 56.2123 147.318C59.0676 144.028 63.4113 142.097 66.4966 138.956C67.442 137.994 68.6876 134.538 65.8004 135.393C64.5228 135.779 63.0025 137.584 61.9996 138.416C59.1634 140.791 56.2506 143.321 54.3981 146.445C54.4748 146.136 54.5578 145.851 54.6345 145.512C56.6279 142.547 58.8707 139.733 61.3417 137.097C65.4426 132.756 69.6458 129.917 69.7161 127.548C69.7863 125.178 64.4972 129.151 60.0066 134.591C57.9696 137.087 56.3897 139.878 55.3307 142.852C56.1548 139.77 57.0299 136.664 57.8859 133.682C58.4735 132.198 60.2174 128.338 63.4305 125.659C67.4867 122.292 70.7701 119.513 71.3514 116.157C71.9326 112.802 70.2846 113.829 66.6819 118.788ZM43.9988 156.986C43.3941 156.218 42.7553 155.378 42.0824 154.468C41.6803 152.917 41.4132 151.338 41.284 149.747C41.1965 148.384 41.2629 147.016 41.482 145.667C42.5706 146.921 43.7283 148.122 44.9506 149.265C44.9215 150.455 44.7653 151.638 44.4843 152.799C44.4651 152.971 44.0563 155.555 43.9988 156.986ZM47.4737 160.893C46.6497 160.08 45.749 159.112 44.7717 157.924C44.7962 156.982 44.9355 156.046 45.1869 155.133C45.578 153.694 46.1393 152.3 46.8605 150.976C48.3744 152.312 49.4859 153.203 49.4859 153.203L52.041 155.281C51.843 157.36 51.728 159.302 51.6578 160.882L47.4737 160.893ZM52.073 154.919L50.9295 153.987C50.2908 153.452 49.141 151.386 47.889 149.01C48.4268 148.008 48.9004 146.977 49.307 145.922C50.6613 148.256 51.8622 150.079 52.5712 151.047C52.3987 152.342 52.2071 153.648 52.073 154.919Z" fill="#3768B1"/>
<path opacity="0.5" d="M66.6819 118.788C64.2162 122.185 60.7795 126.609 58.9462 130.161C59.6425 127.821 60.326 125.612 60.9456 123.628C61.8846 121.918 64.4014 117.583 67.3334 114.72C71.0192 111.05 72.597 108.698 70.6104 108.491C69.237 108.348 65.2127 113.331 62.6895 118.283C63.2388 116.591 63.6732 115.314 63.9351 114.542C64.0565 114.204 64.1715 113.824 64.2864 113.426C66.8983 110.034 69.2751 106.492 71.4025 102.819C75.1265 96.346 76.3275 90.2411 73.8426 92.8719C71.5558 95.289 67.5762 107.303 64.4206 112.962C64.6825 111.988 64.938 110.908 65.1616 109.845C65.6087 108.817 66.1964 107.772 66.5286 106.822C67.046 105.367 67.4995 103.888 67.8636 102.392C68.4636 100.057 68.7681 97.6654 68.7707 95.2652C68.834 92.446 68.0079 89.6713 66.3944 87.2836C65.9664 86.6898 63.3538 83.0553 62.5617 84.9082C62.4596 85.2179 62.4399 85.546 62.5043 85.8643C62.8875 88.9583 64.0948 91.803 64.8422 94.8139C65.9601 99.3213 65.2191 106.893 64.8422 110.112C64.7017 110.617 64.5228 111.252 64.312 111.983C64.8294 106.371 62.2168 99.7251 59.7958 98.5671C56.7999 97.13 59.7383 102.772 62.0507 107.695C63.1485 109.851 63.6638 112.224 63.5519 114.607C63.0792 116.229 62.5362 118.046 61.9741 119.887C61.8655 120.142 61.7569 120.392 61.6547 120.641C61.9135 119.439 62.0206 118.214 61.9741 116.989C61.7505 113.77 57.8284 107.327 55.2222 108.235C52.6159 109.144 57.0299 112.547 59.387 116.502C60.5918 118.671 61.0511 121.132 60.7029 123.551C60.7029 123.694 60.6518 123.836 60.6326 123.979C60.3643 124.816 60.096 125.63 59.8341 126.396C59.1954 128.177 58.6524 129.888 58.1094 131.539C58.7766 129.145 59.0692 126.675 58.9782 124.204C58.6524 119.483 55.6821 115.029 53.2292 114.423C50.7762 113.818 55.4585 121.508 57.0299 125.832C57.8843 128.357 58.0294 131.043 57.4515 133.635C56.6913 135.975 55.9759 138.279 55.2413 140.726C55.4489 137.529 55.3763 134.321 55.0241 131.135C54.545 125.885 51.1914 122.53 48.8727 122.666C46.5539 122.803 48.9749 125.784 52.3093 132.168C54.0694 135.52 54.8535 139.243 54.5834 142.965C54.2831 143.998 53.9446 145.055 53.6635 146.16C53.3058 147.419 53.0247 148.784 52.7756 150.186C52.4371 148.939 51.9388 147.11 51.3575 145.091C50.6806 142.856 50.1894 140.577 49.8883 138.273C49.5753 135.595 48.8152 132.257 45.9918 130.862C45.8008 130.736 45.5824 130.652 45.3522 130.614C45.122 130.576 44.8857 130.586 44.66 130.642C44.4343 130.699 44.2249 130.801 44.0466 130.942C43.8682 131.082 43.7254 131.258 43.6283 131.455C43.3632 132.028 43.3028 132.665 43.4558 133.273C43.8309 135.093 44.4758 136.855 45.3722 138.511C44.8131 139.498 44.5588 140.61 44.6376 141.723C44.6376 142.145 44.6759 142.561 44.7078 142.97C44.4587 142.549 44.2224 142.157 43.9988 141.783C43.5945 141.154 43.0954 140.582 42.5168 140.084C42.6611 139.1 42.7337 138.108 42.734 137.115C42.734 135.808 41.0923 132.495 39.6104 134.953C39.0227 135.933 39.1313 137.869 39.0738 139.152C38.6713 139.502 38.55 140.227 38.8885 141.373C38.5526 144.348 38.7207 147.354 39.3868 150.281L38.8821 149.45C38.1563 146.015 37.7291 142.532 37.6046 139.033C37.3618 133.267 38.3456 128.516 36.6592 126.734C34.9728 124.953 34.021 131.218 34.7429 138.018C35.0857 141.135 35.9792 144.179 37.3874 147.027C35.7266 144.253 34.0849 141.426 32.5327 138.712C31.8939 137.252 30.3097 133.32 30.6994 129.329C31.1912 124.293 31.5489 120.178 29.4921 117.345C27.4352 114.512 27.0072 116.347 28.0165 122.25C28.7064 126.307 29.441 131.723 30.7121 135.482C29.5049 133.326 28.3742 131.277 27.3649 129.418C26.79 127.572 25.4486 122.809 25.4486 118.86C25.4486 113.841 24.8673 111.139 23.2704 112.226C22.1589 112.998 22.8743 119.192 24.6629 124.406C23.8261 122.821 23.1937 121.603 22.8296 120.885C22.6635 120.558 22.4783 120.214 22.2675 119.845C21.6966 115.711 20.8432 111.615 19.7123 107.582C17.6874 100.456 14.0847 95.2652 14.1933 98.7571C14.2955 101.976 20.2106 113.283 22.0567 119.424C21.5329 118.545 20.926 117.595 20.3128 116.674C19.8848 115.641 19.5463 114.506 19.0927 113.598C18.3965 112.208 17.6491 110.836 16.8123 109.512C15.5377 107.42 14.0025 105.474 12.2386 103.716C10.214 101.615 7.57115 100.112 4.63713 99.3926C3.88336 99.2263 -0.690303 98.2048 0.0890095 100.105C0.238222 100.393 0.45681 100.645 0.72779 100.842C3.28291 102.861 6.24685 104.173 9.03194 105.901C13.1585 108.485 18.1729 114.489 20.2425 117.09L21.2263 118.8C17.4894 114.37 10.6992 111.169 8.08015 111.858C4.83515 112.707 11.1271 114.97 16.429 117.102C18.8154 117.981 20.934 119.39 22.5996 121.205C23.4428 122.684 24.3818 124.359 25.3208 126.063C25.4294 126.318 25.5316 126.568 25.6466 126.811C24.952 125.77 24.1287 124.807 23.1937 123.943C20.6386 121.734 13.069 119.513 11.8362 121.829C10.6033 124.145 16.3076 123.83 20.9452 125.226C23.4445 126.035 25.6118 127.546 27.1478 129.549L27.4096 129.911C27.8312 130.695 28.2273 131.455 28.6042 132.186C29.4729 133.884 30.3033 135.482 31.121 137.038C29.8534 134.855 28.2526 132.855 26.3684 131.099C22.6635 127.857 17.2211 126.485 14.9662 127.613C12.7113 128.741 21.8012 131.378 26.1193 133.552C28.5975 134.854 30.6756 136.725 32.1558 138.986C33.3184 141.177 34.4873 143.321 35.7457 145.572C33.5364 143.104 31.1161 140.806 28.5084 138.701C24.3052 135.173 19.3866 134.852 17.796 136.414C16.2054 137.976 20.1595 138.629 27.2755 141.165C31.0197 142.501 34.3229 144.725 36.8572 147.615C37.3938 148.559 37.9431 149.527 38.5308 150.53C39.2339 151.737 40.0036 152.908 40.8368 154.04C39.6742 153.339 37.9623 152.318 36.0587 151.213C33.9241 150.011 31.8931 148.657 29.9839 147.163C27.7865 145.382 24.7779 143.446 21.6798 144.194C21.4497 144.226 21.2299 144.305 21.0359 144.424C20.8419 144.544 20.6783 144.701 20.5566 144.886C20.4349 145.07 20.358 145.277 20.3314 145.492C20.3047 145.707 20.3289 145.925 20.4022 146.13C20.6278 146.717 21.0512 147.221 21.6095 147.567C24.5224 149.669 28.4381 150.679 31.83 151.914C34.9385 153.052 38.1244 153.999 41.367 154.747C42.1719 155.822 43.0151 156.879 43.8519 157.894L42.3316 157.936C40.5302 157.983 32.4049 154.563 28.2784 153.458C24.1519 152.354 20.2936 154.444 24.6182 156.606C28.9427 158.767 40.7027 158.286 40.7027 158.286L44.0946 158.209C44.8931 159.159 45.6788 160.056 46.4134 160.882H30.3033V165.039H33.4972L36.0524 179.814H57.509L60.0641 165.05H63.258V160.893H52.5776C52.4913 159.099 52.5425 157.301 52.7309 155.513C53.4425 154.839 54.2331 154.241 55.088 153.731C59.7767 150.72 67.7231 150.471 69.8374 144.675C70.3485 143.273 69.7736 141.48 67.9722 141.557C66.6947 141.616 65.3085 142.668 64.5036 143.535C61.8208 146.415 59.8022 149.402 56.3145 151.582C56.1548 151.683 53.9574 153.31 52.8651 154.319C52.9864 153.375 53.1397 152.365 53.3377 151.279C54.1805 149.889 55.1418 148.564 56.2123 147.318C59.0676 144.028 63.4113 142.097 66.4966 138.956C67.442 137.994 68.6876 134.538 65.8004 135.393C64.5228 135.779 63.0025 137.584 61.9996 138.416C59.1634 140.791 56.2506 143.321 54.3981 146.445C54.4748 146.136 54.5578 145.851 54.6345 145.512C56.6279 142.547 58.8707 139.733 61.3417 137.097C65.4426 132.756 69.6458 129.917 69.7161 127.548C69.7863 125.178 64.4972 129.151 60.0066 134.591C57.9696 137.087 56.3897 139.878 55.3307 142.852C56.1548 139.77 57.0299 136.664 57.8859 133.682C58.4735 132.198 60.2174 128.338 63.4305 125.659C67.4867 122.292 70.7701 119.513 71.3514 116.157C71.9326 112.802 70.2846 113.829 66.6819 118.788ZM43.9988 156.986C43.3941 156.218 42.7553 155.378 42.0824 154.468C41.6803 152.917 41.4132 151.338 41.284 149.747C41.1965 148.384 41.2629 147.016 41.482 145.667C42.5706 146.921 43.7283 148.122 44.9506 149.265C44.9215 150.455 44.7653 151.638 44.4843 152.799C44.4651 152.971 44.0563 155.555 43.9988 156.986ZM47.4737 160.893C46.6497 160.08 45.749 159.112 44.7717 157.924C44.7962 156.982 44.9355 156.046 45.1869 155.133C45.578 153.694 46.1393 152.3 46.8605 150.976C48.3744 152.312 49.4859 153.203 49.4859 153.203L52.041 155.281C51.843 157.36 51.728 159.302 51.6578 160.882L47.4737 160.893ZM52.073 154.919L50.9295 153.987C50.2908 153.452 49.141 151.386 47.889 149.01C48.4268 148.008 48.9004 146.977 49.307 145.922C50.6613 148.256 51.8622 150.079 52.5712 151.047C52.3987 152.342 52.2071 153.648 52.073 154.919Z" fill="white"/>
<path d="M70.2783 194.839C85.0884 194.839 97.0943 192.422 97.0943 189.44C97.0943 186.459 85.0884 184.042 70.2783 184.042C55.4682 184.042 43.4623 186.459 43.4623 189.44C43.4623 192.422 55.4682 194.839 70.2783 194.839Z" fill="#3768B1"/>
<path opacity="0.5" d="M70.2783 194.839C85.0884 194.839 97.0943 192.422 97.0943 189.44C97.0943 186.459 85.0884 184.042 70.2783 184.042C55.4682 184.042 43.4623 186.459 43.4623 189.44C43.4623 192.422 55.4682 194.839 70.2783 194.839Z" fill="white"/>
<path d="M167.577 194.839C182.387 194.839 194.393 192.422 194.393 189.44C194.393 186.459 182.387 184.042 167.577 184.042C152.767 184.042 140.761 186.459 140.761 189.44C140.761 192.422 152.767 194.839 167.577 194.839Z" fill="#3768B1"/>
<path opacity="0.5" d="M167.577 194.839C182.387 194.839 194.393 192.422 194.393 189.44C194.393 186.459 182.387 184.042 167.577 184.042C152.767 184.042 140.761 186.459 140.761 189.44C140.761 192.422 152.767 194.839 167.577 194.839Z" fill="white"/>
<path d="M122.569 90.8826C123.649 91.5113 124.573 92.3476 125.277 93.3352C126.082 94.6952 129.455 95.58 129.455 95.58H130.701L131.212 101.026C129.927 101.065 128.647 101.18 127.379 101.37C126.631 101.524 125.87 101.613 125.105 101.637C125.105 101.637 121.151 97.0113 120.493 96.1264C119.835 95.2415 119.765 93.4065 120.058 93.0621C120.352 92.7176 122.569 90.8826 122.569 90.8826Z" fill="white" stroke="#263238" stroke-width="0.75" stroke-linecap="round" stroke-linejoin="round"/>
<path d="M117.299 100.141C117.299 100.141 115.102 100.824 116.053 101.37C116.543 101.572 117.088 101.628 117.613 101.531C118.138 101.433 118.618 101.186 118.985 100.824C119.349 100.277 118.193 99.8675 117.299 100.141Z" fill="white" stroke="#263238" stroke-width="0.75" stroke-linecap="round" stroke-linejoin="round"/>
<path d="M114.884 93.8816C114.884 93.8816 121.4 91.7022 121.694 91.9041C121.988 92.106 122.499 93.947 122.499 93.947C122.499 93.947 127.034 96.465 127.404 97.4211C127.698 98.9052 127.698 100.427 127.404 101.911C127.181 102.255 125.942 102.659 125.488 102.796C125.031 102.901 124.553 102.901 124.096 102.796C123.878 102.73 120.359 100.42 120.359 100.42C120.359 100.42 116.775 100.759 115.97 100.759C115.165 100.759 114.354 100.693 114.354 100.693L114.884 93.8816Z" fill="white" stroke="#263238" stroke-width="0.75" stroke-linecap="round" stroke-linejoin="round"/>
<path d="M123.01 96.4473C123.01 96.4473 125.424 97.6766 125.942 98.3536C126.459 99.0306 126.964 101.964 126.964 101.964" stroke="#263238" stroke-width="0.75" stroke-linecap="round" stroke-linejoin="round"/>
<path d="M121.988 97.6943C121.988 97.6943 124.843 99.1196 125.13 99.8026C125.404 100.674 125.617 101.561 125.769 102.457" stroke="#263238" stroke-width="0.75" stroke-linecap="round" stroke-linejoin="round"/>
<path d="M123.45 92.1772C123.45 92.1772 120.301 95.4434 119.567 95.7879C118.832 96.1323 118.691 95.7166 118.289 95.4434C117.887 95.1702 120.633 91.5002 120.563 91.227C120.947 90.9636 121.414 90.827 121.891 90.8388C122.368 90.8507 122.827 91.0103 123.195 91.2923" fill="white"/>
<path d="M123.45 92.1772C123.45 92.1772 120.301 95.4434 119.567 95.7879C118.832 96.1323 118.691 95.7166 118.289 95.4434C117.887 95.1702 120.633 91.5002 120.563 91.227C120.947 90.9636 121.414 90.827 121.891 90.8388C122.368 90.8507 122.827 91.0103 123.195 91.2923" stroke="#263238" stroke-width="0.75" stroke-linecap="round" stroke-linejoin="round"/>
<path d="M118.832 99.4164L118.717 99.7846C118.486 100.436 118.35 101.113 118.315 101.798C118.462 102.071 119.343 102.344 119.637 101.934C119.931 101.525 120.512 99.4877 120.365 99.2145C120.218 98.9413 119.643 97.7595 118.832 99.4164Z" fill="white" stroke="#263238" stroke-width="0.75" stroke-linecap="round" stroke-linejoin="round"/>
<path d="M121.617 99.1193C121.387 99.3866 120.34 102.32 120.595 102.683C120.851 103.045 121.911 103.164 122.205 102.754C122.499 102.344 123.521 99.7845 123.227 99.1906C122.933 98.5967 122.665 97.9613 121.617 99.1193Z" fill="white" stroke="#263238" stroke-width="0.75" stroke-linecap="round" stroke-linejoin="round"/>
<path d="M123.45 99.7311L123.342 99.9686C123.022 100.675 122.109 102.807 122.352 103.205C122.594 103.603 124.032 103.799 124.326 103.14C124.619 102.481 125.648 99.9389 124.964 99.3273C124.857 99.2087 124.715 99.1216 124.556 99.0764C124.397 99.0312 124.227 99.0299 124.066 99.0726C123.906 99.1153 123.763 99.2002 123.654 99.3171C123.544 99.4339 123.474 99.5777 123.45 99.7311Z" fill="white" stroke="#263238" stroke-width="0.75" stroke-linecap="round" stroke-linejoin="round"/>
<path d="M73.057 42.4883C73.057 42.4883 73.4402 44.6797 72.9995 45.5527C72.5587 46.4257 71.9008 48.2548 71.9008 48.2548L81.623 56.272C81.623 56.272 84.587 52.7978 85.1363 52.1149C85.6857 51.432 86.4139 50.5293 86.4139 50.5293C86.4139 50.5293 81.6358 47.7203 80.6648 45.6774C79.6939 43.6345 80.173 41.0333 78.1097 40.6236C76.0465 40.2138 73.6638 41.265 73.057 42.4883Z" fill="white" stroke="#263238" stroke-width="0.75" stroke-linecap="round" stroke-linejoin="round"/>
<path d="M91.5625 28.9602C91.5625 28.9602 95.6251 28.9068 94.8011 25.2842C93.9771 21.6616 84.4784 20.8896 82.7218 22.5762C80.9651 24.2627 81.2398 24.9516 81.2398 24.9516C81.2398 24.9516 73.057 24.7497 70.9682 28.883C68.8794 33.0163 69.8184 38.3849 71.1918 41.1879C72.5652 43.991 74.8712 44.2998 76.0785 43.9435C77.2858 43.5872 78.1609 42.922 78.1609 41.9006C78.1609 40.8791 78.9338 38.4324 79.8664 39.0441C80.799 39.6558 81.7828 39.8577 83.4372 38.379C85.0917 36.9002 87.4424 35.0592 86.5672 33.5805C85.6921 32.1018 84.2037 32.0483 85.0278 31.3832C85.8518 30.7181 90.5213 30.1955 90.9557 29.7501C91.1976 29.5152 91.4019 29.2492 91.5625 28.9602Z" fill="#263238" stroke="#263238" stroke-width="0.75" stroke-linecap="round" stroke-linejoin="round"/>
<path d="M91.3644 26.7866C91.3644 26.7866 91.9393 27.8615 86.4714 29.1977C81.0034 30.5339 71.7794 30.8012 71.5047 34.014" stroke="white" stroke-width="0.75" stroke-linecap="round" stroke-linejoin="round"/>
<path d="M80.7288 32.9451C80.7288 32.9451 74.111 34.8157 72.6674 36.9596C71.2237 39.1035 73.2487 40.9682 73.2487 40.9682" stroke="white" stroke-width="0.75" stroke-linecap="round" stroke-linejoin="round"/>
<path d="M91.5625 28.9602C91.5625 28.9602 93.102 33.8062 93.102 34.7801C93.102 35.754 92.0033 36.7161 92.4951 37.791C92.987 38.8659 94.635 40.9563 94.635 41.6214C94.635 42.2866 92.2204 42.9458 92.2204 42.9458C92.2204 42.9458 90.1891 50.0722 89.7484 50.963C89.3076 51.8538 87.832 51.9844 86.069 51.5568C84.3059 51.1292 79.6492 48.8488 78.4036 47.0672C77.158 45.2856 78.0714 42.2628 78.0714 42.2628C78.0714 42.2628 75.5163 41.1938 74.9989 38.949C74.4815 36.7042 76.3723 35.2196 78.0203 35.7303C78.4835 35.8577 78.9131 36.0735 79.2815 36.3639C79.65 36.6543 79.9492 37.0129 80.1603 37.4169C80.1603 37.4169 80.3263 37.9751 80.799 37.8266C81.2717 37.6782 81.7317 36.7517 82.1724 36.6983C82.6132 36.6448 85.7432 35.6293 85.3663 34.5069C84.9894 33.3845 81.0801 33.3192 81.3548 32.0543C81.6295 30.7893 91.5625 28.9602 91.5625 28.9602Z" fill="white" stroke="#263238" stroke-width="0.75" stroke-linecap="round" stroke-linejoin="round"/>
<path d="M86.6758 41.9243L85.0852 42.9458" stroke="#263238" stroke-width="0.75" stroke-linecap="round" stroke-linejoin="round"/>
<path d="M86.0689 42.5891C86.0689 42.5891 86.5672 43.8125 88.6241 44.2222L86.0689 42.5891Z" fill="white"/>
<path d="M86.0689 42.5891C86.0689 42.5891 86.5672 43.8125 88.6241 44.2222" stroke="#263238" stroke-width="0.75" stroke-linecap="round" stroke-linejoin="round"/>
<path d="M86.1264 42.9458C86.1264 42.9458 85.1938 45.3213 86.3436 45.8557C87.4934 46.3902 87.9916 44.1751 87.9916 44.1751L86.1264 42.9458Z" fill="black"/>
<path d="M92.329 38.1767C92.2651 39.4179 91.9266 40.4097 91.5752 40.3918C91.2239 40.374 91.0003 39.3585 91.0706 38.1173C91.1408 36.8761 91.473 35.8903 91.8243 35.9022C92.1757 35.9141 92.3992 36.9355 92.329 38.1767Z" fill="white" stroke="#263238" stroke-width="0.75" stroke-linecap="round" stroke-linejoin="round"/>
<path d="M91.0706 36.9238H79.8664" stroke="#263238" stroke-width="0.75" stroke-linecap="round" stroke-linejoin="round"/>
<path d="M90.2977 35.5461C90.3814 35.2676 90.5342 35.0113 90.7439 34.7978C90.9536 34.5843 91.2143 34.4195 91.505 34.3168C92.444 34.0614 92.6037 34.5246 92.6037 34.5246" fill="white"/>
<path d="M90.2977 35.5461C90.3814 35.2676 90.5342 35.0113 90.7439 34.7978C90.9536 34.5843 91.2143 34.4195 91.505 34.3168C92.444 34.0614 92.6037 34.5246 92.6037 34.5246" stroke="#263238" stroke-width="0.75" stroke-linecap="round" stroke-linejoin="round"/>
<path d="M52.2072 122.061L86.2542 121.111C86.2542 121.111 88.375 143.024 87.864 143.505C87.3529 143.986 53.5998 145.287 53.5998 145.287C53.5998 145.287 50.9872 145.459 50.6167 144.372C50.2462 143.286 52.2072 122.061 52.2072 122.061Z" fill="white" stroke="#263238" stroke-width="0.75" stroke-linecap="round" stroke-linejoin="round"/>
<path d="M52.2072 122.061C52.2072 122.061 49.0133 143.772 49.5691 144.39C50.1248 145.008 52.763 145.453 53.5998 145.275C54.3663 145.144 52.2072 122.061 52.2072 122.061Z" fill="white" stroke="#263238" stroke-width="0.75" stroke-linecap="round" stroke-linejoin="round"/>
<path d="M62.236 181.554C60.3644 182.617 59.4574 184.41 59.8981 185.842C60.3389 187.273 60.4794 187.409 61.6548 187.623C62.8301 187.837 68.0937 187.077 73.7916 186.192C79.4895 185.307 80.3135 185.105 80.8182 184.357C81.3228 183.609 82.2107 182.86 76.5703 181.981C70.9298 181.103 70.4188 180.14 70.4188 180.14C70.4188 180.14 65.2383 179.849 62.236 181.554Z" fill="#3768B1" stroke="#263238" stroke-width="0.75" stroke-linecap="round" stroke-linejoin="round"/>
<path d="M80.6648 182.968C80.2816 183.698 79.0807 185.01 75.3055 185.432C71.3131 185.877 64.0885 186.549 60.275 186.851C60.5369 187.356 60.8563 187.445 61.6547 187.612C62.8237 187.813 68.0936 187.065 73.7916 186.18C79.4895 185.295 80.3135 185.094 80.8181 184.345C81.1439 183.894 81.5847 183.443 80.6648 182.968Z" fill="#263238" stroke="#263238" stroke-width="0.75" stroke-linecap="round" stroke-linejoin="round"/>
<path d="M72.3416 183.389C72.3416 183.389 78.1992 185.978 81.425 186.59C84.6509 187.202 85.4493 187.273 85.0852 188.223C84.7211 189.173 84.6445 189.453 79.7386 190.539C74.8328 191.626 69.4862 190.403 67.1419 189.993C64.7976 189.583 64.0694 190.201 63.0473 189.791C62.0253 189.381 62.3127 187.338 62.3127 187.338L72.3416 183.389Z" fill="#3768B1" stroke="#263238" stroke-width="0.75" stroke-linecap="round" stroke-linejoin="round"/>
<path d="M79.7386 190.539C83.8587 189.625 84.5678 189.286 84.9063 188.633C80.4349 190.414 74.507 189.678 69.9844 189.197C67.0716 188.882 64.2929 188.603 62.3191 188.455C62.3087 188.718 62.3721 188.98 62.5031 189.214C62.6341 189.449 62.8282 189.647 63.0664 189.791C64.0885 190.201 64.8231 189.589 67.161 189.993C69.4989 190.397 74.8328 191.626 79.7386 190.539Z" fill="#263238" stroke="#263238" stroke-width="0.75" stroke-linecap="round" stroke-linejoin="round"/>
<path d="M65.7557 133.362C65.7557 133.362 64.7273 141.118 62.6768 144.455C60.6263 147.793 57.8476 150.103 57.4068 154.937C56.9661 159.771 58.4289 179.511 58.5758 181.215C58.7227 182.92 57.937 183.46 58.7227 184.547C59.215 185.214 59.7527 185.851 60.3324 186.453L62.7534 184.482C62.7534 184.482 64.5101 179.238 64.0693 169.231C63.6286 159.225 63.7052 152.49 65.6088 145.815C67.5123 139.14 67.8764 137.376 66.9949 134.787C66.1134 132.198 65.7557 133.362 65.7557 133.362Z" fill="#263238" stroke="#263238" stroke-width="0.75" stroke-linecap="round" stroke-linejoin="round"/>
<path d="M61.1438 117.28C61.1438 117.28 63.5584 121.514 64.1077 122.624C64.6571 123.735 65.9155 136.616 64.9317 140.904C63.948 145.191 60.1153 152.478 60.4603 158.874C60.8052 165.27 61.099 182.225 61.099 182.427C60.8788 183.438 60.8788 184.48 61.099 185.491C61.4632 187.326 62.5619 187.867 62.5619 187.867C64.426 187.06 66.3598 186.4 68.3428 185.895C71.9328 184.939 72.9548 183.579 72.9548 183.579C72.6415 182.697 72.2747 181.833 71.8561 180.99C71.3451 180.039 70.47 178.543 70.6169 178.062C70.7638 177.581 71.7156 161.932 73.6192 156.76C75.5227 151.587 76.615 146.142 78.2311 141.373C79.8473 136.604 83.6991 123.83 83.6991 120.564V116.549L60.8563 116.139L61.1438 117.28Z" fill="#263238" stroke="#263238" stroke-width="0.75" stroke-linecap="round" stroke-linejoin="round"/>
<path d="M63.0281 147.781C62.3893 149.604 61.6803 151.647 61.1437 153.268C59.8662 157.128 61.1437 178.804 61.1437 178.804C61.2834 180.384 61.324 181.971 61.2651 183.555C61.1437 185.521 61.2651 186.299 61.7889 186.827" stroke="white" stroke-width="0.75" stroke-linecap="round" stroke-linejoin="round"/>
<path d="M64.657 143.173C64.657 143.173 64.1843 144.485 63.5519 146.284" stroke="white" stroke-width="0.75" stroke-linecap="round" stroke-linejoin="round"/>
<path d="M71.1917 46.4197C71.1917 46.4197 73.7468 47.2333 77.5795 50.3511C81.4122 53.4689 85.3216 56.4263 84.4975 57.4775C83.6735 58.5286 82.134 62.2284 82.134 62.2284C82.134 62.2284 80.7096 60.0311 76.4808 56.8836C72.2521 53.7361 69.0071 50.9093 69.0071 50.9093C69.0071 50.9093 70.751 47.0848 71.1917 46.4197Z" fill="white" stroke="#263238" stroke-width="0.75" stroke-linecap="round" stroke-linejoin="round"/>
<path d="M67.7871 51.4199C67.7871 51.4199 59.6043 56.83 58.2054 62.0383C56.8064 67.2465 56.2252 69.8001 56.3401 79.7533C56.4551 89.7065 57.1067 95.9896 57.1067 96.4469C57.1067 96.9041 54.954 115.391 54.954 115.593C54.954 115.795 58.7867 119.067 69.5054 119.269C76.7799 119.312 84.0452 118.784 91.2239 117.689L86.5545 81.8496C86.5545 81.8496 84.7403 66.5813 82.8751 63.7248C81.0098 60.8683 67.7871 51.4199 67.7871 51.4199Z" fill="#3768B1" stroke="#263238" stroke-width="0.75" stroke-linecap="round" stroke-linejoin="round"/>
<path d="M72.5077 101.097C72.5077 101.097 79.3171 102.374 84.0057 100.788" stroke="#263238" stroke-width="0.75" stroke-linecap="round" stroke-linejoin="round"/>
<path d="M72.5077 102.98C72.5077 102.98 79.3171 104.256 84.0057 102.677" stroke="#263238" stroke-width="0.75" stroke-linecap="round" stroke-linejoin="round"/>
<path d="M113.709 92.8601L115.395 93.6084L114.367 100.687L112.687 100.414L113.709 92.8601Z" fill="white" stroke="#263238" stroke-width="0.75" stroke-linecap="round" stroke-linejoin="round"/>
<path d="M75.0499 60.7322C74.0916 61.0135 73.233 61.5306 72.5651 62.2287C71.4664 63.4165 65.5385 70.2578 65.9729 73.2568C66.4072 76.2558 74.1173 87.2067 76.6724 90.6155C79.8182 94.9353 84.3491 98.2228 89.6205 100.01C96.0658 102.19 112.834 101.103 112.834 101.103L113.722 92.6525C113.722 92.6525 104.574 89.9326 98.276 88.1629C94.773 87.1998 91.3471 86.0091 88.0236 84.5997C88.0236 84.5997 86.5608 81.2621 85.5323 80.7217C84.5039 80.1813 84.3633 79.8369 84.3633 79.8369C84.3633 79.8369 82.3895 69.8302 81.3611 66.558C80.3326 63.2858 78.9465 62.4781 78.9465 62.4781" fill="#3768B1"/>
<path d="M75.0499 60.7322C74.0916 61.0135 73.233 61.5306 72.5651 62.2287C71.4664 63.4165 65.5385 70.2578 65.9729 73.2568C66.4072 76.2558 74.1173 87.2067 76.6724 90.6155C79.8182 94.9353 84.3491 98.2228 89.6205 100.01C96.0658 102.19 112.834 101.103 112.834 101.103L113.722 92.6525C113.722 92.6525 104.574 89.9326 98.276 88.1629C94.773 87.1998 91.3471 86.0091 88.0236 84.5997C88.0236 84.5997 86.5608 81.2621 85.5323 80.7217C84.5039 80.1813 84.3633 79.8369 84.3633 79.8369C84.3633 79.8369 82.3895 69.8302 81.3611 66.558C80.3326 63.2858 78.9465 62.4781 78.9465 62.4781" stroke="#263238" stroke-width="0.75" stroke-linecap="round" stroke-linejoin="round"/>
<path d="M160.647 179.974C158.035 181.376 155.32 182.605 152.521 183.65C148.784 184.945 147.903 185.432 148.637 186.168C149.372 186.905 155.741 187.463 159.324 186.762C162.908 186.061 164.307 185.61 165.916 185.675C167.526 185.741 169.749 186.15 170.528 185.129C171.308 184.107 171.627 183.906 171.04 182.201C170.452 180.497 160.647 179.974 160.647 179.974Z" fill="#3768B1" stroke="#263238" stroke-width="0.75" stroke-linecap="round" stroke-linejoin="round"/>
<path d="M159.324 186.78C162.914 186.103 164.307 185.628 165.916 185.693C167.526 185.759 169.749 186.169 170.528 185.147C171.103 184.417 171.416 184.102 171.333 183.365C168.727 183.164 163.7 183.93 157.708 185.147C154.676 185.834 151.531 185.983 148.439 185.587C148.404 185.693 148.405 185.806 148.44 185.912C148.475 186.018 148.544 186.111 148.637 186.18C149.372 186.917 155.741 187.463 159.324 186.78Z" fill="#263238" stroke="#263238" stroke-width="0.75" stroke-linecap="round" stroke-linejoin="round"/>
<path d="M174.483 184.47C173.016 185.944 171.452 187.333 169.8 188.627C167.379 190.462 163.208 192.986 163.649 194.073C164.09 195.159 167.086 196.181 173.384 194.666C177.415 193.642 181.228 191.985 184.658 189.767C185.362 189.646 185.99 189.281 186.415 188.746C186.932 187.926 186.345 186.637 186.345 186.637L174.483 184.47Z" fill="#3768B1" stroke="#263238" stroke-width="0.75" stroke-linecap="round" stroke-linejoin="round"/>
<path d="M173.384 194.679C177.415 193.654 181.228 191.997 184.658 189.779C185.362 189.658 185.99 189.293 186.415 188.758C186.694 188.13 186.694 187.426 186.415 186.798C177.306 193.206 168.785 194.518 164.275 194.708C165.463 195.469 168.389 195.866 173.384 194.679Z" fill="#263238" stroke="#263238" stroke-width="0.75" stroke-linecap="round" stroke-linejoin="round"/>
<path d="M163.547 105.165C163.547 105.165 159.669 105.646 156.884 104.69C154.099 103.734 151.467 102.991 151.467 102.991C151.467 102.991 149.928 121.573 151.614 129.062C153.301 136.551 157.766 145.69 157.836 147.781C157.925 150.295 158.244 152.799 158.788 155.263C159.299 157.17 161.79 171.892 161.937 173.507C162.035 174.322 162.035 175.145 161.937 175.96C161.937 175.96 160.18 176.506 160.18 176.981V180.449C161.629 181.157 163.151 181.728 164.722 182.154C167.43 182.902 171.238 183.514 171.238 183.514C171.564 182.142 171.808 180.754 171.966 179.356C171.966 178.406 171.327 175.888 171.327 174.522C171.327 173.157 171.698 156.825 171.698 156.825C171.698 156.825 175.281 170.781 175.281 175.407C175.281 180.033 175.211 181.536 175.211 181.536C175.211 181.536 173.601 181.061 173.601 182.082C173.601 183.104 173.524 185.551 173.524 185.551C173.524 185.551 179.235 186.91 181.944 187.659C183.558 188.112 185.265 188.205 186.926 187.932C186.926 187.932 188.389 182.759 188.242 181.061C188.095 179.362 186.268 177.925 186.268 176.975C186.268 176.025 187.22 166.63 185.827 158.458C184.435 150.287 180.775 146.545 180.628 142.531C180.481 138.516 181.266 124.085 181.362 121.746C181.458 119.406 183.994 114.53 184.365 112.351C184.735 110.171 184.435 103.71 184.435 103.71C184.435 103.71 168.018 105.913 163.547 105.165Z" fill="#263238" stroke="#263238" stroke-width="0.75" stroke-linecap="round" stroke-linejoin="round"/>
<path d="M156.546 114.495L160.5 116.876" stroke="white" stroke-width="0.75" stroke-linecap="round" stroke-linejoin="round"/>
<path d="M170.816 154.741C171.365 156.065 171.704 156.831 171.704 156.831" stroke="white" stroke-width="0.75" stroke-linecap="round" stroke-linejoin="round"/>
<path d="M159.184 116.264C159.184 116.264 161.816 130.624 164.965 139.609C166.581 144.217 168.312 148.636 169.615 151.837" stroke="white" stroke-width="0.75" stroke-linecap="round" stroke-linejoin="round"/>
<path d="M129.455 94.6297C129.525 94.8316 129.889 102.255 129.889 102.255L150.905 100.473L150.471 90.8765L129.455 94.6297Z" fill="#263238" stroke="#263238" stroke-width="0.75" stroke-linecap="round" stroke-linejoin="round"/>
<path d="M170.675 55.7494C170.675 55.7494 165.917 57.3112 164.965 58.4039C164.013 59.4966 158.373 77.9362 156.52 83.3819C154.668 88.8277 154.106 105.302 154.106 105.302C155.13 105.654 156.183 105.928 157.255 106.121C158.31 106.287 159.379 106.354 160.449 106.323C160.449 106.323 166.6 87.058 169.602 80.4601C172.605 73.8623 177.651 64.396 179.561 60.72C181.471 57.044 183.144 56.361 182.927 54.5913C182.71 52.8216 181.829 52.1386 180.73 52.0021C179.631 51.8655 170.675 55.7494 170.675 55.7494Z" fill="white" stroke="#263238" stroke-width="0.75" stroke-linecap="round" stroke-linejoin="round"/>
<path d="M171.27 55.2088C171.27 55.2088 166.511 56.7707 165.559 57.8634C164.607 58.9561 158.973 77.3957 157.159 82.8414C155.345 88.2872 154.725 104.761 154.725 104.761C155.749 105.113 156.802 105.387 157.874 105.581C158.93 105.743 159.999 105.81 161.068 105.782C161.068 105.782 167.22 86.5175 170.222 79.9137C173.224 73.3099 178.277 63.8793 180.181 60.1735C182.084 56.4678 183.764 55.8205 183.547 54.0508C183.33 52.2811 182.448 51.5981 181.349 51.4615C180.251 51.3249 171.27 55.2088 171.27 55.2088Z" fill="#3768B1" stroke="#263238" stroke-width="0.75" stroke-linecap="round" stroke-linejoin="round"/>
<path d="M177.702 57.448C174.718 62.1941 172.1 67.1317 169.871 72.2234C166.868 79.4389 164.454 85.8823 161.375 95.503C159.524 101.443 158.904 107.656 159.548 113.812C159.548 113.812 161.011 116.128 169.653 116.401C178.296 116.674 189.13 114.085 189.13 114.085C189.13 114.085 187.661 105.913 187.514 101.085C187.367 96.2572 191.544 79.3023 193.301 74.878C195.058 70.4537 198.865 66.0294 195.217 61.7417C191.57 57.4539 182.844 52.6199 182.844 52.6199C182.844 52.6199 178.654 55.9515 177.702 57.448Z" fill="#263238" stroke="#263238" stroke-width="0.75" stroke-linecap="round" stroke-linejoin="round"/>
<path d="M167.82 57.3828C167.82 57.3828 165.552 60.0374 163.502 65.697C161.451 71.3565 157.644 86.3932 155.888 92.7891C154.131 99.1851 153.249 113.414 153.249 113.414C153.249 113.414 152.298 113.349 150.324 113.349C149.023 113.313 147.747 113.011 146.587 112.464C146.587 112.464 147.98 98.5081 149.225 91.9755C150.471 85.443 154.131 73.7973 154.789 69.2364C155.447 64.6755 155.664 63.5234 156.546 62.9058C157.427 62.2882 164.307 58.4162 165.699 57.5313C167.092 56.6464 167.82 57.3828 167.82 57.3828Z" fill="#263238" stroke="#263238" stroke-width="0.75" stroke-linecap="round" stroke-linejoin="round"/>
<path d="M185.099 54.1162C185.099 54.1162 180.928 61.8068 179.829 63.238C179.192 64.0549 178.628 64.9189 178.143 65.8213L174.483 67.1159L175.945 69.2954C175.945 69.2954 168.555 81.6003 166.651 85.698C164.748 89.7957 162.818 94.2081 162.818 94.2081" stroke="white" stroke-width="0.75" stroke-linecap="round" stroke-linejoin="round"/>
<path d="M155.019 88.7683C154.885 90.1283 154.859 90.6687 154.859 90.6687" stroke="white" stroke-width="0.75" stroke-linecap="round" stroke-linejoin="round"/>
<path d="M164.09 59.7642L159.989 65.6197L160.94 66.9796L158.666 69.5689C158.666 69.5689 156.252 78.8926 155.594 83.9286C155.466 84.9085 155.357 85.7636 155.274 86.506" stroke="white" stroke-width="0.75" stroke-linecap="round" stroke-linejoin="round"/>
<path d="M164.894 57.2458L164.09 60.8506L168.261 58.2673L164.894 57.2458Z" fill="white" stroke="#263238" stroke-width="0.75" stroke-linecap="round" stroke-linejoin="round"/>
<path d="M168.408 54.3894C168.331 54.5913 164.894 57.2459 164.894 57.2459L168.772 58.7424L169.577 55.8147L168.408 54.3894Z" fill="white" stroke="#263238" stroke-width="0.75" stroke-linecap="round" stroke-linejoin="round"/>
<path d="M167.015 27.2258C165.363 28.1829 164.06 29.5823 163.278 31.2403C161.962 34.0315 160.94 35.1895 161.234 36.0744C161.445 36.6729 161.591 37.2897 161.669 37.9153C161.669 38.1173 158.596 40.8431 158.519 41.6567C158.443 42.4703 160.5 43.9728 160.5 43.9728C160.5 43.9728 160.717 48.6703 160.717 49.08C160.717 49.4898 160.864 51.598 162.991 52.1384C164.438 52.4486 165.944 52.4261 167.379 52.0731L168.772 58.7422C168.772 58.7422 178.513 53.1599 179.535 52.6848C180.557 52.2097 181.803 51.598 181.88 50.8498C181.956 50.1015 181.292 45.9444 181.292 45.9444C181.292 45.9444 186.492 41.5201 186.402 36.3475C186.313 31.175 183.349 27.9087 177.926 26.3706C172.502 24.8325 167.015 27.2258 167.015 27.2258Z" fill="white" stroke="#263238" stroke-width="0.75" stroke-linecap="round" stroke-linejoin="round"/>
<path d="M186.415 36.3474C186.345 31.1748 183.342 27.9085 177.926 26.3407C172.509 24.7729 167.015 27.2256 167.015 27.2256C166.587 27.4641 166.185 27.7405 165.814 28.0511C167.603 27.7541 170.548 27.5463 172.656 28.7934C175.85 30.6997 173.825 32.606 172.726 33.6275C171.627 34.6489 171.41 35.0528 172.215 36.0029C173.02 36.9531 174.559 36.9531 174.189 37.838C173.818 38.7229 172.726 39.9522 173.607 40.2907C174.489 40.6292 175.287 39.8809 175.658 38.8594C176.028 37.838 177.849 37.838 178.584 39.9522C178.85 40.7471 178.844 41.5992 178.569 42.3914C178.293 43.1836 177.761 43.877 177.044 44.3765C176.454 44.7827 175.725 44.9748 174.994 44.9169C176.251 45.5107 177.578 45.9689 178.948 46.2828C179.742 46.3445 180.543 46.2864 181.318 46.1106C181.318 46.0037 181.318 45.9383 181.318 45.9383C181.318 45.9383 186.492 41.52 186.415 36.3474Z" fill="#263238" stroke="#263238" stroke-width="0.75" stroke-linecap="round" stroke-linejoin="round"/>
<path d="M165.112 39.0027C165.112 39.5312 164.933 39.9588 164.709 39.9588C164.486 39.9588 164.307 39.5312 164.307 39.0027C164.307 38.4741 164.486 38.0525 164.709 38.0525C164.933 38.0525 165.112 38.4801 165.112 39.0027Z" fill="black"/>
<path d="M163.208 36.1457C163.208 36.1457 163.502 35.1896 165.124 35.2609C166.747 35.3321 166.811 36.4189 166.811 36.4189" fill="white"/>
<path d="M163.208 36.1457C163.208 36.1457 163.502 35.1896 165.124 35.2609C166.747 35.3321 166.811 36.4189 166.811 36.4189" stroke="#263238" stroke-width="0.75" stroke-linecap="round" stroke-linejoin="round"/>
<path d="M160.5 43.9732C160.947 44.1234 161.427 44.1711 161.898 44.1122C162.37 44.0533 162.819 43.8895 163.208 43.6347C164.377 42.7498 163.425 41.9956 163.425 41.9956" fill="white"/>
<path d="M160.5 43.9732C160.947 44.1234 161.427 44.1711 161.898 44.1122C162.37 44.0533 162.819 43.8895 163.208 43.6347C164.377 42.7498 163.425 41.9956 163.425 41.9956" stroke="#263238" stroke-width="0.75" stroke-linecap="round" stroke-linejoin="round"/>
<path d="M160.794 45.0597C160.794 45.0597 164.671 43.2781 166.428 43.2246C168.184 43.1712 170.018 45.9683 169.296 48.3438C168.574 50.7192 167.763 51.907 165.271 52.8393C162.78 53.7717 160.436 53.5876 160.001 52.0198C159.567 50.452 161.535 48.2131 162.486 47.8033C163.438 47.3936 164.173 47.3282 164.026 48.0765C163.879 48.8248 163.438 49.3652 165.271 49.0267C167.105 48.6882 168.127 48.2131 168.197 46.3721C168.267 44.5311 167.558 43.8541 165.642 44.1273C163.726 44.4005 160.883 45.8258 160.883 45.8258L160.794 45.0597Z" fill="#263238" stroke="#263238" stroke-width="0.75" stroke-linecap="round" stroke-linejoin="round"/>
<path d="M162.327 46.4909C162.327 46.4909 165.405 46.3543 166.504 45.1963L162.327 46.4909Z" fill="white"/>
<path d="M162.327 46.4909C162.327 46.4909 165.405 46.3543 166.504 45.1963" stroke="#263238" stroke-width="0.75" stroke-linecap="round" stroke-linejoin="round"/>
<path d="M174.706 44.8582C174.711 45.417 174.581 45.9698 174.327 46.4762C174.073 46.9827 173.701 47.4301 173.237 47.7859" fill="white"/>
<path d="M174.706 44.8582C174.711 45.417 174.581 45.9698 174.327 46.4762C174.073 46.9827 173.701 47.4301 173.237 47.7859" stroke="#263238" stroke-width="0.75" stroke-linecap="round" stroke-linejoin="round"/>
<path d="M168.772 58.7429L170.899 63.3038C170.899 63.3038 178.948 57.7214 180.928 55.542C182.908 53.3625 184.441 52.2757 183.342 50.791C182.244 49.3064 180.634 50.5179 180.34 50.6544C180.046 50.791 168.772 58.7429 168.772 58.7429Z" fill="white" stroke="#263238" stroke-width="0.75" stroke-linecap="round" stroke-linejoin="round"/>
<path d="M152.687 98.971C151.776 96.2135 151.044 93.4074 150.496 90.5678C150.056 87.9608 149.858 85.3062 149.858 85.3062C146.321 85.0065 142.863 84.1553 139.631 82.7882C134.802 80.6146 133.773 79.8188 133.773 79.8188C133.773 79.8188 140.289 99.559 141.611 103.71C142.933 107.861 143.221 108.746 143.221 108.746C145.31 109.708 147.523 110.419 149.806 110.86C151.619 111.175 153.456 111.355 155.3 111.401L152.687 98.971Z" fill="white" stroke="#263238" stroke-width="0.75" stroke-linecap="round" stroke-linejoin="round"/>
<path d="M159.989 98.9705C158.44 98.7029 156.936 98.2456 155.517 97.6106C154.452 97.0364 153.29 96.6348 152.08 96.4229H151.787L152.662 98.9408C151.581 99.1629 150.479 99.2784 149.372 99.2853C147.615 99.2853 143.949 98.7389 143.808 98.9408C143.672 99.429 143.623 99.9344 143.661 100.437C143.661 100.918 146.293 103.846 147.833 104.868C149.372 105.889 150.758 106.566 152.151 106.566C153.543 106.566 161.011 105.616 161.011 105.616L159.989 98.9705Z" fill="white" stroke="#263238" stroke-width="0.75" stroke-linecap="round" stroke-linejoin="round"/>
<path d="M181.292 72.4248C181.292 72.4248 181.656 80.0501 181.88 85.5611C182.103 91.0722 182.467 91.5533 182.467 91.5533C182.467 91.5533 166.063 97.2722 163.572 97.7473C161.081 98.2224 159.184 98.7687 159.184 98.7687L160.282 106.186C165.65 106.607 171.056 106.147 176.252 104.826C184.237 102.647 196.533 100.467 196.757 99.4517C196.98 98.4362 196.757 95.3659 196.757 94.7008C196.757 94.0356 196.533 79.3849 196.533 72.8524C196.533 66.3199 197.044 64.8174 196.169 63.4574C195.294 62.0975 190.823 61.4145 188.261 62.7745" fill="#263238"/>
<path d="M181.292 72.4248C181.292 72.4248 181.656 80.0501 181.88 85.5611C182.103 91.0722 182.467 91.5533 182.467 91.5533C182.467 91.5533 166.063 97.2722 163.572 97.7473C161.081 98.2224 159.184 98.7687 159.184 98.7687L160.282 106.186C165.65 106.607 171.056 106.147 176.252 104.826C184.237 102.647 196.533 100.467 196.757 99.4517C196.98 98.4362 196.757 95.3659 196.757 94.7008C196.757 94.0356 196.533 79.3849 196.533 72.8524C196.533 66.3199 197.044 64.8174 196.169 63.4574C195.294 62.0975 190.823 61.4145 188.261 62.7745" stroke="#263238" stroke-width="0.75" stroke-linecap="round" stroke-linejoin="round"/>
<path d="M168.906 95.9307L182.467 91.5539L181.266 74.7534" stroke="white" stroke-width="0.75" stroke-linecap="round" stroke-linejoin="round"/>
<path d="M165.099 97.1598L167.06 96.5303" stroke="white" stroke-width="0.75" stroke-linecap="round" stroke-linejoin="round"/>
<path d="M185.968 66.2843C185.968 66.2843 191.078 60.3457 196.156 63.4397" stroke="white" stroke-width="0.75" stroke-linecap="round" stroke-linejoin="round"/>
<path d="M143.949 99.6538C143.949 99.6538 147.322 101.762 149.589 102.106" stroke="#263238" stroke-width="0.75" stroke-linecap="round" stroke-linejoin="round"/>
<path d="M144.537 101.697C145.53 102.51 146.67 103.155 147.903 103.603L149.442 104.007" stroke="#263238" stroke-width="0.75" stroke-linecap="round" stroke-linejoin="round"/>
<path d="M148.216 105.1C149.087 105.397 149.999 105.581 150.924 105.646" stroke="#263238" stroke-width="0.75" stroke-linecap="round" stroke-linejoin="round"/>
<path d="M86.037 79.6109C86.037 79.6109 85.0277 70.0199 83.8396 63.2617C83.2008 59.5263 80.767 56.3432 78.2247 53.4926C76.1231 51.1172 72.9484 48.9436 71.1981 46.4197C70.5913 45.5526 67.4102 51.8239 67.4038 51.8298C66.765 53.166 74.3345 57.4003 75.3566 58.3623C76.698 59.6095 77.9117 61.0822 79.1318 62.4244C79.6875 63.0182 81.1503 65.2809 81.9871 65.4709L83.3413 65.7857L82.3257 68.6184L86.037 79.6109Z" fill="#3768B1" stroke="#263238" stroke-width="0.75" stroke-linecap="round" stroke-linejoin="round"/>
</svg>
